STARTFONT 2.1
COMMENT Font grabbed from the X server.
FONT -tamentis-Termentis-Bold-R-Normal--24-240-72-72-C-120-ISO10646-1
SIZE 24 72 72
FONTBOUNDINGBOX 10 24 0 -5
STARTPROPERTIES 24
FAMILY_NAME "Termentis"
FOUNDRY "tamentis"
SETWIDTH_NAME "Normal"
ADD_STYLE_NAME ""
COPYRIGHT "Copyright (C) 2010 Bertrand Janin"
WEIGHT_NAME "Bold"
SLANT "R"
PIXEL_SIZE 24
POINT_SIZE 240
RESOLUTION_X 72
RESOLUTION_Y 72
SPACING "C"
AVERAGE_WIDTH 100
CHARSET_REGISTRY "ISO10646"
CHARSET_ENCODING "1"
MIN_SPACE 10
WEIGHT 10
RESOLUTION 99
X_HEIGHT 19
QUAD_WIDTH 10
DEFAULT_CHAR 63
FONT_ASCENT 19
FONT_DESCENT 5
_GBDFED_INFO "Edited with gbdfed 1.6."
ENDPROPERTIES
CHARS 845
STARTCHAR char0
ENCODING 0
SWIDTH 416 0
DWIDTH 10 0
BBX 10 24 0 -5
BITMAP
0000
0000
0000
0000
7380
6180
4080
4080
0000
0000
4080
6180
4080
0000
0000
4080
4080
6180
7380
0000
0000
0000
0000
0000
ENDCHAR
STARTCHAR char1
ENCODING 1
SWIDTH 416 0
DWIDTH 10 0
BBX 10 24 0 -5
BITMAP
0000
0000
0000
0000
0000
0000
0000
0C00
1E00
3F00
7F80
FFC0
FFC0
7F80
3F00
1E00
0C00
0000
0000
0000
0000
0000
0000
0000
ENDCHAR
STARTCHAR char2
ENCODING 2
SWIDTH 416 0
DWIDTH 10 0
BBX 10 24 0 -5
BITMAP
AAA0
5550
AAA0
5550
AAA0
5550
AAA0
5550
AAA0
5550
AAA0
5550
AAA0
5550
AAA0
5550
AAA0
5550
AAA0
5550
AAA0
5550
AAA0
5550
ENDCHAR
STARTCHAR char3
ENCODING 3
SWIDTH 416 0
DWIDTH 10 0
BBX 10 24 0 -5
BITMAP
0000
0000
0000
6600
6600
6600
7E00
6600
6600
6600
0000
0000
07E0
0180
0180
0180
0180
0180
0180
0000
0000
0000
0000
0000
ENDCHAR
STARTCHAR char4
ENCODING 4
SWIDTH 416 0
DWIDTH 10 0
BBX 10 24 0 -5
BITMAP
0000
0000
0000
7E00
6000
6000
7800
6000
6000
6000
0000
0000
07E0
0600
0600
0780
0600
0600
0600
0000
0000
0000
0000
0000
ENDCHAR
STARTCHAR char5
ENCODING 5
SWIDTH 416 0
DWIDTH 10 0
BBX 10 24 0 -5
BITMAP
0000
0000
0000
3C00
6600
6000
6000
6000
6600
3C00
0000
0000
07C0
0660
0660
07C0
0780
06C0
0660
0000
0000
0000
0000
0000
ENDCHAR
STARTCHAR char6
ENCODING 6
SWIDTH 416 0
DWIDTH 10 0
BBX 10 24 0 -5
BITMAP
0000
0000
0000
6000
6000
6000
6000
6000
6000
7E00
0000
0000
07E0
0600
0600
0780
0600
0600
0600
0000
0000
0000
0000
0000
ENDCHAR
STARTCHAR char7
ENCODING 7
SWIDTH 416 0
DWIDTH 10 0
BBX 10 24 0 -5
BITMAP
0000
0000
1F00
3180
3180
3180
3180
1F00
0000
0000
0000
0000
0000
0000
0000
0000
0000
0000
0000
0000
0000
0000
0000
0000
ENDCHAR
STARTCHAR char8
ENCODING 8
SWIDTH 416 0
DWIDTH 10 0
BBX 10 24 0 -5
BITMAP
0000
0000
0000
0000
0000
0000
0000
0600
0600
0600
0600
7FE0
0600
0600
0600
0600
0000
0000
7FE0
0000
0000
0000
0000
0000
ENDCHAR
STARTCHAR char9
ENCODING 9
SWIDTH 416 0
DWIDTH 10 0
BBX 10 24 0 -5
BITMAP
0000
0000
0000
6600
6600
7600
7E00
6E00
6600
6600
0000
0000
0600
0600
0600
0600
0600
0600
07E0
0000
0000
0000
0000
0000
ENDCHAR
STARTCHAR char10
ENCODING 10
SWIDTH 416 0
DWIDTH 10 0
BBX 10 24 0 -5
BITMAP
0000
0000
0000
6600
6600
6600
6600
6600
3C00
1800
0000
0000
07E0
0180
0180
0180
0180
0180
0180
0000
0000
0000
0000
0000
ENDCHAR
STARTCHAR char11
ENCODING 11
SWIDTH 416 0
DWIDTH 10 0
BBX 10 24 0 -5
BITMAP
0600
0600
0600
0600
0600
0600
0600
0600
0600
0600
0600
FE00
FE00
0000
0000
0000
0000
0000
0000
0000
0000
0000
0000
0000
ENDCHAR
STARTCHAR char12
ENCODING 12
SWIDTH 416 0
DWIDTH 10 0
BBX 10 24 0 -5
BITMAP
0000
0000
0000
0000
0000
0000
0000
0000
0000
0000
0000
FE00
FE00
0600
0600
0600
0600
0600
0600
0600
0600
0600
0600
0600
ENDCHAR
STARTCHAR char13
ENCODING 13
SWIDTH 416 0
DWIDTH 10 0
BBX 10 24 0 -5
BITMAP
0000
0000
0000
0000
0000
0000
0000
0000
0000
0000
0000
07F0
07F0
0600
0600
0600
0600
0600
0600
0600
0600
0600
0600
0600
ENDCHAR
STARTCHAR char14
ENCODING 14
SWIDTH 416 0
DWIDTH 10 0
BBX 10 24 0 -5
BITMAP
0600
0600
0600
0600
0600
0600
0600
0600
0600
0600
0600
07F0
07F0
0000
0000
0000
0000
0000
0000
0000
0000
0000
0000
0000
ENDCHAR
STARTCHAR char15
ENCODING 15
SWIDTH 416 0
DWIDTH 10 0
BBX 10 24 0 -5
BITMAP
0600
0600
0600
0600
0600
0600
0600
0600
0600
0600
0600
FFF0
FFF0
0600
0600
0600
0600
0600
0600
0600
0600
0600
0600
0600
ENDCHAR
STARTCHAR char18
ENCODING 18
SWIDTH 416 0
DWIDTH 10 0
BBX 10 24 0 -5
BITMAP
0000
0000
0000
0000
0000
0000
0000
0000
0000
0000
0000
FFF0
FFF0
0000
0000
0000
0000
0000
0000
0000
0000
0000
0000
0000
ENDCHAR
STARTCHAR char21
ENCODING 21
SWIDTH 416 0
DWIDTH 10 0
BBX 10 24 0 -5
BITMAP
0600
0600
0600
0600
0600
0600
0600
0600
0600
0600
0600
07F0
07F0
0600
0600
0600
0600
0600
0600
0600
0600
0600
0600
0600
ENDCHAR
STARTCHAR char22
ENCODING 22
SWIDTH 416 0
DWIDTH 10 0
BBX 10 24 0 -5
BITMAP
0600
0600
0600
0600
0600
0600
0600
0600
0600
0600
0600
FE00
FE00
0600
0600
0600
0600
0600
0600
0600
0600
0600
0600
0600
ENDCHAR
STARTCHAR char23
ENCODING 23
SWIDTH 416 0
DWIDTH 10 0
BBX 10 24 0 -5
BITMAP
0600
0600
0600
0600
0600
0600
0600
0600
0600
0600
0600
FFF0
FFF0
0000
0000
0000
0000
0000
0000
0000
0000
0000
0000
0000
ENDCHAR
STARTCHAR char24
ENCODING 24
SWIDTH 416 0
DWIDTH 10 0
BBX 10 24 0 -5
BITMAP
0000
0000
0000
0000
0000
0000
0000
0000
0000
0000
0000
FFF0
FFF0
0600
0600
0600
0600
0600
0600
0600
0600
0600
0600
0600
ENDCHAR
STARTCHAR char25
ENCODING 25
SWIDTH 416 0
DWIDTH 10 0
BBX 10 24 0 -5
BITMAP
0600
0600
0600
0600
0600
0600
0600
0600
0600
0600
0600
0600
0600
0600
0600
0600
0600
0600
0600
0600
0600
0600
0600
0600
ENDCHAR
STARTCHAR char26
ENCODING 26
SWIDTH 416 0
DWIDTH 10 0
BBX 10 24 0 -5
BITMAP
0000
0000
0000
0000
00C0
0180
0300
0600
0C00
1800
3000
1800
0C00
0600
0300
0180
00C0
0000
7FE0
0000
0000
0000
0000
0000
ENDCHAR
STARTCHAR char27
ENCODING 27
SWIDTH 416 0
DWIDTH 10 0
BBX 10 24 0 -5
BITMAP
0000
0000
0000
0000
3000
1800
0C00
0600
0300
0180
00C0
0180
0300
0600
0C00
1800
3000
0000
7FE0
0000
0000
0000
0000
0000
ENDCHAR
STARTCHAR char28
ENCODING 28
SWIDTH 416 0
DWIDTH 10 0
BBX 10 24 0 -5
BITMAP
0000
0000
0000
0000
0000
0000
0000
0000
7FE0
6060
6060
6060
6060
6060
6060
6060
6060
6060
6060
0000
0000
0000
0000
0000
ENDCHAR
STARTCHAR char29
ENCODING 29
SWIDTH 416 0
DWIDTH 10 0
BBX 10 24 0 -5
BITMAP
0000
0000
0000
0000
0000
0000
0000
0060
7FE0
0180
0300
0600
0C00
1800
7FE0
6000
0000
0000
0000
0000
0000
0000
0000
0000
ENDCHAR
STARTCHAR char30
ENCODING 30
SWIDTH 416 0
DWIDTH 10 0
BBX 10 24 0 -5
BITMAP
0000
0000
0000
0000
0F00
1980
30C0
3000
3000
3000
3000
7F00
3000
3000
3000
3000
3060
3060
7FE0
0000
0000
0000
0000
0000
ENDCHAR
STARTCHAR char31
ENCODING 31
SWIDTH 416 0
DWIDTH 10 0
BBX 10 24 0 -5
BITMAP
0000
0000
0000
0000
0000
0000
0000
0000
0000
0000
0600
0600
0600
0000
0000
0000
0000
0000
0000
0000
0000
0000
0000
0000
ENDCHAR
STARTCHAR char32
ENCODING 32
SWIDTH 416 0
DWIDTH 10 0
BBX 10 24 0 -5
BITMAP
0000
0000
0000
0000
0000
0000
0000
0000
0000
0000
0000
0000
0000
0000
0000
0000
0000
0000
0000
0000
0000
0000
0000
0000
ENDCHAR
STARTCHAR char33
ENCODING 33
SWIDTH 416 0
DWIDTH 10 0
BBX 10 24 0 -5
BITMAP
0000
0600
0600
0600
0600
0600
0600
0600
0600
0600
0600
0600
0600
0600
0000
0000
0600
0600
0600
0000
0000
0000
0000
0000
ENDCHAR
STARTCHAR char34
ENCODING 34
SWIDTH 416 0
DWIDTH 10 0
BBX 10 24 0 -5
BITMAP
0000
0000
3300
3300
3300
3300
3300
0000
0000
0000
0000
0000
0000
0000
0000
0000
0000
0000
0000
0000
0000
0000
0000
0000
ENDCHAR
STARTCHAR char35
ENCODING 35
SWIDTH 416 0
DWIDTH 10 0
BBX 10 24 0 -5
BITMAP
0000
3300
3300
3300
3300
3300
7F80
7F80
3300
3300
3300
3300
7F80
7F80
3300
3300
3300
3300
3300
0000
0000
0000
0000
0000
ENDCHAR
STARTCHAR char36
ENCODING 36
SWIDTH 416 0
DWIDTH 10 0
BBX 10 24 0 -5
BITMAP
0000
0C00
0C00
1E00
3F00
6D80
6D80
6C00
6C00
3E00
1F00
0D80
0D80
0D80
0D80
6D80
6D80
3F00
1E00
0C00
0C00
0000
0000
0000
ENDCHAR
STARTCHAR char37
ENCODING 37
SWIDTH 416 0
DWIDTH 10 0
BBX 10 24 0 -5
BITMAP
0000
0000
0000
0180
3180
4B00
4B00
3600
0600
0C00
0C00
1800
1B00
3480
3480
6300
6000
0000
0000
0000
0000
0000
0000
0000
ENDCHAR
STARTCHAR char38
ENCODING 38
SWIDTH 416 0
DWIDTH 10 0
BBX 10 24 0 -5
BITMAP
0000
1E00
3F00
6180
6180
6000
6000
3E00
3F00
6180
6180
61C0
61C0
6180
6180
6180
6180
3FC0
1EC0
0000
0000
0000
0000
0000
ENDCHAR
STARTCHAR char39
ENCODING 39
SWIDTH 416 0
DWIDTH 10 0
BBX 10 24 0 -5
BITMAP
0000
0C00
0C00
0C00
0C00
0C00
0C00
0000
0000
0000
0000
0000
0000
0000
0000
0000
0000
0000
0000
0000
0000
0000
0000
0000
ENDCHAR
STARTCHAR char40
ENCODING 40
SWIDTH 416 0
DWIDTH 10 0
BBX 10 24 0 -5
BITMAP
0180
0300
0600
0C00
0C00
0C00
1800
1800
1800
3000
3000
3000
1800
1800
1800
0C00
0C00
0C00
0600
0300
0180
0000
0000
0000
ENDCHAR
STARTCHAR char41
ENCODING 41
SWIDTH 416 0
DWIDTH 10 0
BBX 10 24 0 -5
BITMAP
6000
3000
1800
0C00
0C00
0C00
0600
0600
0600
0300
0300
0300
0600
0600
0600
0C00
0C00
0C00
1800
3000
6000
0000
0000
0000
ENDCHAR
STARTCHAR char42
ENCODING 42
SWIDTH 416 0
DWIDTH 10 0
BBX 10 24 0 -5
BITMAP
0000
0000
0000
0000
0000
0000
6180
3300
1E00
0C00
FFC0
FFC0
0C00
1E00
3300
6180
0000
0000
0000
0000
0000
0000
0000
0000
ENDCHAR
STARTCHAR char43
ENCODING 43
SWIDTH 416 0
DWIDTH 10 0
BBX 10 24 0 -5
BITMAP
0000
0000
0000
0000
0000
0000
0C00
0C00
0C00
0C00
7F80
7F80
0C00
0C00
0C00
0C00
0000
0000
0000
0000
0000
0000
0000
0000
ENDCHAR
STARTCHAR char44
ENCODING 44
SWIDTH 416 0
DWIDTH 10 0
BBX 10 24 0 -5
BITMAP
0000
0000
0000
0000
0000
0000
0000
0000
0000
0000
0000
0000
0000
0000
0000
0000
0C00
0C00
0C00
1C00
3800
3000
0000
0000
ENDCHAR
STARTCHAR char45
ENCODING 45
SWIDTH 416 0
DWIDTH 10 0
BBX 10 24 0 -5
BITMAP
0000
0000
0000
0000
0000
0000
0000
0000
0000
0000
0000
7F80
7F80
0000
0000
0000
0000
0000
0000
0000
0000
0000
0000
0000
ENDCHAR
STARTCHAR char46
ENCODING 46
SWIDTH 416 0
DWIDTH 10 0
BBX 10 24 0 -5
BITMAP
0000
0000
0000
0000
0000
0000
0000
0000
0000
0000
0000
0000
0000
0000
0000
0000
0C00
0C00
0C00
0000
0000
0000
0000
0000
ENDCHAR
STARTCHAR char47
ENCODING 47
SWIDTH 416 0
DWIDTH 10 0
BBX 10 24 0 -5
BITMAP
0000
00C0
00C0
0180
0180
0300
0300
0600
0600
0C00
0C00
1800
1800
3000
3000
6000
6000
C000
C000
0000
0000
0000
0000
0000
ENDCHAR
STARTCHAR char48
ENCODING 48
SWIDTH 416 0
DWIDTH 10 0
BBX 10 24 0 -5
BITMAP
0000
1E00
3F00
6180
6180
6180
6180
6180
6380
6780
6F80
7D80
7980
7180
6180
6180
6180
3F00
1E00
0000
0000
0000
0000
0000
ENDCHAR
STARTCHAR char49
ENCODING 49
SWIDTH 416 0
DWIDTH 10 0
BBX 10 24 0 -5
BITMAP
0000
0C00
0C00
1C00
3C00
7C00
6C00
0C00
0C00
0C00
0C00
0C00
0C00
0C00
0C00
0C00
0C00
7F80
7F80
0000
0000
0000
0000
0000
ENDCHAR
STARTCHAR char50
ENCODING 50
SWIDTH 416 0
DWIDTH 10 0
BBX 10 24 0 -5
BITMAP
0000
1E00
3F00
6180
6180
6180
6180
0180
0380
0700
0E00
1C00
3800
7000
6000
6000
6000
7F80
7F80
0000
0000
0000
0000
0000
ENDCHAR
STARTCHAR char51
ENCODING 51
SWIDTH 416 0
DWIDTH 10 0
BBX 10 24 0 -5
BITMAP
0000
1E00
3F00
6180
6180
0180
0700
0700
0180
0180
0180
0180
0180
0180
0180
6180
6180
3F00
1E00
0000
0000
0000
0000
0000
ENDCHAR
STARTCHAR char52
ENCODING 52
SWIDTH 416 0
DWIDTH 10 0
BBX 10 24 0 -5
BITMAP
0000
0300
0700
0F00
1F00
3B00
7300
6300
6300
6300
6300
6300
6300
6300
6300
7F80
7F80
0300
0300
0000
0000
0000
0000
0000
ENDCHAR
STARTCHAR char53
ENCODING 53
SWIDTH 416 0
DWIDTH 10 0
BBX 10 24 0 -5
BITMAP
0000
7F80
7F80
6000
6000
6000
7E00
7F00
0180
0180
0180
0180
0180
0180
6180
6180
6180
3F00
1E00
0000
0000
0000
0000
0000
ENDCHAR
STARTCHAR char54
ENCODING 54
SWIDTH 416 0
DWIDTH 10 0
BBX 10 24 0 -5
BITMAP
0000
1E00
3F00
6180
6180
6000
7E00
7F00
6180
6180
6180
6180
6180
6180
6180
6180
6180
3F00
1E00
0000
0000
0000
0000
0000
ENDCHAR
STARTCHAR char55
ENCODING 55
SWIDTH 416 0
DWIDTH 10 0
BBX 10 24 0 -5
BITMAP
0000
7F80
7F80
0180
0180
0180
0180
0180
0180
0180
0380
0700
0E00
1C00
1800
1800
1800
1800
1800
0000
0000
0000
0000
0000
ENDCHAR
STARTCHAR char56
ENCODING 56
SWIDTH 416 0
DWIDTH 10 0
BBX 10 24 0 -5
BITMAP
0000
1E00
3F00
6180
6180
6180
6180
3F00
3F00
6180
6180
6180
6180
6180
6180
6180
6180
3F00
1E00
0000
0000
0000
0000
0000
ENDCHAR
STARTCHAR char57
ENCODING 57
SWIDTH 416 0
DWIDTH 10 0
BBX 10 24 0 -5
BITMAP
0000
1E00
3F00
6180
6180
6180
6180
6180
6180
6180
6180
3F80
1F80
0180
0180
6180
6180
3F00
1E00
0000
0000
0000
0000
0000
ENDCHAR
STARTCHAR char58
ENCODING 58
SWIDTH 416 0
DWIDTH 10 0
BBX 10 24 0 -5
BITMAP
0000
0000
0000
0000
0000
0000
0000
0000
0600
0600
0600
0000
0000
0000
0000
0600
0600
0600
0000
0000
0000
0000
0000
0000
ENDCHAR
STARTCHAR char59
ENCODING 59
SWIDTH 416 0
DWIDTH 10 0
BBX 10 24 0 -5
BITMAP
0000
0000
0000
0000
0000
0000
0000
0000
0600
0600
0600
0000
0000
0000
0000
0600
0600
0600
0600
0C00
0000
0000
0000
0000
ENDCHAR
STARTCHAR char60
ENCODING 60
SWIDTH 416 0
DWIDTH 10 0
BBX 10 24 0 -5
BITMAP
0000
0000
0000
0000
00C0
0180
0300
0600
0C00
1800
3000
6000
3000
1800
0C00
0600
0300
0180
00C0
0000
0000
0000
0000
0000
ENDCHAR
STARTCHAR char61
ENCODING 61
SWIDTH 416 0
DWIDTH 10 0
BBX 10 24 0 -5
BITMAP
0000
0000
0000
0000
0000
0000
0000
0000
0000
7F80
7F80
0000
0000
0000
7F80
7F80
0000
0000
0000
0000
0000
0000
0000
0000
ENDCHAR
STARTCHAR char62
ENCODING 62
SWIDTH 416 0
DWIDTH 10 0
BBX 10 24 0 -5
BITMAP
0000
0000
0000
0000
6000
3000
1800
0C00
0600
0300
0180
00C0
0180
0300
0600
0C00
1800
3000
6000
0000
0000
0000
0000
0000
ENDCHAR
STARTCHAR char63
ENCODING 63
SWIDTH 416 0
DWIDTH 10 0
BBX 10 24 0 -5
BITMAP
0000
1E00
3F00
6180
6180
6180
6180
0180
0180
0380
0700
0E00
0C00
0C00
0000
0000
0C00
0C00
0C00
0000
0000
0000
0000
0000
ENDCHAR
STARTCHAR char64
ENCODING 64
SWIDTH 416 0
DWIDTH 10 0
BBX 10 24 0 -5
BITMAP
0000
1F00
3F80
6180
6180
6180
6180
6780
6F80
6D80
6D80
6D80
6D80
6F80
6680
6000
6000
3F80
1F80
0000
0000
0000
0000
0000
ENDCHAR
STARTCHAR char65
ENCODING 65
SWIDTH 416 0
DWIDTH 10 0
BBX 10 24 0 -5
BITMAP
0000
1E00
3F00
6180
6180
6180
6180
6180
6180
6180
6180
6180
6180
6180
7F80
7F80
6180
6180
6180
0000
0000
0000
0000
0000
ENDCHAR
STARTCHAR char66
ENCODING 66
SWIDTH 416 0
DWIDTH 10 0
BBX 10 24 0 -5
BITMAP
0000
7E00
7F00
6180
6180
6100
7E00
7F00
6180
6180
6180
6180
6180
6180
6180
6180
6180
7F00
7E00
0000
0000
0000
0000
0000
ENDCHAR
STARTCHAR char67
ENCODING 67
SWIDTH 416 0
DWIDTH 10 0
BBX 10 24 0 -5
BITMAP
0000
1F80
3F80
6000
6000
6000
6000
6000
6000
6000
6000
6000
6000
6000
6000
6000
6000
3F80
1F80
0000
0000
0000
0000
0000
ENDCHAR
STARTCHAR char68
ENCODING 68
SWIDTH 416 0
DWIDTH 10 0
BBX 10 24 0 -5
BITMAP
0000
7E00
7F00
6180
6180
6180
6180
6180
6180
6180
6180
6180
6180
6180
6180
6180
6180
7F00
7E00
0000
0000
0000
0000
0000
ENDCHAR
STARTCHAR char69
ENCODING 69
SWIDTH 416 0
DWIDTH 10 0
BBX 10 24 0 -5
BITMAP
0000
7F80
7F80
6000
6000
6000
6000
6000
6000
6000
6000
6000
7C00
7C00
6000
6000
6000
7F80
7F80
0000
0000
0000
0000
0000
ENDCHAR
STARTCHAR char70
ENCODING 70
SWIDTH 416 0
DWIDTH 10 0
BBX 10 24 0 -5
BITMAP
0000
7F80
7F80
6000
6000
6000
6000
6000
6000
6000
6000
6000
6000
6000
7C00
7C00
6000
6000
6000
0000
0000
0000
0000
0000
ENDCHAR
STARTCHAR char71
ENCODING 71
SWIDTH 416 0
DWIDTH 10 0
BBX 10 24 0 -5
BITMAP
0000
1F80
3F80
6000
6000
6000
6000
6000
6000
6000
6000
6000
6000
6780
6780
6180
6180
3F80
1F80
0000
0000
0000
0000
0000
ENDCHAR
STARTCHAR char72
ENCODING 72
SWIDTH 416 0
DWIDTH 10 0
BBX 10 24 0 -5
BITMAP
0000
6180
6180
6180
6180
6180
6180
6180
6180
6180
6180
6180
6180
7F80
7F80
6180
6180
6180
6180
0000
0000
0000
0000
0000
ENDCHAR
STARTCHAR char73
ENCODING 73
SWIDTH 416 0
DWIDTH 10 0
BBX 10 24 0 -5
BITMAP
0000
3F00
3F00
0C00
0C00
0C00
0C00
0C00
0C00
0C00
0C00
0C00
0C00
0C00
0C00
0C00
0C00
3F00
3F00
0000
0000
0000
0000
0000
ENDCHAR
STARTCHAR char74
ENCODING 74
SWIDTH 416 0
DWIDTH 10 0
BBX 10 24 0 -5
BITMAP
0000
1F80
1F80
0180
0180
0180
0180
0180
0180
0180
0180
0180
0180
0180
6180
6180
6180
3F00
1E00
0000
0000
0000
0000
0000
ENDCHAR
STARTCHAR char75
ENCODING 75
SWIDTH 416 0
DWIDTH 10 0
BBX 10 24 0 -5
BITMAP
0000
6180
6180
6180
6180
6180
6180
6380
6700
6E00
7C00
7800
7800
7C00
6E00
6700
6380
6180
6180
0000
0000
0000
0000
0000
ENDCHAR
STARTCHAR char76
ENCODING 76
SWIDTH 416 0
DWIDTH 10 0
BBX 10 24 0 -5
BITMAP
0000
6000
6000
6000
6000
6000
6000
6000
6000
6000
6000
6000
6000
6000
6000
6000
6000
7F80
7F80
0000
0000
0000
0000
0000
ENDCHAR
STARTCHAR char77
ENCODING 77
SWIDTH 416 0
DWIDTH 10 0
BBX 10 24 0 -5
BITMAP
0000
6180
6180
6180
6180
6180
6180
7380
7F80
7F80
6D80
6180
6180
6180
6180
6180
6180
6180
6180
0000
0000
0000
0000
0000
ENDCHAR
STARTCHAR char78
ENCODING 78
SWIDTH 416 0
DWIDTH 10 0
BBX 10 24 0 -5
BITMAP
0000
6180
6180
6180
6180
6180
6180
6180
6180
6180
6180
7180
7980
6D80
6780
6380
6180
6180
6180
0000
0000
0000
0000
0000
ENDCHAR
STARTCHAR char79
ENCODING 79
SWIDTH 416 0
DWIDTH 10 0
BBX 10 24 0 -5
BITMAP
0000
1E00
3F00
6180
6180
6180
6180
6180
6180
6180
6180
6180
6180
6180
6180
6180
6180
3F00
1E00
0000
0000
0000
0000
0000
ENDCHAR
STARTCHAR char80
ENCODING 80
SWIDTH 416 0
DWIDTH 10 0
BBX 10 24 0 -5
BITMAP
0000
7E00
7F00
6180
6180
6180
6180
6180
6180
6180
6180
6180
6180
6180
7F00
7E00
6000
6000
6000
0000
0000
0000
0000
0000
ENDCHAR
STARTCHAR char81
ENCODING 81
SWIDTH 416 0
DWIDTH 10 0
BBX 10 24 0 -5
BITMAP
0000
1E00
3F00
6180
6180
6180
6180
6180
6180
6180
6180
6180
6180
6180
6D80
6F80
6700
3F80
1D80
0000
0000
0000
0000
0000
ENDCHAR
STARTCHAR char82
ENCODING 82
SWIDTH 416 0
DWIDTH 10 0
BBX 10 24 0 -5
BITMAP
0000
7E00
7F00
6180
6180
6180
6180
6180
6180
6180
6180
6180
6180
6180
7F00
7E00
6700
6380
6180
0000
0000
0000
0000
0000
ENDCHAR
STARTCHAR char83
ENCODING 83
SWIDTH 416 0
DWIDTH 10 0
BBX 10 24 0 -5
BITMAP
0000
1E00
3F00
6180
6180
6000
7E00
3F00
0180
0180
0180
0180
0180
0180
0180
6180
6180
3F00
1E00
0000
0000
0000
0000
0000
ENDCHAR
STARTCHAR char84
ENCODING 84
SWIDTH 416 0
DWIDTH 10 0
BBX 10 24 0 -5
BITMAP
0000
7F80
7F80
0C00
0C00
0C00
0C00
0C00
0C00
0C00
0C00
0C00
0C00
0C00
0C00
0C00
0C00
0C00
0C00
0000
0000
0000
0000
0000
ENDCHAR
STARTCHAR char85
ENCODING 85
SWIDTH 416 0
DWIDTH 10 0
BBX 10 24 0 -5
BITMAP
0000
6180
6180
6180
6180
6180
6180
6180
6180
6180
6180
6180
6180
6180
6180
6180
6180
3F00
1E00
0000
0000
0000
0000
0000
ENDCHAR
STARTCHAR char86
ENCODING 86
SWIDTH 416 0
DWIDTH 10 0
BBX 10 24 0 -5
BITMAP
0000
6180
6180
6180
6180
6180
6180
6180
6180
6180
6180
6180
6180
6180
3300
3300
1E00
1E00
0C00
0000
0000
0000
0000
0000
ENDCHAR
STARTCHAR char87
ENCODING 87
SWIDTH 416 0
DWIDTH 10 0
BBX 10 24 0 -5
BITMAP
0000
6180
6180
6180
6180
6180
6180
6180
6180
6180
6180
6180
6D80
7F80
7F80
7380
6180
6180
6180
0000
0000
0000
0000
0000
ENDCHAR
STARTCHAR char88
ENCODING 88
SWIDTH 416 0
DWIDTH 10 0
BBX 10 24 0 -5
BITMAP
0000
6180
6180
6180
6180
6180
6180
6180
6180
6180
3300
1E00
0C00
1E00
3F00
3300
6180
6180
6180
0000
0000
0000
0000
0000
ENDCHAR
STARTCHAR char89
ENCODING 89
SWIDTH 416 0
DWIDTH 10 0
BBX 10 24 0 -5
BITMAP
0000
6180
6180
6180
6180
6180
6180
6180
6180
6180
3300
3F00
1E00
0C00
0C00
0C00
0C00
0C00
0C00
0000
0000
0000
0000
0000
ENDCHAR
STARTCHAR char90
ENCODING 90
SWIDTH 416 0
DWIDTH 10 0
BBX 10 24 0 -5
BITMAP
0000
7F80
7F80
0180
0180
0300
0600
7F80
1800
3000
6000
6000
6000
6000
6000
6000
6000
7F80
7F80
0000
0000
0000
0000
0000
ENDCHAR
STARTCHAR char91
ENCODING 91
SWIDTH 416 0
DWIDTH 10 0
BBX 10 24 0 -5
BITMAP
1F80
1F80
1800
1800
1800
1800
1800
1800
1800
1800
1800
1800
1800
1800
1800
1800
1800
1800
1800
1F80
1F80
0000
0000
0000
ENDCHAR
STARTCHAR char92
ENCODING 92
SWIDTH 416 0
DWIDTH 10 0
BBX 10 24 0 -5
BITMAP
0000
C000
C000
6000
6000
3000
3000
1800
1800
0C00
0C00
0600
0600
0300
0300
0180
0180
00C0
00C0
0000
0000
0000
0000
0000
ENDCHAR
STARTCHAR char93
ENCODING 93
SWIDTH 416 0
DWIDTH 10 0
BBX 10 24 0 -5
BITMAP
3F00
3F00
0300
0300
0300
0300
0300
0300
0300
0300
0300
0300
0300
0300
0300
0300
0300
0300
0300
3F00
3F00
0000
0000
0000
ENDCHAR
STARTCHAR char94
ENCODING 94
SWIDTH 416 0
DWIDTH 10 0
BBX 10 24 0 -5
BITMAP
0000
0000
0C00
1E00
3300
6180
C0C0
0000
0000
0000
0000
0000
0000
0000
0000
0000
0000
0000
0000
0000
0000
0000
0000
0000
ENDCHAR
STARTCHAR char95
ENCODING 95
SWIDTH 416 0
DWIDTH 10 0
BBX 10 24 0 -5
BITMAP
0000
0000
0000
0000
0000
0000
0000
0000
0000
0000
0000
0000
0000
0000
0000
0000
0000
0000
0000
FFC0
FFC0
0000
0000
0000
ENDCHAR
STARTCHAR char96
ENCODING 96
SWIDTH 416 0
DWIDTH 10 0
BBX 10 24 0 -5
BITMAP
1800
0C00
0600
0300
0000
0000
0000
0000
0000
0000
0000
0000
0000
0000
0000
0000
0000
0000
0000
0000
0000
0000
0000
0000
ENDCHAR
STARTCHAR char97
ENCODING 97
SWIDTH 416 0
DWIDTH 10 0
BBX 10 24 0 -5
BITMAP
0000
0000
0000
0000
0000
1E00
1F00
0180
0180
1F80
3F80
6180
6180
6180
6180
6180
6180
7F80
3D80
0000
0000
0000
0000
0000
ENDCHAR
STARTCHAR char98
ENCODING 98
SWIDTH 416 0
DWIDTH 10 0
BBX 10 24 0 -5
BITMAP
0000
6000
6000
6000
6000
7F00
7F80
6180
6180
6180
6180
6180
6180
6180
6180
6180
6180
7F80
6F00
0000
0000
0000
0000
0000
ENDCHAR
STARTCHAR char99
ENCODING 99
SWIDTH 416 0
DWIDTH 10 0
BBX 10 24 0 -5
BITMAP
0000
0000
0000
0000
0000
1F80
3F80
7000
6000
6000
6000
6000
6000
6000
6000
6000
7000
3F80
1F80
0000
0000
0000
0000
0000
ENDCHAR
STARTCHAR char100
ENCODING 100
SWIDTH 416 0
DWIDTH 10 0
BBX 10 24 0 -5
BITMAP
0000
0180
0180
0180
0180
1F80
3F80
7180
6180
6180
6180
6180
6180
6180
6180
6180
7180
3F80
1D80
0000
0000
0000
0000
0000
ENDCHAR
STARTCHAR char101
ENCODING 101
SWIDTH 416 0
DWIDTH 10 0
BBX 10 24 0 -5
BITMAP
0000
0000
0000
0000
0000
1E00
3F00
7380
6180
6180
6180
6180
6180
7F80
7F80
6000
7000
3E00
1E00
0000
0000
0000
0000
0000
ENDCHAR
STARTCHAR char102
ENCODING 102
SWIDTH 416 0
DWIDTH 10 0
BBX 10 24 0 -5
BITMAP
0000
0780
0F80
1800
1800
1800
1800
1800
1800
1800
1800
1800
1800
7F80
7F80
1800
1800
1800
1800
0000
0000
0000
0000
0000
ENDCHAR
STARTCHAR char103
ENCODING 103
SWIDTH 416 0
DWIDTH 10 0
BBX 10 24 0 -5
BITMAP
0000
0000
0000
0000
0000
1D80
3F80
6180
6180
6180
6180
6180
6180
6180
6180
6180
6180
3F80
1F80
0180
0180
3F00
3E00
0000
ENDCHAR
STARTCHAR char104
ENCODING 104
SWIDTH 416 0
DWIDTH 10 0
BBX 10 24 0 -5
BITMAP
0000
6000
6000
6000
6000
7E00
7F00
6180
6180
6180
6180
6180
6180
6180
6180
6180
6180
6180
6180
0000
0000
0000
0000
0000
ENDCHAR
STARTCHAR char105
ENCODING 105
SWIDTH 416 0
DWIDTH 10 0
BBX 10 24 0 -5
BITMAP
0C00
0C00
0C00
0000
0000
1C00
1C00
0C00
0C00
0C00
0C00
0C00
0C00
0C00
0C00
0C00
0C00
3F00
3F00
0000
0000
0000
0000
0000
ENDCHAR
STARTCHAR char106
ENCODING 106
SWIDTH 416 0
DWIDTH 10 0
BBX 10 24 0 -5
BITMAP
0180
0180
0000
0000
0180
0180
0180
0180
0180
0180
0180
0180
0180
0180
0180
0180
0180
6180
6180
6180
6180
3F00
1E00
0000
ENDCHAR
STARTCHAR char107
ENCODING 107
SWIDTH 416 0
DWIDTH 10 0
BBX 10 24 0 -5
BITMAP
0000
6000
6000
6000
6000
6000
6180
6380
6700
6E00
7C00
7800
7800
7800
7C00
6E00
6700
6380
6180
0000
0000
0000
0000
0000
ENDCHAR
STARTCHAR char108
ENCODING 108
SWIDTH 416 0
DWIDTH 10 0
BBX 10 24 0 -5
BITMAP
0000
1E00
1E00
0600
0600
0600
0600
0600
0600
0600
0600
0600
0600
0600
0600
0600
0600
1F80
1F80
0000
0000
0000
0000
0000
ENDCHAR
STARTCHAR char109
ENCODING 109
SWIDTH 416 0
DWIDTH 10 0
BBX 10 24 0 -5
BITMAP
0000
0000
0000
0000
0000
7600
7F00
6D80
6D80
6D80
6D80
6D80
6D80
6D80
6D80
6D80
6D80
6D80
6D80
0000
0000
0000
0000
0000
ENDCHAR
STARTCHAR char110
ENCODING 110
SWIDTH 416 0
DWIDTH 10 0
BBX 10 24 0 -5
BITMAP
0000
0000
0000
0000
0000
6E00
7F00
6180
6180
6180
6180
6180
6180
6180
6180
6180
6180
6180
6180
0000
0000
0000
0000
0000
ENDCHAR
STARTCHAR char111
ENCODING 111
SWIDTH 416 0
DWIDTH 10 0
BBX 10 24 0 -5
BITMAP
0000
0000
0000
0000
0000
1E00
3F00
6180
6180
6180
6180
6180
6180
6180
6180
6180
6180
3F00
1E00
0000
0000
0000
0000
0000
ENDCHAR
STARTCHAR char112
ENCODING 112
SWIDTH 416 0
DWIDTH 10 0
BBX 10 24 0 -5
BITMAP
0000
0000
0000
0000
0000
6E00
7F00
6180
6180
6180
6180
6180
6180
6180
6180
6180
6180
7F00
7E00
6000
6000
6000
6000
0000
ENDCHAR
STARTCHAR char113
ENCODING 113
SWIDTH 416 0
DWIDTH 10 0
BBX 10 24 0 -5
BITMAP
0000
0000
0000
0000
0000
1D80
3F80
6180
6180
6180
6180
6180
6180
6180
6180
6180
6180
3F80
1F80
0180
0180
0180
0180
0000
ENDCHAR
STARTCHAR char114
ENCODING 114
SWIDTH 416 0
DWIDTH 10 0
BBX 10 24 0 -5
BITMAP
0000
0000
0000
0000
0000
6780
6F80
7C00
7800
6000
6000
6000
6000
6000
6000
6000
6000
6000
6000
0000
0000
0000
0000
0000
ENDCHAR
STARTCHAR char115
ENCODING 115
SWIDTH 416 0
DWIDTH 10 0
BBX 10 24 0 -5
BITMAP
0000
0000
0000
0000
0000
1F80
3F80
6000
6000
3E00
1F00
0180
0180
0180
0180
6180
6180
3F00
1E00
0000
0000
0000
0000
0000
ENDCHAR
STARTCHAR char116
ENCODING 116
SWIDTH 416 0
DWIDTH 10 0
BBX 10 24 0 -5
BITMAP
0000
1800
1800
1800
1800
7F80
7F80
1800
1800
1800
1800
1800
1800
1800
1800
1800
1800
0F80
0780
0000
0000
0000
0000
0000
ENDCHAR
STARTCHAR char117
ENCODING 117
SWIDTH 416 0
DWIDTH 10 0
BBX 10 24 0 -5
BITMAP
0000
0000
0000
0000
0000
6180
6180
6180
6180
6180
6180
6180
6180
6180
6180
6180
6180
3F80
1D80
0000
0000
0000
0000
0000
ENDCHAR
STARTCHAR char118
ENCODING 118
SWIDTH 416 0
DWIDTH 10 0
BBX 10 24 0 -5
BITMAP
0000
0000
0000
0000
0000
6180
6180
6180
6180
6180
6180
6180
6180
7380
3300
3300
3F00
1E00
0C00
0000
0000
0000
0000
0000
ENDCHAR
STARTCHAR char119
ENCODING 119
SWIDTH 416 0
DWIDTH 10 0
BBX 10 24 0 -5
BITMAP
0000
0000
0000
0000
0000
6D80
6D80
6D80
6D80
6D80
6D80
6D80
6D80
6D80
6D80
6D80
6D80
3F80
1B80
0000
0000
0000
0000
0000
ENDCHAR
STARTCHAR char120
ENCODING 120
SWIDTH 416 0
DWIDTH 10 0
BBX 10 24 0 -5
BITMAP
0000
0000
0000
0000
0000
6180
6180
6180
6180
3300
1E00
1E00
3300
6180
6180
6180
6180
6180
6180
0000
0000
0000
0000
0000
ENDCHAR
STARTCHAR char121
ENCODING 121
SWIDTH 416 0
DWIDTH 10 0
BBX 10 24 0 -5
BITMAP
0000
0000
0000
0000
0000
6180
6180
6180
6180
6180
6180
6180
6180
6180
6180
6180
6180
3F80
1F80
0180
0180
1F80
1F00
0000
ENDCHAR
STARTCHAR char122
ENCODING 122
SWIDTH 416 0
DWIDTH 10 0
BBX 10 24 0 -5
BITMAP
0000
0000
0000
0000
0000
7F80
7F80
0180
0380
0700
0E00
1C00
3800
7000
6000
6000
6000
7F80
7F80
0000
0000
0000
0000
0000
ENDCHAR
STARTCHAR char123
ENCODING 123
SWIDTH 416 0
DWIDTH 10 0
BBX 10 24 0 -5
BITMAP
0000
0380
0780
0C00
1800
1800
1800
1800
1800
3800
7000
3800
1800
1800
1800
1800
1800
0C00
0780
0380
0000
0000
0000
0000
ENDCHAR
STARTCHAR char124
ENCODING 124
SWIDTH 416 0
DWIDTH 10 0
BBX 10 24 0 -5
BITMAP
0000
0600
0600
0600
0600
0600
0600
0600
0600
0600
0600
0600
0600
0600
0600
0600
0600
0600
0600
0600
0600
0000
0000
0000
ENDCHAR
STARTCHAR char125
ENCODING 125
SWIDTH 416 0
DWIDTH 10 0
BBX 10 24 0 -5
BITMAP
0000
7000
7800
0C00
0600
0600
0600
0600
0600
0700
0380
0700
0600
0600
0600
0600
0600
0C00
7800
7000
0000
0000
0000
0000
ENDCHAR
STARTCHAR char126
ENCODING 126
SWIDTH 416 0
DWIDTH 10 0
BBX 10 24 0 -5
BITMAP
0000
0000
3980
6D80
6780
6300
0000
0000
0000
0000
0000
0000
0000
0000
0000
0000
0000
0000
0000
0000
0000
0000
0000
0000
ENDCHAR
STARTCHAR char160
ENCODING 160
SWIDTH 416 0
DWIDTH 10 0
BBX 10 24 0 -5
BITMAP
0000
0000
0000
0000
0000
0000
0000
0000
0000
0000
0000
0000
0000
0000
0000
0000
0000
0000
0000
0000
0000
0000
0000
0000
ENDCHAR
STARTCHAR char161
ENCODING 161
SWIDTH 416 0
DWIDTH 10 0
BBX 10 24 0 -5
BITMAP
0000
0000
0000
0000
0600
0600
0600
0000
0000
0600
0600
0600
0600
0600
0600
0600
0600
0600
0600
0000
0000
0000
0000
0000
ENDCHAR
STARTCHAR char162
ENCODING 162
SWIDTH 416 0
DWIDTH 10 0
BBX 10 24 0 -5
BITMAP
0000
0000
0000
0000
0000
0000
0600
0600
1F80
36C0
6660
6600
6600
6600
6600
6600
6660
36C0
1F80
0600
0600
0000
0000
0000
ENDCHAR
STARTCHAR char163
ENCODING 163
SWIDTH 416 0
DWIDTH 10 0
BBX 10 24 0 -5
BITMAP
0000
0000
0000
0000
0F00
1980
30C0
3000
3000
3000
3000
7F00
3000
3000
3000
3000
3060
3060
7FE0
0000
0000
0000
0000
0000
ENDCHAR
STARTCHAR char164
ENCODING 164
SWIDTH 416 0
DWIDTH 10 0
BBX 10 24 0 -5
BITMAP
0000
0000
0000
0000
0000
0000
C060
60C0
3F80
60C0
60C0
60C0
60C0
60C0
60C0
3F80
60C0
C060
0000
0000
0000
0000
0000
0000
ENDCHAR
STARTCHAR char165
ENCODING 165
SWIDTH 416 0
DWIDTH 10 0
BBX 10 24 0 -5
BITMAP
0000
0000
0000
0000
C0C0
C0C0
6180
6180
3300
3300
1E00
0C00
0C00
7F80
0C00
0C00
7F80
0C00
0C00
0000
0000
0000
0000
0000
ENDCHAR
STARTCHAR char166
ENCODING 166
SWIDTH 416 0
DWIDTH 10 0
BBX 10 24 0 -5
BITMAP
0000
0000
0000
0000
0600
0600
0600
0600
0600
0600
0000
0000
0000
0600
0600
0600
0600
0600
0600
0000
0000
0000
0000
0000
ENDCHAR
STARTCHAR char167
ENCODING 167
SWIDTH 416 0
DWIDTH 10 0
BBX 10 24 0 -5
BITMAP
0000
0000
0000
1F80
30C0
3000
3000
1F00
3180
30C0
30C0
30C0
30C0
18C0
0F80
00C0
00C0
30C0
1F80
0000
0000
0000
0000
0000
ENDCHAR
STARTCHAR char168
ENCODING 168
SWIDTH 416 0
DWIDTH 10 0
BBX 10 24 0 -5
BITMAP
1980
1980
1980
0000
0000
0000
0000
0000
0000
0000
0000
0000
0000
0000
0000
0000
0000
0000
0000
0000
0000
0000
0000
0000
ENDCHAR
STARTCHAR char169
ENCODING 169
SWIDTH 416 0
DWIDTH 10 0
BBX 10 24 0 -5
BITMAP
0000
0000
0000
0000
0000
0000
3F00
4080
9E40
B340
B340
B040
B040
B340
B340
9E40
40C0
3F00
0000
0000
0000
0000
0000
0000
ENDCHAR
STARTCHAR char170
ENCODING 170
SWIDTH 416 0
DWIDTH 10 0
BBX 10 24 0 -5
BITMAP
0000
3F80
00C0
00C0
3FC0
60C0
60C0
60C0
60C0
3FC0
0000
7FC0
0000
0000
0000
0000
0000
0000
0000
0000
0000
0000
0000
0000
ENDCHAR
STARTCHAR char171
ENCODING 171
SWIDTH 416 0
DWIDTH 10 0
BBX 10 24 0 -5
BITMAP
0000
0000
0000
0000
0000
0000
0000
0000
0000
0CC0
1980
3300
6600
CC00
6600
3300
1980
0CC0
0000
0000
0000
0000
0000
0000
ENDCHAR
STARTCHAR char172
ENCODING 172
SWIDTH 416 0
DWIDTH 10 0
BBX 10 24 0 -5
BITMAP
0000
0000
0000
0000
0000
0000
0000
0000
0000
7FE0
0060
0060
0060
0060
0060
0000
0000
0000
0000
0000
0000
0000
0000
0000
ENDCHAR
STARTCHAR char173
ENCODING 173
SWIDTH 416 0
DWIDTH 10 0
BBX 10 24 0 -5
BITMAP
0000
0000
0000
0000
0000
0000
0000
0000
0000
0000
0000
3FC0
0000
0000
0000
0000
0000
0000
0000
0000
0000
0000
0000
0000
ENDCHAR
STARTCHAR char174
ENCODING 174
SWIDTH 416 0
DWIDTH 10 0
BBX 10 24 0 -5
BITMAP
0000
0000
0000
0000
0000
0000
3F00
4080
BE40
B340
B340
B340
BE40
BC40
B640
B340
4080
3F00
0000
0000
0000
0000
0000
0000
ENDCHAR
STARTCHAR char175
ENCODING 175
SWIDTH 416 0
DWIDTH 10 0
BBX 10 24 0 -5
BITMAP
0000
3FC0
0000
0000
0000
0000
0000
0000
0000
0000
0000
0000
0000
0000
0000
0000
0000
0000
0000
0000
0000
0000
0000
0000
ENDCHAR
STARTCHAR char176
ENCODING 176
SWIDTH 416 0
DWIDTH 10 0
BBX 10 24 0 -5
BITMAP
0000
0000
1F00
3180
3180
3180
3180
1F00
0000
0000
0000
0000
0000
0000
0000
0000
0000
0000
0000
0000
0000
0000
0000
0000
ENDCHAR
STARTCHAR char177
ENCODING 177
SWIDTH 416 0
DWIDTH 10 0
BBX 10 24 0 -5
BITMAP
0000
0000
0000
0000
0000
0000
0000
0600
0600
0600
0600
7FE0
0600
0600
0600
0600
0000
0000
7FE0
0000
0000
0000
0000
0000
ENDCHAR
STARTCHAR char178
ENCODING 178
SWIDTH 416 0
DWIDTH 10 0
BBX 10 24 0 -5
BITMAP
0000
0000
0F00
1980
1980
0300
0600
0C00
1F80
0000
0000
0000
0000
0000
0000
0000
0000
0000
0000
0000
0000
0000
0000
0000
ENDCHAR
STARTCHAR char179
ENCODING 179
SWIDTH 416 0
DWIDTH 10 0
BBX 10 24 0 -5
BITMAP
0000
0000
0F00
1980
0180
0700
0180
1980
0F00
0000
0000
0000
0000
0000
0000
0000
0000
0000
0000
0000
0000
0000
0000
0000
ENDCHAR
STARTCHAR char180
ENCODING 180
SWIDTH 416 0
DWIDTH 10 0
BBX 10 24 0 -5
BITMAP
0180
0300
0600
0000
0000
0000
0000
0000
0000
0000
0000
0000
0000
0000
0000
0000
0000
0000
0000
0000
0000
0000
0000
0000
ENDCHAR
STARTCHAR char117
ENCODING 181
SWIDTH 416 0
DWIDTH 10 0
BBX 10 24 0 -5
BITMAP
0000
0000
0000
0000
0000
6180
6180
6180
6180
6180
6180
6180
6180
6180
6180
6180
6180
7F80
7D80
6000
6000
6000
6000
0000
ENDCHAR
STARTCHAR char182
ENCODING 182
SWIDTH 416 0
DWIDTH 10 0
BBX 10 24 0 -5
BITMAP
0000
0000
0000
3FC0
7FC0
66C0
66C0
66C0
66C0
66C0
66C0
7EC0
3EC0
06C0
06C0
06C0
06C0
06C0
06C0
0000
0000
0000
0000
0000
ENDCHAR
STARTCHAR char183
ENCODING 183
SWIDTH 416 0
DWIDTH 10 0
BBX 10 24 0 -5
BITMAP
0000
0000
0000
0000
0000
0000
0000
0000
0000
0000
0600
0600
0600
0000
0000
0000
0000
0000
0000
0000
0000
0000
0000
0000
ENDCHAR
STARTCHAR char184
ENCODING 184
SWIDTH 416 0
DWIDTH 10 0
BBX 10 24 0 -5
BITMAP
0000
0000
0000
0000
0000
0000
0000
0000
0000
0000
0000
0000
0000
0000
0000
0000
0000
0000
0000
0600
0600
0600
0C00
0000
ENDCHAR
STARTCHAR char185
ENCODING 185
SWIDTH 416 0
DWIDTH 10 0
BBX 10 24 0 -5
BITMAP
0000
0000
0600
0E00
1E00
0600
0600
0600
0F00
0000
0000
0000
0000
0000
0000
0000
0000
0000
0000
0000
0000
0000
0000
0000
ENDCHAR
STARTCHAR char186
ENCODING 186
SWIDTH 416 0
DWIDTH 10 0
BBX 10 24 0 -5
BITMAP
0000
1F00
3180
60C0
60C0
60C0
60C0
60C0
3180
1F00
0000
7FC0
0000
0000
0000
0000
0000
0000
0000
0000
0000
0000
0000
0000
ENDCHAR
STARTCHAR char187
ENCODING 187
SWIDTH 416 0
DWIDTH 10 0
BBX 10 24 0 -5
BITMAP
0000
0000
0000
0000
0000
0000
0000
0000
0000
CC00
6600
3300
1980
0CC0
1980
3300
6600
CC00
0000
0000
0000
0000
0000
0000
ENDCHAR
STARTCHAR char188
ENCODING 188
SWIDTH 416 0
DWIDTH 10 0
BBX 10 24 0 -5
BITMAP
0000
0000
0000
1800
3800
7800
1800
1840
18C0
1980
1B00
0600
0CC0
19C0
33C0
66C0
CCC0
8FC0
00C0
00C0
0000
0000
0000
0000
ENDCHAR
STARTCHAR char189
ENCODING 189
SWIDTH 416 0
DWIDTH 10 0
BBX 10 24 0 -5
BITMAP
0000
0000
0000
1800
3800
7800
1840
18C0
1980
1B00
1E00
0C00
1800
3780
6CC0
CCC0
8180
0300
0600
0FC0
0000
0000
0000
0000
ENDCHAR
STARTCHAR char190
ENCODING 190
SWIDTH 416 0
DWIDTH 10 0
BBX 10 24 0 -5
BITMAP
0000
0000
0000
7800
CC00
0C00
3800
0C40
CCC0
7980
0300
0600
0CC0
19C0
33C0
66C0
CCC0
8FC0
00C0
00C0
0000
0000
0000
0000
ENDCHAR
STARTCHAR char191
ENCODING 191
SWIDTH 416 0
DWIDTH 10 0
BBX 10 24 0 -5
BITMAP
0000
0600
0600
0000
0600
0600
0600
0E00
1C00
3800
7000
6000
6000
6000
6000
6180
7380
3F00
1E00
0000
0000
0000
0000
0000
ENDCHAR
STARTCHAR char65
ENCODING 192
SWIDTH 416 0
DWIDTH 10 0
BBX 10 24 0 -5
BITMAP
3000
1800
0C00
0000
1E00
3F00
6180
6180
6180
6180
6180
6180
6180
7F80
7F80
6180
6180
6180
6180
0000
0000
0000
0000
0000
ENDCHAR
STARTCHAR char65
ENCODING 193
SWIDTH 416 0
DWIDTH 10 0
BBX 10 24 0 -5
BITMAP
0300
0600
0C00
0000
1E00
3F00
6180
6180
6180
6180
6180
6180
6180
7F80
7F80
6180
6180
6180
6180
0000
0000
0000
0000
0000
ENDCHAR
STARTCHAR char65
ENCODING 194
SWIDTH 416 0
DWIDTH 10 0
BBX 10 24 0 -5
BITMAP
0C00
1E00
3300
0000
1E00
3F00
6180
6180
6180
6180
6180
6180
6180
7F80
7F80
6180
6180
6180
6180
0000
0000
0000
0000
0000
ENDCHAR
STARTCHAR char65
ENCODING 195
SWIDTH 416 0
DWIDTH 10 0
BBX 10 24 0 -5
BITMAP
1980
3F00
6600
0000
1E00
3F00
6180
6180
6180
6180
6180
6180
6180
7F80
7F80
6180
6180
6180
6180
0000
0000
0000
0000
0000
ENDCHAR
STARTCHAR char65
ENCODING 196
SWIDTH 416 0
DWIDTH 10 0
BBX 10 24 0 -5
BITMAP
3300
3300
3300
0000
1E00
3F00
6180
6180
6180
6180
6180
6180
6180
7F80
7F80
6180
6180
6180
6180
0000
0000
0000
0000
0000
ENDCHAR
STARTCHAR char65
ENCODING 197
SWIDTH 416 0
DWIDTH 10 0
BBX 10 24 0 -5
BITMAP
0000
1E00
3300
1E00
1E00
3F00
6180
6180
6180
6180
6180
6180
6180
7F80
7F80
6180
6180
6180
6180
0000
0000
0000
0000
0000
ENDCHAR
STARTCHAR char65
ENCODING 198
SWIDTH 416 0
DWIDTH 10 0
BBX 10 24 0 -5
BITMAP
0000
1F80
3F80
6600
6600
6600
6600
6600
6600
6600
6600
6600
6600
7F80
7F80
6600
6600
6780
6780
0000
0000
0000
0000
0000
ENDCHAR
STARTCHAR char67
ENCODING 199
SWIDTH 416 0
DWIDTH 10 0
BBX 10 24 0 -5
BITMAP
0000
1F80
3F80
6000
6000
6000
6000
6000
6000
6000
6000
6000
6000
6000
6000
6000
6000
3F80
1F80
0600
0600
0C00
0000
0000
ENDCHAR
STARTCHAR char69
ENCODING 200
SWIDTH 416 0
DWIDTH 10 0
BBX 10 24 0 -5
BITMAP
3000
1800
0C00
0000
7F80
7F80
6000
6000
6000
6000
6000
6000
6000
7E00
7E00
6000
6000
7F80
7F80
0000
0000
0000
0000
0000
ENDCHAR
STARTCHAR char69
ENCODING 201
SWIDTH 416 0
DWIDTH 10 0
BBX 10 24 0 -5
BITMAP
0300
0600
0C00
0000
7F80
7F80
6000
6000
6000
6000
6000
6000
6000
7E00
7E00
6000
6000
7F80
7F80
0000
0000
0000
0000
0000
ENDCHAR
STARTCHAR char69
ENCODING 202
SWIDTH 416 0
DWIDTH 10 0
BBX 10 24 0 -5
BITMAP
0C00
1E00
3300
0000
7F80
7F80
6000
6000
6000
6000
6000
6000
6000
7E00
7E00
6000
6000
7F80
7F80
0000
0000
0000
0000
0000
ENDCHAR
STARTCHAR char69
ENCODING 203
SWIDTH 416 0
DWIDTH 10 0
BBX 10 24 0 -5
BITMAP
3300
3300
3300
0000
7F80
7F80
6000
6000
6000
6000
6000
6000
6000
7E00
7E00
6000
6000
7F80
7F80
0000
0000
0000
0000
0000
ENDCHAR
STARTCHAR char204
ENCODING 204
SWIDTH 416 0
DWIDTH 10 0
BBX 10 24 0 -5
BITMAP
1800
0C00
0600
0000
1F80
0600
0600
0600
0600
0600
0600
0600
0600
0600
0600
0600
0600
0600
1F80
0000
0000
0000
0000
0000
ENDCHAR
STARTCHAR char205
ENCODING 205
SWIDTH 416 0
DWIDTH 10 0
BBX 10 24 0 -5
BITMAP
0180
0300
0600
0000
1F80
0600
0600
0600
0600
0600
0600
0600
0600
0600
0600
0600
0600
0600
1F80
0000
0000
0000
0000
0000
ENDCHAR
STARTCHAR char206
ENCODING 206
SWIDTH 416 0
DWIDTH 10 0
BBX 10 24 0 -5
BITMAP
0600
0F00
1980
0000
1F80
0600
0600
0600
0600
0600
0600
0600
0600
0600
0600
0600
0600
0600
1F80
0000
0000
0000
0000
0000
ENDCHAR
STARTCHAR char207
ENCODING 207
SWIDTH 416 0
DWIDTH 10 0
BBX 10 24 0 -5
BITMAP
1980
1980
1980
0000
1F80
0600
0600
0600
0600
0600
0600
0600
0600
0600
0600
0600
0600
0600
1F80
0000
0000
0000
0000
0000
ENDCHAR
STARTCHAR char68
ENCODING 208
SWIDTH 416 0
DWIDTH 10 0
BBX 10 24 0 -5
BITMAP
0000
7E00
7F00
6180
6180
6180
6180
6180
6180
6180
6180
6180
F980
F980
6180
6180
6180
7F00
7E00
0000
0000
0000
0000
0000
ENDCHAR
STARTCHAR char78
ENCODING 209
SWIDTH 416 0
DWIDTH 10 0
BBX 10 24 0 -5
BITMAP
1980
3F00
6600
0000
6180
6180
6180
6180
7180
7980
6D80
6780
6380
6180
6180
6180
6180
6180
6180
0000
0000
0000
0000
0000
ENDCHAR
STARTCHAR char79
ENCODING 210
SWIDTH 416 0
DWIDTH 10 0
BBX 10 24 0 -5
BITMAP
3000
1800
0C00
0000
1E00
3F00
6180
6180
6180
6180
6180
6180
6180
6180
6180
6180
6180
3F00
1E00
0000
0000
0000
0000
0000
ENDCHAR
STARTCHAR char79
ENCODING 211
SWIDTH 416 0
DWIDTH 10 0
BBX 10 24 0 -5
BITMAP
0300
0600
0C00
0000
1E00
3F00
6180
6180
6180
6180
6180
6180
6180
6180
6180
6180
6180
3F00
1E00
0000
0000
0000
0000
0000
ENDCHAR
STARTCHAR char79
ENCODING 212
SWIDTH 416 0
DWIDTH 10 0
BBX 10 24 0 -5
BITMAP
0C00
1E00
3300
0000
1E00
3F00
6180
6180
6180
6180
6180
6180
6180
6180
6180
6180
6180
3F00
1E00
0000
0000
0000
0000
0000
ENDCHAR
STARTCHAR char79
ENCODING 213
SWIDTH 416 0
DWIDTH 10 0
BBX 10 24 0 -5
BITMAP
1980
3F00
6600
0000
1E00
3F00
6180
6180
6180
6180
6180
6180
6180
6180
6180
6180
6180
3F00
1E00
0000
0000
0000
0000
0000
ENDCHAR
STARTCHAR char79
ENCODING 214
SWIDTH 416 0
DWIDTH 10 0
BBX 10 24 0 -5
BITMAP
3300
3300
3300
0000
1E00
3F00
6180
6180
6180
6180
6180
6180
6180
6180
6180
6180
6180
3F00
1E00
0000
0000
0000
0000
0000
ENDCHAR
STARTCHAR char215
ENCODING 215
SWIDTH 416 0
DWIDTH 10 0
BBX 10 24 0 -5
BITMAP
0000
0000
0000
0000
0000
0000
C030
6060
30C0
1980
0F00
0600
0F00
1980
30C0
6060
C030
0000
0000
0000
0000
0000
0000
0000
ENDCHAR
STARTCHAR char216
ENCODING 216
SWIDTH 416 0
DWIDTH 10 0
BBX 10 24 0 -5
BITMAP
0000
0000
0000
0000
1F80
30C0
6070
6060
60E0
61E0
6360
6660
6C60
7860
7060
6060
E060
30C0
1F80
0000
0000
0000
0000
0000
ENDCHAR
STARTCHAR char85
ENCODING 217
SWIDTH 416 0
DWIDTH 10 0
BBX 10 24 0 -5
BITMAP
3000
1800
0C00
0000
6180
6180
6180
6180
6180
6180
6180
6180
6180
6180
6180
6180
6180
3F00
1E00
0000
0000
0000
0000
0000
ENDCHAR
STARTCHAR char85
ENCODING 218
SWIDTH 416 0
DWIDTH 10 0
BBX 10 24 0 -5
BITMAP
0300
0600
0C00
0000
6180
6180
6180
6180
6180
6180
6180
6180
6180
6180
6180
6180
6180
3F00
1E00
0000
0000
0000
0000
0000
ENDCHAR
STARTCHAR char85
ENCODING 219
SWIDTH 416 0
DWIDTH 10 0
BBX 10 24 0 -5
BITMAP
0C00
1E00
3300
0000
6180
6180
6180
6180
6180
6180
6180
6180
6180
6180
6180
6180
6180
3F00
1E00
0000
0000
0000
0000
0000
ENDCHAR
STARTCHAR char85
ENCODING 220
SWIDTH 416 0
DWIDTH 10 0
BBX 10 24 0 -5
BITMAP
3300
3300
3300
0000
6180
6180
6180
6180
6180
6180
6180
6180
6180
6180
6180
6180
6180
3F00
1E00
0000
0000
0000
0000
0000
ENDCHAR
STARTCHAR char221
ENCODING 221
SWIDTH 416 0
DWIDTH 10 0
BBX 10 24 0 -5
BITMAP
0180
0300
0600
0000
6060
6060
30C0
30C0
1980
1980
0F00
0F00
0600
0600
0600
0600
0600
0600
0600
0000
0000
0000
0000
0000
ENDCHAR
STARTCHAR char222
ENCODING 222
SWIDTH 416 0
DWIDTH 10 0
BBX 10 24 0 -5
BITMAP
0000
0000
0000
0000
6000
6000
6000
7F80
60C0
6060
6060
6060
6060
60C0
7F80
6000
6000
6000
6000
0000
0000
0000
0000
0000
ENDCHAR
STARTCHAR char223
ENCODING 223
SWIDTH 416 0
DWIDTH 10 0
BBX 10 24 0 -5
BITMAP
0000
0000
0000
0000
3F00
6180
60C0
60C0
60C0
6180
7F80
60C0
6060
6060
6060
6060
7060
78C0
6F80
0000
0000
0000
0000
0000
ENDCHAR
STARTCHAR char97
ENCODING 224
SWIDTH 416 0
DWIDTH 10 0
BBX 10 24 0 -5
BITMAP
0000
3000
1800
0C00
0000
1E00
1F00
0180
0180
1F80
3F80
6180
6180
6180
6180
6180
6180
7F80
3D80
0000
0000
0000
0000
0000
ENDCHAR
STARTCHAR char97
ENCODING 225
SWIDTH 416 0
DWIDTH 10 0
BBX 10 24 0 -5
BITMAP
0000
0300
0600
0C00
0000
1E00
1F00
0180
0180
1F80
3F80
6180
6180
6180
6180
6180
6180
7F80
3D80
0000
0000
0000
0000
0000
ENDCHAR
STARTCHAR char97
ENCODING 226
SWIDTH 416 0
DWIDTH 10 0
BBX 10 24 0 -5
BITMAP
0000
0C00
1E00
3300
0000
1E00
1F00
0180
0180
1F80
3F80
6180
6180
6180
6180
6180
6180
7F80
3D80
0000
0000
0000
0000
0000
ENDCHAR
STARTCHAR char97
ENCODING 227
SWIDTH 416 0
DWIDTH 10 0
BBX 10 24 0 -5
BITMAP
0000
1980
3F00
6600
0000
1E00
1F00
0180
0180
1F80
3F80
6180
6180
6180
6180
6180
6180
7F80
3D80
0000
0000
0000
0000
0000
ENDCHAR
STARTCHAR char97
ENCODING 228
SWIDTH 416 0
DWIDTH 10 0
BBX 10 24 0 -5
BITMAP
0000
3300
3300
3300
0000
1E00
1F00
0180
0180
1F80
3F80
6180
6180
6180
6180
6180
6180
7F80
3D80
0000
0000
0000
0000
0000
ENDCHAR
STARTCHAR char97
ENCODING 229
SWIDTH 416 0
DWIDTH 10 0
BBX 10 24 0 -5
BITMAP
0000
1E00
3300
3300
1E00
1E00
1F00
0180
0180
1F80
3F80
6180
6180
6180
6180
6180
6180
7F80
3D80
0000
0000
0000
0000
0000
ENDCHAR
STARTCHAR char97
ENCODING 230
SWIDTH 416 0
DWIDTH 10 0
BBX 10 24 0 -5
BITMAP
0000
0000
0000
0000
0000
3B00
3F80
0D80
0D80
1D80
3D80
6D80
6D80
6F80
6F80
6C00
6D80
7F80
3F00
0000
0000
0000
0000
0000
ENDCHAR
STARTCHAR char99
ENCODING 231
SWIDTH 416 0
DWIDTH 10 0
BBX 10 24 0 -5
BITMAP
0000
0000
0000
0000
0000
1F80
3F80
7000
6000
6000
6000
6000
6000
6000
6000
6000
7000
3F80
1F80
0600
0600
0C00
0000
0000
ENDCHAR
STARTCHAR char101
ENCODING 232
SWIDTH 416 0
DWIDTH 10 0
BBX 10 24 0 -5
BITMAP
0000
3000
1800
0C00
0000
1E00
3F00
7380
6180
6180
6180
6180
6180
7F80
7F80
6000
7000
3F80
1F80
0000
0000
0000
0000
0000
ENDCHAR
STARTCHAR char101
ENCODING 233
SWIDTH 416 0
DWIDTH 10 0
BBX 10 24 0 -5
BITMAP
0000
0300
0600
0C00
0000
1E00
3F00
7380
6180
6180
6180
6180
6180
7F80
7F80
6000
7000
3F80
1F80
0000
0000
0000
0000
0000
ENDCHAR
STARTCHAR char101
ENCODING 234
SWIDTH 416 0
DWIDTH 10 0
BBX 10 24 0 -5
BITMAP
0000
0C00
1E00
3300
0000
1E00
3F00
7380
6180
6180
6180
6180
6180
7F80
7F80
6000
7000
3F80
1F80
0000
0000
0000
0000
0000
ENDCHAR
STARTCHAR char101
ENCODING 235
SWIDTH 416 0
DWIDTH 10 0
BBX 10 24 0 -5
BITMAP
0000
3300
3300
3300
0000
1E00
3F00
7380
6180
6180
6180
6180
6180
7F80
7F80
6000
7000
3F80
1F80
0000
0000
0000
0000
0000
ENDCHAR
STARTCHAR char105
ENCODING 236
SWIDTH 416 0
DWIDTH 10 0
BBX 10 24 0 -5
BITMAP
0000
3000
1800
0C00
0000
1C00
1C00
0C00
0C00
0C00
0C00
0C00
0C00
0C00
0C00
0C00
0C00
3F00
3F00
0000
0000
0000
0000
0000
ENDCHAR
STARTCHAR char105
ENCODING 237
SWIDTH 416 0
DWIDTH 10 0
BBX 10 24 0 -5
BITMAP
0000
0300
0600
0C00
0000
1C00
1C00
0C00
0C00
0C00
0C00
0C00
0C00
0C00
0C00
0C00
0C00
3F00
3F00
0000
0000
0000
0000
0000
ENDCHAR
STARTCHAR char105
ENCODING 238
SWIDTH 416 0
DWIDTH 10 0
BBX 10 24 0 -5
BITMAP
0000
0C00
1E00
3300
0000
1C00
1C00
0C00
0C00
0C00
0C00
0C00
0C00
0C00
0C00
0C00
0C00
3F00
3F00
0000
0000
0000
0000
0000
ENDCHAR
STARTCHAR char105
ENCODING 239
SWIDTH 416 0
DWIDTH 10 0
BBX 10 24 0 -5
BITMAP
0000
3600
3600
3600
0000
1C00
1C00
0C00
0C00
0C00
0C00
0C00
0C00
0C00
0C00
0C00
0C00
3F00
3F00
0000
0000
0000
0000
0000
ENDCHAR
STARTCHAR char111
ENCODING 240
SWIDTH 416 0
DWIDTH 10 0
BBX 10 24 0 -5
BITMAP
0000
6800
3000
5800
0C00
1E00
3F00
6180
6180
6180
6180
6180
6180
6180
6180
6180
6180
3F00
1E00
0000
0000
0000
0000
0000
ENDCHAR
STARTCHAR char110
ENCODING 241
SWIDTH 416 0
DWIDTH 10 0
BBX 10 24 0 -5
BITMAP
0000
1980
3F00
6600
0000
6E00
7F00
6180
6180
6180
6180
6180
6180
6180
6180
6180
6180
6180
6180
0000
0000
0000
0000
0000
ENDCHAR
STARTCHAR char111
ENCODING 242
SWIDTH 416 0
DWIDTH 10 0
BBX 10 24 0 -5
BITMAP
0000
3000
1800
0C00
0000
1E00
3F00
6180
6180
6180
6180
6180
6180
6180
6180
6180
6180
3F00
1E00
0000
0000
0000
0000
0000
ENDCHAR
STARTCHAR char111
ENCODING 243
SWIDTH 416 0
DWIDTH 10 0
BBX 10 24 0 -5
BITMAP
0000
0300
0600
0C00
0000
1E00
3F00
6180
6180
6180
6180
6180
6180
6180
6180
6180
6180
3F00
1E00
0000
0000
0000
0000
0000
ENDCHAR
STARTCHAR char111
ENCODING 244
SWIDTH 416 0
DWIDTH 10 0
BBX 10 24 0 -5
BITMAP
0000
0C00
1E00
3300
0000
1E00
3F00
6180
6180
6180
6180
6180
6180
6180
6180
6180
6180
3F00
1E00
0000
0000
0000
0000
0000
ENDCHAR
STARTCHAR char111
ENCODING 245
SWIDTH 416 0
DWIDTH 10 0
BBX 10 24 0 -5
BITMAP
0000
1980
3F00
6600
0000
1E00
3F00
6180
6180
6180
6180
6180
6180
6180
6180
6180
6180
3F00
1E00
0000
0000
0000
0000
0000
ENDCHAR
STARTCHAR char111
ENCODING 246
SWIDTH 416 0
DWIDTH 10 0
BBX 10 24 0 -5
BITMAP
0000
3300
3300
3300
0000
1E00
3F00
6180
6180
6180
6180
6180
6180
6180
6180
6180
6180
3F00
1E00
0000
0000
0000
0000
0000
ENDCHAR
STARTCHAR char247
ENCODING 247
SWIDTH 416 0
DWIDTH 10 0
BBX 10 24 0 -5
BITMAP
0000
0000
0000
0000
0C00
0C00
0C00
0C00
0000
0000
7F80
7F80
0000
0000
0C00
0C00
0C00
0C00
0000
0000
0000
0000
0000
0000
ENDCHAR
STARTCHAR char111
ENCODING 248
SWIDTH 416 0
DWIDTH 10 0
BBX 10 24 0 -5
BITMAP
0000
0000
0000
0000
0040
1EC0
3F80
6180
6380
6780
6580
6D80
6980
7980
7180
7180
6180
7F00
DE00
0000
0000
0000
0000
0000
ENDCHAR
STARTCHAR char117
ENCODING 249
SWIDTH 416 0
DWIDTH 10 0
BBX 10 24 0 -5
BITMAP
0000
3000
1800
0C00
0000
6180
6180
6180
6180
6180
6180
6180
6180
6180
6180
6180
6180
3F80
1D80
0000
0000
0000
0000
0000
ENDCHAR
STARTCHAR char117
ENCODING 250
SWIDTH 416 0
DWIDTH 10 0
BBX 10 24 0 -5
BITMAP
0000
0300
0600
0C00
0000
6180
6180
6180
6180
6180
6180
6180
6180
6180
6180
6180
6180
3F80
1D80
0000
0000
0000
0000
0000
ENDCHAR
STARTCHAR char117
ENCODING 251
SWIDTH 416 0
DWIDTH 10 0
BBX 10 24 0 -5
BITMAP
0000
0C00
1E00
3300
0000
6180
6180
6180
6180
6180
6180
6180
6180
6180
6180
6180
6180
3F80
1D80
0000
0000
0000
0000
0000
ENDCHAR
STARTCHAR char117
ENCODING 252
SWIDTH 416 0
DWIDTH 10 0
BBX 10 24 0 -5
BITMAP
0000
3300
3300
3300
0000
6180
6180
6180
6180
6180
6180
6180
6180
6180
6180
6180
6180
3F80
1D80
0000
0000
0000
0000
0000
ENDCHAR
STARTCHAR char253
ENCODING 253
SWIDTH 416 0
DWIDTH 10 0
BBX 10 24 0 -5
BITMAP
0000
0000
0000
0000
0180
0300
0600
0000
6060
6060
6060
6060
6060
6060
6060
6060
6060
30E0
1FE0
0060
0060
00C0
3F80
0000
ENDCHAR
STARTCHAR char254
ENCODING 254
SWIDTH 416 0
DWIDTH 10 0
BBX 10 24 0 -5
BITMAP
0000
0000
0000
0000
6000
6000
6000
6000
7F80
60C0
6060
6060
6060
6060
6060
6060
6060
60C0
7F80
6000
6000
6000
6000
0000
ENDCHAR
STARTCHAR char255
ENCODING 255
SWIDTH 416 0
DWIDTH 10 0
BBX 10 24 0 -5
BITMAP
0000
0000
0000
0000
1980
1980
1980
0000
6060
6060
6060
6060
6060
6060
6060
6060
6060
30E0
1FE0
0060
0060
00C0
3F80
0000
ENDCHAR
STARTCHAR char256
ENCODING 256
SWIDTH 416 0
DWIDTH 10 0
BBX 10 24 0 -5
BITMAP
0000
3FC0
0000
0000
1F80
30C0
6060
6060
6060
6060
6060
6060
7FE0
6060
6060
6060
6060
6060
6060
0000
0000
0000
0000
0000
ENDCHAR
STARTCHAR char257
ENCODING 257
SWIDTH 416 0
DWIDTH 10 0
BBX 10 24 0 -5
BITMAP
0000
0000
0000
0000
0000
3FC0
0000
0000
3F80
00C0
0060
0060
1FE0
3060
6060
6060
6060
3060
1FE0
0000
0000
0000
0000
0000
ENDCHAR
STARTCHAR char258
ENCODING 258
SWIDTH 416 0
DWIDTH 10 0
BBX 10 24 0 -5
BITMAP
30C0
30C0
1F80
0000
1F80
30C0
6060
6060
6060
6060
6060
6060
7FE0
6060
6060
6060
6060
6060
6060
0000
0000
0000
0000
0000
ENDCHAR
STARTCHAR char259
ENCODING 259
SWIDTH 416 0
DWIDTH 10 0
BBX 10 24 0 -5
BITMAP
0000
0000
0000
0000
30C0
30C0
1F80
0000
3F80
00C0
0060
0060
1FE0
3060
6060
6060
6060
3060
1FE0
0000
0000
0000
0000
0000
ENDCHAR
STARTCHAR char260
ENCODING 260
SWIDTH 416 0
DWIDTH 10 0
BBX 10 24 0 -5
BITMAP
0000
0000
0000
0000
1F80
30C0
6060
6060
6060
6060
6060
6060
7FE0
6060
6060
6060
6060
6060
6060
00E0
0180
0180
00F0
0000
ENDCHAR
STARTCHAR char261
ENCODING 261
SWIDTH 416 0
DWIDTH 10 0
BBX 10 24 0 -5
BITMAP
0000
0000
0000
0000
0000
0000
0000
0000
3F80
00C0
0060
0060
1FE0
3060
6060
6060
6060
3060
1FE0
00E0
0180
0180
00F0
0000
ENDCHAR
STARTCHAR char262
ENCODING 262
SWIDTH 416 0
DWIDTH 10 0
BBX 10 24 0 -5
BITMAP
0180
0300
0600
0000
1F80
30C0
6060
6060
6000
6000
6000
6000
6000
6000
6000
6060
6060
30C0
1F80
0000
0000
0000
0000
0000
ENDCHAR
STARTCHAR char263
ENCODING 263
SWIDTH 416 0
DWIDTH 10 0
BBX 10 24 0 -5
BITMAP
0000
0000
0000
0000
0180
0300
0600
0000
1F80
30C0
6060
6000
6000
6000
6000
6000
6060
30C0
1F80
0000
0000
0000
0000
0000
ENDCHAR
STARTCHAR char264
ENCODING 264
SWIDTH 416 0
DWIDTH 10 0
BBX 10 24 0 -5
BITMAP
0600
0F00
1980
0000
1F80
30C0
6060
6060
6000
6000
6000
6000
6000
6000
6000
6060
6060
30C0
1F80
0000
0000
0000
0000
0000
ENDCHAR
STARTCHAR char265
ENCODING 265
SWIDTH 416 0
DWIDTH 10 0
BBX 10 24 0 -5
BITMAP
0000
0000
0000
0000
0600
0F00
1980
0000
1F80
30C0
6060
6000
6000
6000
6000
6000
6060
30C0
1F80
0000
0000
0000
0000
0000
ENDCHAR
STARTCHAR char266
ENCODING 266
SWIDTH 416 0
DWIDTH 10 0
BBX 10 24 0 -5
BITMAP
0600
0600
0600
0000
1F80
30C0
6060
6060
6000
6000
6000
6000
6000
6000
6000
6060
6060
30C0
1F80
0000
0000
0000
0000
0000
ENDCHAR
STARTCHAR char267
ENCODING 267
SWIDTH 416 0
DWIDTH 10 0
BBX 10 24 0 -5
BITMAP
0000
0000
0000
0000
0600
0600
0600
0000
1F80
30C0
6060
6000
6000
6000
6000
6000
6060
30C0
1F80
0000
0000
0000
0000
0000
ENDCHAR
STARTCHAR char268
ENCODING 268
SWIDTH 416 0
DWIDTH 10 0
BBX 10 24 0 -5
BITMAP
1980
0F00
0600
0000
1F80
30C0
6060
6060
6000
6000
6000
6000
6000
6000
6000
6060
6060
30C0
1F80
0000
0000
0000
0000
0000
ENDCHAR
STARTCHAR char269
ENCODING 269
SWIDTH 416 0
DWIDTH 10 0
BBX 10 24 0 -5
BITMAP
0000
0000
0000
0000
1980
0F00
0600
0000
1F80
30C0
6060
6000
6000
6000
6000
6000
6060
30C0
1F80
0000
0000
0000
0000
0000
ENDCHAR
STARTCHAR char270
ENCODING 270
SWIDTH 416 0
DWIDTH 10 0
BBX 10 24 0 -5
BITMAP
1980
0F00
0600
0000
7F80
60C0
6060
6060
6060
6060
6060
6060
6060
6060
6060
6060
6060
60C0
7F80
0000
0000
0000
0000
0000
ENDCHAR
STARTCHAR char271
ENCODING 271
SWIDTH 416 0
DWIDTH 10 0
BBX 10 24 0 -5
BITMAP
1980
0F00
0600
0000
0060
0060
0060
0060
1FE0
3060
6060
6060
6060
6060
6060
6060
6060
3060
1FE0
0000
0000
0000
0000
0000
ENDCHAR
STARTCHAR char272
ENCODING 272
SWIDTH 416 0
DWIDTH 10 0
BBX 10 24 0 -5
BITMAP
0000
0000
0000
0000
7F80
60C0
6060
6060
6060
6060
6060
FE60
6060
6060
6060
6060
6060
60C0
7F80
0000
0000
0000
0000
0000
ENDCHAR
STARTCHAR char273
ENCODING 273
SWIDTH 416 0
DWIDTH 10 0
BBX 10 24 0 -5
BITMAP
0000
0000
0000
0000
0060
07F0
0060
0060
1FE0
3060
6060
6060
6060
6060
6060
6060
6060
3060
1FE0
0000
0000
0000
0000
0000
ENDCHAR
STARTCHAR char274
ENCODING 274
SWIDTH 416 0
DWIDTH 10 0
BBX 10 24 0 -5
BITMAP
0000
3FC0
0000
0000
7FE0
6000
6000
6000
6000
6000
6000
7F80
6000
6000
6000
6000
6000
6000
7FE0
0000
0000
0000
0000
0000
ENDCHAR
STARTCHAR char275
ENCODING 275
SWIDTH 416 0
DWIDTH 10 0
BBX 10 24 0 -5
BITMAP
0000
0000
0000
0000
0000
3FC0
0000
0000
1F80
30C0
6060
6060
6060
7FE0
6000
6000
6000
3060
1FC0
0000
0000
0000
0000
0000
ENDCHAR
STARTCHAR char276
ENCODING 276
SWIDTH 416 0
DWIDTH 10 0
BBX 10 24 0 -5
BITMAP
30C0
30C0
1F80
0000
7FE0
6000
6000
6000
6000
6000
6000
7F80
6000
6000
6000
6000
6000
6000
7FE0
0000
0000
0000
0000
0000
ENDCHAR
STARTCHAR char277
ENCODING 277
SWIDTH 416 0
DWIDTH 10 0
BBX 10 24 0 -5
BITMAP
0000
0000
0000
0000
30C0
30C0
1F80
0000
1F80
30C0
6060
6060
6060
7FE0
6000
6000
6000
3060
1FC0
0000
0000
0000
0000
0000
ENDCHAR
STARTCHAR char278
ENCODING 278
SWIDTH 416 0
DWIDTH 10 0
BBX 10 24 0 -5
BITMAP
0600
0600
0600
0000
7FE0
6000
6000
6000
6000
6000
6000
7F80
6000
6000
6000
6000
6000
6000
7FE0
0000
0000
0000
0000
0000
ENDCHAR
STARTCHAR char279
ENCODING 279
SWIDTH 416 0
DWIDTH 10 0
BBX 10 24 0 -5
BITMAP
0000
0000
0000
0000
0600
0600
0600
0000
1F80
30C0
6060
6060
6060
7FE0
6000
6000
6000
3060
1FC0
0000
0000
0000
0000
0000
ENDCHAR
STARTCHAR char280
ENCODING 280
SWIDTH 416 0
DWIDTH 10 0
BBX 10 24 0 -5
BITMAP
0000
0000
0000
0000
7FE0
6000
6000
6000
6000
6000
6000
7F80
6000
6000
6000
6000
6000
6000
7FE0
00E0
0180
0180
00F0
0000
ENDCHAR
STARTCHAR char281
ENCODING 281
SWIDTH 416 0
DWIDTH 10 0
BBX 10 24 0 -5
BITMAP
0000
0000
0000
0000
0000
0000
0000
0000
1F80
30C0
6060
6060
6060
7FE0
6000
6000
6000
3060
1FC0
0700
0C00
0C00
0780
0000
ENDCHAR
STARTCHAR char282
ENCODING 282
SWIDTH 416 0
DWIDTH 10 0
BBX 10 24 0 -5
BITMAP
1980
0F00
0600
0000
7FE0
6000
6000
6000
6000
6000
6000
7F80
6000
6000
6000
6000
6000
6000
7FE0
0000
0000
0000
0000
0000
ENDCHAR
STARTCHAR char283
ENCODING 283
SWIDTH 416 0
DWIDTH 10 0
BBX 10 24 0 -5
BITMAP
0000
0000
0000
0000
1980
0F00
0600
0000
1F80
30C0
6060
6060
6060
7FE0
6000
6000
6000
3060
1FC0
0000
0000
0000
0000
0000
ENDCHAR
STARTCHAR char284
ENCODING 284
SWIDTH 416 0
DWIDTH 10 0
BBX 10 24 0 -5
BITMAP
0600
0F00
1980
0000
1F80
30C0
6060
6060
6000
6000
6000
63E0
6060
6060
6060
6060
6060
30C0
1F80
0000
0000
0000
0000
0000
ENDCHAR
STARTCHAR char285
ENCODING 285
SWIDTH 416 0
DWIDTH 10 0
BBX 10 24 0 -5
BITMAP
0000
0000
0000
0000
0600
0F00
1980
0000
1FE0
3060
6060
6060
6060
6060
6060
6060
6060
30E0
1FE0
0060
0060
00C0
3F80
0000
ENDCHAR
STARTCHAR char286
ENCODING 286
SWIDTH 416 0
DWIDTH 10 0
BBX 10 24 0 -5
BITMAP
30C0
30C0
1F80
0000
1F80
30C0
6060
6060
6000
6000
6000
63E0
6060
6060
6060
6060
6060
30C0
1F80
0000
0000
0000
0000
0000
ENDCHAR
STARTCHAR char287
ENCODING 287
SWIDTH 416 0
DWIDTH 10 0
BBX 10 24 0 -5
BITMAP
0000
0000
0000
0000
30C0
30C0
1F80
0000
1FE0
3060
6060
6060
6060
6060
6060
6060
6060
30E0
1FE0
0060
0060
00C0
3F80
0000
ENDCHAR
STARTCHAR char288
ENCODING 288
SWIDTH 416 0
DWIDTH 10 0
BBX 10 24 0 -5
BITMAP
0600
0600
0600
0000
1F80
30C0
6060
6060
6000
6000
6000
63E0
6060
6060
6060
6060
6060
30C0
1F80
0000
0000
0000
0000
0000
ENDCHAR
STARTCHAR char289
ENCODING 289
SWIDTH 416 0
DWIDTH 10 0
BBX 10 24 0 -5
BITMAP
0000
0000
0000
0000
0300
0300
0300
0000
1FE0
3060
6060
6060
6060
6060
6060
6060
6060
30E0
1FE0
0060
0060
00C0
3F80
0000
ENDCHAR
STARTCHAR char290
ENCODING 290
SWIDTH 416 0
DWIDTH 10 0
BBX 10 24 0 -5
BITMAP
0000
0000
0000
0000
1F80
30C0
6060
6060
6000
6000
6000
63E0
6060
6060
6060
6060
6060
30C0
1F80
0000
0600
0600
0600
0C00
ENDCHAR
STARTCHAR char291
ENCODING 291
SWIDTH 416 0
DWIDTH 10 0
BBX 10 24 0 -5
BITMAP
0000
0000
0000
0180
0300
0300
0300
0000
1FE0
3060
6060
6060
6060
6060
6060
6060
6060
30E0
1FE0
0060
0060
00C0
3F80
0000
ENDCHAR
STARTCHAR char292
ENCODING 292
SWIDTH 416 0
DWIDTH 10 0
BBX 10 24 0 -5
BITMAP
0600
0F00
1980
0000
6060
6060
6060
6060
6060
6060
6060
7FE0
6060
6060
6060
6060
6060
6060
6060
0000
0000
0000
0000
0000
ENDCHAR
STARTCHAR char293
ENCODING 293
SWIDTH 416 0
DWIDTH 10 0
BBX 10 24 0 -5
BITMAP
0600
0F00
1980
0000
6000
6000
6000
6000
7F80
60C0
6060
6060
6060
6060
6060
6060
6060
6060
6060
0000
0000
0000
0000
0000
ENDCHAR
STARTCHAR char294
ENCODING 294
SWIDTH 416 0
DWIDTH 10 0
BBX 10 24 0 -5
BITMAP
0000
0000
0000
0000
6060
6060
6060
FFF0
6060
6060
6060
7FE0
6060
6060
6060
6060
6060
6060
6060
0000
0000
0000
0000
0000
ENDCHAR
STARTCHAR char295
ENCODING 295
SWIDTH 416 0
DWIDTH 10 0
BBX 10 24 0 -5
BITMAP
0000
0000
0000
0000
6000
FE00
6000
6000
7F80
60C0
6060
6060
6060
6060
6060
6060
6060
6060
6060
0000
0000
0000
0000
0000
ENDCHAR
STARTCHAR char296
ENCODING 296
SWIDTH 416 0
DWIDTH 10 0
BBX 10 24 0 -5
BITMAP
1CC0
36C0
3380
0000
1F80
0600
0600
0600
0600
0600
0600
0600
0600
0600
0600
0600
0600
0600
1F80
0000
0000
0000
0000
0000
ENDCHAR
STARTCHAR char297
ENCODING 297
SWIDTH 416 0
DWIDTH 10 0
BBX 10 24 0 -5
BITMAP
0000
0000
0000
0000
1CC0
36C0
3380
0000
1E00
0600
0600
0600
0600
0600
0600
0600
0600
0600
1F80
0000
0000
0000
0000
0000
ENDCHAR
STARTCHAR char298
ENCODING 298
SWIDTH 416 0
DWIDTH 10 0
BBX 10 24 0 -5
BITMAP
0000
3FC0
0000
0000
1F80
0600
0600
0600
0600
0600
0600
0600
0600
0600
0600
0600
0600
0600
1F80
0000
0000
0000
0000
0000
ENDCHAR
STARTCHAR char299
ENCODING 299
SWIDTH 416 0
DWIDTH 10 0
BBX 10 24 0 -5
BITMAP
0000
0000
0000
0000
0000
3FC0
0000
0000
1E00
0600
0600
0600
0600
0600
0600
0600
0600
0600
1F80
0000
0000
0000
0000
0000
ENDCHAR
STARTCHAR char300
ENCODING 300
SWIDTH 416 0
DWIDTH 10 0
BBX 10 24 0 -5
BITMAP
30C0
30C0
1F80
0000
1F80
0600
0600
0600
0600
0600
0600
0600
0600
0600
0600
0600
0600
0600
1F80
0000
0000
0000
0000
0000
ENDCHAR
STARTCHAR char301
ENCODING 301
SWIDTH 416 0
DWIDTH 10 0
BBX 10 24 0 -5
BITMAP
0000
0000
0000
0000
30C0
30C0
1F80
0000
1E00
0600
0600
0600
0600
0600
0600
0600
0600
0600
1F80
0000
0000
0000
0000
0000
ENDCHAR
STARTCHAR char302
ENCODING 302
SWIDTH 416 0
DWIDTH 10 0
BBX 10 24 0 -5
BITMAP
0000
0000
0000
0000
1F80
0600
0600
0600
0600
0600
0600
0600
0600
0600
0600
0600
0600
0600
1F80
0600
0C00
0C00
0780
0000
ENDCHAR
STARTCHAR char303
ENCODING 303
SWIDTH 416 0
DWIDTH 10 0
BBX 10 24 0 -5
BITMAP
0000
0000
0000
0000
0600
0600
0600
0000
1E00
0600
0600
0600
0600
0600
0600
0600
0600
0600
1F80
0600
0C00
0C00
0780
0000
ENDCHAR
STARTCHAR char304
ENCODING 304
SWIDTH 416 0
DWIDTH 10 0
BBX 10 24 0 -5
BITMAP
0600
0600
0600
0000
1F80
0600
0600
0600
0600
0600
0600
0600
0600
0600
0600
0600
0600
0600
1F80
0000
0000
0000
0000
0000
ENDCHAR
STARTCHAR char305
ENCODING 305
SWIDTH 416 0
DWIDTH 10 0
BBX 10 24 0 -5
BITMAP
0000
0000
0000
0000
0000
0000
0000
0000
1E00
0600
0600
0600
0600
0600
0600
0600
0600
0600
1F80
0000
0000
0000
0000
0000
ENDCHAR
STARTCHAR char306
ENCODING 306
SWIDTH 416 0
DWIDTH 10 0
BBX 10 24 0 -5
BITMAP
0000
0000
0000
0000
F0F0
6060
6060
6060
6060
6060
6060
6060
6060
6060
6C60
6C60
6C60
6C60
F7C0
0000
0000
0000
0000
0000
ENDCHAR
STARTCHAR char307
ENCODING 307
SWIDTH 416 0
DWIDTH 10 0
BBX 10 24 0 -5
BITMAP
0000
0000
0000
0000
6060
6060
6060
0000
E0E0
6060
6060
6060
6060
6060
6060
6060
6060
6060
F060
0C60
0C60
0C60
07C0
0000
ENDCHAR
STARTCHAR char308
ENCODING 308
SWIDTH 416 0
DWIDTH 10 0
BBX 10 24 0 -5
BITMAP
00C0
01E0
0330
0000
03F0
00C0
00C0
00C0
00C0
00C0
00C0
00C0
00C0
00C0
60C0
60C0
60C0
3180
1F00
0000
0000
0000
0000
0000
ENDCHAR
STARTCHAR char309
ENCODING 309
SWIDTH 416 0
DWIDTH 10 0
BBX 10 24 0 -5
BITMAP
0000
0000
0000
0000
00C0
01E0
0330
0000
03C0
00C0
00C0
00C0
00C0
00C0
00C0
00C0
00C0
00C0
00C0
30C0
30C0
1980
0F00
0000
ENDCHAR
STARTCHAR char310
ENCODING 310
SWIDTH 416 0
DWIDTH 10 0
BBX 10 24 0 -5
BITMAP
0000
0000
0000
0000
6060
60C0
6180
6300
6600
6C00
7800
7000
7800
6C00
6600
6300
6180
60C0
6060
0000
0600
0600
0600
0C00
ENDCHAR
STARTCHAR char311
ENCODING 311
SWIDTH 416 0
DWIDTH 10 0
BBX 10 24 0 -5
BITMAP
0000
0000
0000
0000
3000
3000
3000
3000
3060
30C0
3180
3300
3600
3C00
3600
3300
3180
30C0
3060
0000
0600
0600
0600
0C00
ENDCHAR
STARTCHAR char312
ENCODING 312
SWIDTH 416 0
DWIDTH 10 0
BBX 10 24 0 -5
BITMAP
0000
0000
0000
0000
0000
0000
0000
0000
3060
30C0
3180
3300
3600
3C00
3600
3300
3180
30C0
3060
0000
0000
0000
0000
0000
ENDCHAR
STARTCHAR char313
ENCODING 313
SWIDTH 416 0
DWIDTH 10 0
BBX 10 24 0 -5
BITMAP
1800
3000
6000
0000
6000
6000
6000
6000
6000
6000
6000
6000
6000
6000
6000
6000
6000
6000
7FE0
0000
0000
0000
0000
0000
ENDCHAR
STARTCHAR char314
ENCODING 314
SWIDTH 416 0
DWIDTH 10 0
BBX 10 24 0 -5
BITMAP
0180
0300
0600
0000
1E00
0600
0600
0600
0600
0600
0600
0600
0600
0600
0600
0600
0600
0600
1F80
0000
0000
0000
0000
0000
ENDCHAR
STARTCHAR char315
ENCODING 315
SWIDTH 416 0
DWIDTH 10 0
BBX 10 24 0 -5
BITMAP
0000
0000
0000
0000
6000
6000
6000
6000
6000
6000
6000
6000
6000
6000
6000
6000
6000
6000
7FE0
0000
0600
0600
0600
0C00
ENDCHAR
STARTCHAR char316
ENCODING 316
SWIDTH 416 0
DWIDTH 10 0
BBX 10 24 0 -5
BITMAP
0000
0000
0000
0000
1E00
0600
0600
0600
0600
0600
0600
0600
0600
0600
0600
0600
0600
0600
1F80
0000
0600
0600
0600
0C00
ENDCHAR
STARTCHAR char317
ENCODING 317
SWIDTH 416 0
DWIDTH 10 0
BBX 10 24 0 -5
BITMAP
1980
0F00
0600
0000
6000
6000
6000
6000
6000
6000
6000
6000
6000
6000
6000
6000
6000
6000
7FE0
0000
0000
0000
0000
0000
ENDCHAR
STARTCHAR char318
ENCODING 318
SWIDTH 416 0
DWIDTH 10 0
BBX 10 24 0 -5
BITMAP
1980
0F00
0600
0000
1E00
0600
0600
0600
0600
0600
0600
0600
0600
0600
0600
0600
0600
0600
1F80
0000
0000
0000
0000
0000
ENDCHAR
STARTCHAR char319
ENCODING 319
SWIDTH 416 0
DWIDTH 10 0
BBX 10 24 0 -5
BITMAP
0000
0000
0000
0000
6000
6000
6000
6000
6000
6000
6180
6180
6180
6000
6000
6000
6000
6000
7FE0
0000
0000
0000
0000
0000
ENDCHAR
STARTCHAR char320
ENCODING 320
SWIDTH 416 0
DWIDTH 10 0
BBX 10 24 0 -5
BITMAP
0000
0000
0000
0000
1E00
0600
0600
0600
0600
0600
0630
0630
0630
0600
0600
0600
0600
0600
1F80
0000
0000
0000
0000
0000
ENDCHAR
STARTCHAR char321
ENCODING 321
SWIDTH 416 0
DWIDTH 10 0
BBX 10 24 0 -5
BITMAP
0000
0000
0000
0000
3000
3000
3000
3000
3000
3C00
3800
3000
7000
F000
3000
3000
3000
3000
3FF0
0000
0000
0000
0000
0000
ENDCHAR
STARTCHAR char322
ENCODING 322
SWIDTH 416 0
DWIDTH 10 0
BBX 10 24 0 -5
BITMAP
0000
0000
0000
0000
1E00
0600
0600
0600
0600
0780
0700
0600
0E00
1E00
0600
0600
0600
0600
1F80
0000
0000
0000
0000
0000
ENDCHAR
STARTCHAR char323
ENCODING 323
SWIDTH 416 0
DWIDTH 10 0
BBX 10 24 0 -5
BITMAP
0180
0300
0600
0000
6060
6060
6060
6060
7060
7860
6C60
6660
6360
61E0
60E0
6060
6060
6060
6060
0000
0000
0000
0000
0000
ENDCHAR
STARTCHAR char110
ENCODING 324
SWIDTH 416 0
DWIDTH 10 0
BBX 10 24 0 -5
BITMAP
0000
0300
0600
0C00
0000
6E00
7F00
6180
6180
6180
6180
6180
6180
6180
6180
6180
6180
6180
6180
0000
0000
0000
0000
0000
ENDCHAR
STARTCHAR char325
ENCODING 325
SWIDTH 416 0
DWIDTH 10 0
BBX 10 24 0 -5
BITMAP
0000
0000
0000
0000
6060
6060
6060
6060
7060
7860
6C60
6660
6360
61E0
60E0
6060
6060
6060
6060
0000
0600
0600
0600
0C00
ENDCHAR
STARTCHAR char110
ENCODING 326
SWIDTH 416 0
DWIDTH 10 0
BBX 10 24 0 -5
BITMAP
0000
0000
0000
0000
0000
6E00
7F00
6180
6180
6180
6180
6180
6180
6180
6180
6180
6180
6180
6180
0000
0C00
0C00
1800
0000
ENDCHAR
STARTCHAR char327
ENCODING 327
SWIDTH 416 0
DWIDTH 10 0
BBX 10 24 0 -5
BITMAP
1980
0F00
0600
0000
6060
6060
6060
6060
7060
7860
6C60
6660
6360
61E0
60E0
6060
6060
6060
6060
0000
0000
0000
0000
0000
ENDCHAR
STARTCHAR char110
ENCODING 328
SWIDTH 416 0
DWIDTH 10 0
BBX 10 24 0 -5
BITMAP
0000
3300
1E00
0C00
0000
6E00
7F00
6180
6180
6180
6180
6180
6180
6180
6180
6180
6180
6180
6180
0000
0000
0000
0000
0000
ENDCHAR
STARTCHAR char110
ENCODING 329
SWIDTH 416 0
DWIDTH 10 0
BBX 10 24 0 -5
BITMAP
0000
3000
3000
6000
0000
6E00
7F00
6180
6180
6180
6180
6180
6180
6180
6180
6180
6180
6180
6180
0000
0000
0000
0000
0000
ENDCHAR
STARTCHAR char330
ENCODING 330
SWIDTH 416 0
DWIDTH 10 0
BBX 10 24 0 -5
BITMAP
0000
0000
0000
0000
6060
6060
6060
6060
7060
7860
6C60
6660
6360
61E0
60E0
6060
6060
6060
6060
0060
0060
0060
00C0
0000
ENDCHAR
STARTCHAR char110
ENCODING 331
SWIDTH 416 0
DWIDTH 10 0
BBX 10 24 0 -5
BITMAP
0000
0000
0000
0000
0000
6E00
7F00
6180
6180
6180
6180
6180
6180
6180
6180
6180
6180
6180
6180
0180
0180
0300
0000
0000
ENDCHAR
STARTCHAR char332
ENCODING 332
SWIDTH 416 0
DWIDTH 10 0
BBX 10 24 0 -5
BITMAP
0000
3FC0
0000
0000
1F80
30C0
6060
6060
6060
6060
6060
6060
6060
6060
6060
6060
6060
30C0
1F80
0000
0000
0000
0000
0000
ENDCHAR
STARTCHAR char333
ENCODING 333
SWIDTH 416 0
DWIDTH 10 0
BBX 10 24 0 -5
BITMAP
0000
0000
0000
0000
0000
3FC0
0000
0000
1F80
30C0
6060
6060
6060
6060
6060
6060
6060
30C0
1F80
0000
0000
0000
0000
0000
ENDCHAR
STARTCHAR char334
ENCODING 334
SWIDTH 416 0
DWIDTH 10 0
BBX 10 24 0 -5
BITMAP
30C0
30C0
1F80
0000
1F80
30C0
6060
6060
6060
6060
6060
6060
6060
6060
6060
6060
6060
30C0
1F80
0000
0000
0000
0000
0000
ENDCHAR
STARTCHAR char335
ENCODING 335
SWIDTH 416 0
DWIDTH 10 0
BBX 10 24 0 -5
BITMAP
0000
0000
0000
0000
30C0
30C0
1F80
0000
1F80
30C0
6060
6060
6060
6060
6060
6060
6060
30C0
1F80
0000
0000
0000
0000
0000
ENDCHAR
STARTCHAR char336
ENCODING 336
SWIDTH 416 0
DWIDTH 10 0
BBX 10 24 0 -5
BITMAP
0660
0CC0
1980
0000
1F80
30C0
6060
6060
6060
6060
6060
6060
6060
6060
6060
6060
6060
30C0
1F80
0000
0000
0000
0000
0000
ENDCHAR
STARTCHAR char337
ENCODING 337
SWIDTH 416 0
DWIDTH 10 0
BBX 10 24 0 -5
BITMAP
0000
0000
0000
0000
0660
0CC0
1980
0000
1F80
30C0
6060
6060
6060
6060
6060
6060
6060
30C0
1F80
0000
0000
0000
0000
0000
ENDCHAR
STARTCHAR char338
ENCODING 338
SWIDTH 416 0
DWIDTH 10 0
BBX 10 24 0 -5
BITMAP
0000
0000
0000
0000
3FF0
6300
C300
C300
C300
C300
C300
C3F0
C300
C300
C300
C300
C300
6300
3FF0
0000
0000
0000
0000
0000
ENDCHAR
STARTCHAR char339
ENCODING 339
SWIDTH 416 0
DWIDTH 10 0
BBX 10 24 0 -5
BITMAP
0000
0000
0000
0000
0000
0000
0000
0000
3FC0
6660
C630
C630
C630
C7F0
C600
C600
C600
6630
3FE0
0000
0000
0000
0000
0000
ENDCHAR
STARTCHAR char340
ENCODING 340
SWIDTH 416 0
DWIDTH 10 0
BBX 10 24 0 -5
BITMAP
0180
0300
0600
0000
7F80
60C0
6060
6060
6060
6060
60C0
7F80
7800
6C00
6600
6300
6180
60C0
6060
0000
0000
0000
0000
0000
ENDCHAR
STARTCHAR char341
ENCODING 341
SWIDTH 416 0
DWIDTH 10 0
BBX 10 24 0 -5
BITMAP
0000
0000
0000
0000
0180
0300
0600
0000
67E0
6C00
7800
7000
6000
6000
6000
6000
6000
6000
6000
0000
0000
0000
0000
0000
ENDCHAR
STARTCHAR char342
ENCODING 342
SWIDTH 416 0
DWIDTH 10 0
BBX 10 24 0 -5
BITMAP
0000
0000
0000
0000
7F80
60C0
6060
6060
6060
6060
60C0
7F80
7800
6C00
6600
6300
6180
60C0
6060
0000
0600
0600
0600
0C00
ENDCHAR
STARTCHAR char343
ENCODING 343
SWIDTH 416 0
DWIDTH 10 0
BBX 10 24 0 -5
BITMAP
0000
0000
0000
0000
0000
0000
0000
0000
67E0
6C00
7800
7000
6000
6000
6000
6000
6000
6000
6000
0000
6000
6000
6000
C000
ENDCHAR
STARTCHAR char344
ENCODING 344
SWIDTH 416 0
DWIDTH 10 0
BBX 10 24 0 -5
BITMAP
1980
0F00
0600
0000
7F80
60C0
6060
6060
6060
6060
60C0
7F80
7800
6C00
6600
6300
6180
60C0
6060
0000
0000
0000
0000
0000
ENDCHAR
STARTCHAR char345
ENCODING 345
SWIDTH 416 0
DWIDTH 10 0
BBX 10 24 0 -5
BITMAP
0000
0000
0000
0000
1980
0F00
0600
0000
67E0
6C00
7800
7000
6000
6000
6000
6000
6000
6000
6000
0000
0000
0000
0000
0000
ENDCHAR
STARTCHAR char346
ENCODING 346
SWIDTH 416 0
DWIDTH 10 0
BBX 10 24 0 -5
BITMAP
0180
0300
0600
0000
1F80
30C0
6060
6000
6000
6000
3000
1F80
00C0
0060
0060
0060
6060
30C0
1F80
0000
0000
0000
0000
0000
ENDCHAR
STARTCHAR char347
ENCODING 347
SWIDTH 416 0
DWIDTH 10 0
BBX 10 24 0 -5
BITMAP
0000
0000
0000
0000
0180
0300
0600
0000
3FC0
6060
6000
6000
6000
3FC0
0060
0060
0060
6060
3FC0
0000
0000
0000
0000
0000
ENDCHAR
STARTCHAR char348
ENCODING 348
SWIDTH 416 0
DWIDTH 10 0
BBX 10 24 0 -5
BITMAP
0600
0F00
1980
0000
1F80
30C0
6060
6000
6000
6000
3000
1F80
00C0
0060
0060
0060
6060
30C0
1F80
0000
0000
0000
0000
0000
ENDCHAR
STARTCHAR char349
ENCODING 349
SWIDTH 416 0
DWIDTH 10 0
BBX 10 24 0 -5
BITMAP
0000
0000
0000
0000
0600
0F00
1980
0000
3FC0
6060
6000
6000
6000
3FC0
0060
0060
0060
6060
3FC0
0000
0000
0000
0000
0000
ENDCHAR
STARTCHAR char350
ENCODING 350
SWIDTH 416 0
DWIDTH 10 0
BBX 10 24 0 -5
BITMAP
0000
0000
0000
0000
1F80
30C0
6060
6000
6000
6000
3000
1F80
00C0
0060
0060
0060
6060
30C0
1F80
0600
0600
0600
0C00
0000
ENDCHAR
STARTCHAR char351
ENCODING 351
SWIDTH 416 0
DWIDTH 10 0
BBX 10 24 0 -5
BITMAP
0000
0000
0000
0000
0000
0000
0000
0000
3FC0
6060
6000
6000
6000
3FC0
0060
0060
0060
6060
3FC0
0600
0600
0600
0C00
0000
ENDCHAR
STARTCHAR char352
ENCODING 352
SWIDTH 416 0
DWIDTH 10 0
BBX 10 24 0 -5
BITMAP
1980
0F00
0600
0000
1F80
30C0
6060
6000
6000
6000
3000
1F80
00C0
0060
0060
0060
6060
30C0
1F80
0000
0000
0000
0000
0000
ENDCHAR
STARTCHAR char353
ENCODING 353
SWIDTH 416 0
DWIDTH 10 0
BBX 10 24 0 -5
BITMAP
0000
0000
0000
0000
1980
0F00
0600
0000
3FC0
6060
6000
6000
6000
3FC0
0060
0060
0060
6060
3FC0
0000
0000
0000
0000
0000
ENDCHAR
STARTCHAR char354
ENCODING 354
SWIDTH 416 0
DWIDTH 10 0
BBX 10 24 0 -5
BITMAP
0000
0000
0000
0000
7FE0
0600
0600
0600
0600
0600
0600
0600
0600
0600
0600
0600
0600
0600
0600
0300
0300
0300
0600
0000
ENDCHAR
STARTCHAR char355
ENCODING 355
SWIDTH 416 0
DWIDTH 10 0
BBX 10 24 0 -5
BITMAP
0000
0000
0000
0000
0C00
0C00
0C00
0C00
7F80
0C00
0C00
0C00
0C00
0C00
0C00
0C00
0C00
0C00
07C0
0300
0300
0300
0600
0000
ENDCHAR
STARTCHAR char356
ENCODING 356
SWIDTH 416 0
DWIDTH 10 0
BBX 10 24 0 -5
BITMAP
1980
0F00
0600
0000
7FE0
0600
0600
0600
0600
0600
0600
0600
0600
0600
0600
0600
0600
0600
0600
0000
0000
0000
0000
0000
ENDCHAR
STARTCHAR char357
ENCODING 357
SWIDTH 416 0
DWIDTH 10 0
BBX 10 24 0 -5
BITMAP
3300
1E00
0C00
0000
0C00
0C00
0C00
0C00
7F80
0C00
0C00
0C00
0C00
0C00
0C00
0C00
0C00
0C00
07C0
0000
0000
0000
0000
0000
ENDCHAR
STARTCHAR char358
ENCODING 358
SWIDTH 416 0
DWIDTH 10 0
BBX 10 24 0 -5
BITMAP
0000
0000
0000
0000
7FE0
0600
0600
0600
0600
0600
3FC0
0600
0600
0600
0600
0600
0600
0600
0600
0000
0000
0000
0000
0000
ENDCHAR
STARTCHAR char359
ENCODING 359
SWIDTH 416 0
DWIDTH 10 0
BBX 10 24 0 -5
BITMAP
0000
0000
0000
0000
0C00
0C00
0C00
0C00
7F80
0C00
0C00
3F00
0C00
0C00
0C00
0C00
0C00
0C00
07C0
0000
0000
0000
0000
0000
ENDCHAR
STARTCHAR char360
ENCODING 360
SWIDTH 416 0
DWIDTH 10 0
BBX 10 24 0 -5
BITMAP
1CC0
36C0
3380
0000
6060
6060
6060
6060
6060
6060
6060
6060
6060
6060
6060
6060
6060
30C0
1F80
0000
0000
0000
0000
0000
ENDCHAR
STARTCHAR char361
ENCODING 361
SWIDTH 416 0
DWIDTH 10 0
BBX 10 24 0 -5
BITMAP
0000
0000
0000
0000
1CC0
36C0
3380
0000
6060
6060
6060
6060
6060
6060
6060
6060
6060
3060
1FE0
0000
0000
0000
0000
0000
ENDCHAR
STARTCHAR char362
ENCODING 362
SWIDTH 416 0
DWIDTH 10 0
BBX 10 24 0 -5
BITMAP
0000
3FC0
0000
0000
6060
6060
6060
6060
6060
6060
6060
6060
6060
6060
6060
6060
6060
30C0
1F80
0000
0000
0000
0000
0000
ENDCHAR
STARTCHAR char363
ENCODING 363
SWIDTH 416 0
DWIDTH 10 0
BBX 10 24 0 -5
BITMAP
0000
0000
0000
0000
0000
3FC0
0000
0000
6060
6060
6060
6060
6060
6060
6060
6060
6060
3060
1FE0
0000
0000
0000
0000
0000
ENDCHAR
STARTCHAR char364
ENCODING 364
SWIDTH 416 0
DWIDTH 10 0
BBX 10 24 0 -5
BITMAP
30C0
30C0
1F80
0000
6060
6060
6060
6060
6060
6060
6060
6060
6060
6060
6060
6060
6060
30C0
1F80
0000
0000
0000
0000
0000
ENDCHAR
STARTCHAR char365
ENCODING 365
SWIDTH 416 0
DWIDTH 10 0
BBX 10 24 0 -5
BITMAP
0000
0000
0000
0000
30C0
30C0
1F80
0000
6060
6060
6060
6060
6060
6060
6060
6060
6060
3060
1FE0
0000
0000
0000
0000
0000
ENDCHAR
STARTCHAR char366
ENCODING 366
SWIDTH 416 0
DWIDTH 10 0
BBX 10 24 0 -5
BITMAP
0F00
1980
1980
0F00
6060
6060
6060
6060
6060
6060
6060
6060
6060
6060
6060
6060
6060
30C0
1F80
0000
0000
0000
0000
0000
ENDCHAR
STARTCHAR char367
ENCODING 367
SWIDTH 416 0
DWIDTH 10 0
BBX 10 24 0 -5
BITMAP
0000
0000
0000
0000
0F00
1980
1980
0F00
6060
6060
6060
6060
6060
6060
6060
6060
6060
3060
1FE0
0000
0000
0000
0000
0000
ENDCHAR
STARTCHAR char368
ENCODING 368
SWIDTH 416 0
DWIDTH 10 0
BBX 10 24 0 -5
BITMAP
0660
0CC0
1980
0000
6060
6060
6060
6060
6060
6060
6060
6060
6060
6060
6060
6060
6060
30C0
1F80
0000
0000
0000
0000
0000
ENDCHAR
STARTCHAR char369
ENCODING 369
SWIDTH 416 0
DWIDTH 10 0
BBX 10 24 0 -5
BITMAP
0000
0000
0000
0000
0660
0CC0
1980
0000
6060
6060
6060
6060
6060
6060
6060
6060
6060
3060
1FE0
0000
0000
0000
0000
0000
ENDCHAR
STARTCHAR char370
ENCODING 370
SWIDTH 416 0
DWIDTH 10 0
BBX 10 24 0 -5
BITMAP
0000
0000
0000
0000
6060
6060
6060
6060
6060
6060
6060
6060
6060
6060
6060
6060
6060
30C0
1F80
0700
0C00
0C00
0780
0000
ENDCHAR
STARTCHAR char371
ENCODING 371
SWIDTH 416 0
DWIDTH 10 0
BBX 10 24 0 -5
BITMAP
0000
0000
0000
0000
0000
0000
0000
0000
6060
6060
6060
6060
6060
6060
6060
6060
6060
3060
1FE0
00E0
0180
0180
00F0
0000
ENDCHAR
STARTCHAR char372
ENCODING 372
SWIDTH 416 0
DWIDTH 10 0
BBX 10 24 0 -5
BITMAP
0600
0F00
1980
0000
C060
C060
C060
C060
C060
C060
C060
C060
C460
CE60
DB60
F1E0
E0E0
C060
8020
0000
0000
0000
0000
0000
ENDCHAR
STARTCHAR char373
ENCODING 373
SWIDTH 416 0
DWIDTH 10 0
BBX 10 24 0 -5
BITMAP
0000
0000
0000
0000
0600
0F00
1980
0000
6060
6060
6060
6060
6660
6660
6660
6660
6660
6660
3FC0
0000
0000
0000
0000
0000
ENDCHAR
STARTCHAR char376
ENCODING 376
SWIDTH 416 0
DWIDTH 10 0
BBX 10 24 0 -5
BITMAP
1980
1980
1980
0000
6060
6060
30C0
30C0
1980
1980
0F00
0F00
0600
0600
0600
0600
0600
0600
0600
0000
0000
0000
0000
0000
ENDCHAR
STARTCHAR char377
ENCODING 377
SWIDTH 416 0
DWIDTH 10 0
BBX 10 24 0 -5
BITMAP
0180
0300
0600
0000
7FE0
0060
0060
0060
00C0
0180
0300
0600
0C00
1800
3000
6000
6000
6000
7FE0
0000
0000
0000
0000
0000
ENDCHAR
STARTCHAR char378
ENCODING 378
SWIDTH 416 0
DWIDTH 10 0
BBX 10 24 0 -5
BITMAP
0000
0000
0000
0000
0180
0300
0600
0000
7FE0
0060
00C0
0180
0300
0600
0C00
1800
3000
6000
7FE0
0000
0000
0000
0000
0000
ENDCHAR
STARTCHAR char379
ENCODING 379
SWIDTH 416 0
DWIDTH 10 0
BBX 10 24 0 -5
BITMAP
0600
0600
0600
0000
7FE0
0060
0060
0060
00C0
0180
0300
0600
0C00
1800
3000
6000
6000
6000
7FE0
0000
0000
0000
0000
0000
ENDCHAR
STARTCHAR char380
ENCODING 380
SWIDTH 416 0
DWIDTH 10 0
BBX 10 24 0 -5
BITMAP
0000
0000
0000
0000
0600
0600
0600
0000
7FE0
0060
00C0
0180
0300
0600
0C00
1800
3000
6000
7FE0
0000
0000
0000
0000
0000
ENDCHAR
STARTCHAR char381
ENCODING 381
SWIDTH 416 0
DWIDTH 10 0
BBX 10 24 0 -5
BITMAP
1980
0F00
0600
0000
7FE0
0060
0060
0060
00C0
0180
0300
0600
0C00
1800
3000
6000
6000
6000
7FE0
0000
0000
0000
0000
0000
ENDCHAR
STARTCHAR char382
ENCODING 382
SWIDTH 416 0
DWIDTH 10 0
BBX 10 24 0 -5
BITMAP
0000
0000
0000
0000
1980
0F00
0600
0000
7FE0
0060
00C0
0180
0300
0600
0C00
1800
3000
6000
7FE0
0000
0000
0000
0000
0000
ENDCHAR
STARTCHAR char390
ENCODING 390
SWIDTH 416 0
DWIDTH 10 0
BBX 10 24 0 -5
BITMAP
0000
0000
0000
0000
1F80
30C0
6060
6060
0060
0060
0060
0060
0060
0060
0060
6060
6060
30C0
1F80
0000
0000
0000
0000
0000
ENDCHAR
STARTCHAR char398
ENCODING 398
SWIDTH 416 0
DWIDTH 10 0
BBX 10 24 0 -5
BITMAP
0000
0000
0000
0000
7FE0
0060
0060
0060
0060
0060
0060
1FE0
0060
0060
0060
0060
0060
0060
7FE0
0000
0000
0000
0000
0000
ENDCHAR
STARTCHAR char399
ENCODING 399
SWIDTH 416 0
DWIDTH 10 0
BBX 10 24 0 -5
BITMAP
0000
0000
0000
0000
1F80
30C0
6060
0060
0060
0060
0060
7FE0
6060
6060
6060
6060
6060
30C0
1F80
0000
0000
0000
0000
0000
ENDCHAR
STARTCHAR char400
ENCODING 400
SWIDTH 416 0
DWIDTH 10 0
BBX 10 24 0 -5
BITMAP
0000
0000
0000
0000
1F80
30C0
6060
6000
6000
6000
3000
1F00
3000
6000
6000
6000
6060
30C0
1F80
0000
0000
0000
0000
0000
ENDCHAR
STARTCHAR char402
ENCODING 402
SWIDTH 416 0
DWIDTH 10 0
BBX 10 24 0 -5
BITMAP
0000
0000
0000
0000
03C0
0660
0660
0600
0600
0600
3FC0
0600
0600
0600
0600
0600
0600
0600
0600
0600
6600
6600
3C00
0000
ENDCHAR
STARTCHAR char413
ENCODING 413
SWIDTH 416 0
DWIDTH 10 0
BBX 10 24 0 -5
BITMAP
0000
0000
0000
0000
6060
6060
6060
6060
7060
7860
6C60
6660
6360
61E0
60E0
6060
6060
6060
6060
6000
6000
6000
C000
0000
ENDCHAR
STARTCHAR char414
ENCODING 414
SWIDTH 416 0
DWIDTH 10 0
BBX 10 24 0 -5
BITMAP
0000
0000
0000
0000
0000
0000
0000
0000
7F80
60C0
6060
6060
6060
6060
6060
6060
6060
6060
6060
0060
0060
0060
0060
0000
ENDCHAR
STARTCHAR char439
ENCODING 439
SWIDTH 416 0
DWIDTH 10 0
BBX 10 24 0 -5
BITMAP
0000
0000
0000
0000
7FE0
0060
00C0
0180
0300
0600
0F80
00C0
0060
0060
0060
0060
6060
30C0
1F80
0000
0000
0000
0000
0000
ENDCHAR
STARTCHAR char536
ENCODING 536
SWIDTH 416 0
DWIDTH 10 0
BBX 10 24 0 -5
BITMAP
0000
0000
0000
0000
1F80
30C0
6060
6000
6000
6000
3000
1F80
00C0
0060
0060
0060
6060
30C0
1F80
0000
0600
0600
0600
0C00
ENDCHAR
STARTCHAR char537
ENCODING 537
SWIDTH 416 0
DWIDTH 10 0
BBX 10 24 0 -5
BITMAP
0000
0000
0000
0000
0000
0000
0000
0000
3FC0
6060
6000
6000
6000
3FC0
0060
0060
0060
6060
3FC0
0000
0600
0600
0600
0C00
ENDCHAR
STARTCHAR char538
ENCODING 538
SWIDTH 416 0
DWIDTH 10 0
BBX 10 24 0 -5
BITMAP
0000
0000
0000
0000
7FE0
0600
0600
0600
0600
0600
0600
0600
0600
0600
0600
0600
0600
0600
0600
0000
0600
0600
0600
0C00
ENDCHAR
STARTCHAR char539
ENCODING 539
SWIDTH 416 0
DWIDTH 10 0
BBX 10 24 0 -5
BITMAP
0000
0000
0000
0000
0C00
0C00
0C00
0C00
7F80
0C00
0C00
0C00
0C00
0C00
0C00
0C00
0C00
0C00
07C0
0000
0300
0300
0300
0600
ENDCHAR
STARTCHAR char562
ENCODING 562
SWIDTH 416 0
DWIDTH 10 0
BBX 10 24 0 -5
BITMAP
0000
3FC0
0000
0000
6060
6060
30C0
30C0
1980
1980
0F00
0F00
0600
0600
0600
0600
0600
0600
0600
0000
0000
0000
0000
0000
ENDCHAR
STARTCHAR char563
ENCODING 563
SWIDTH 416 0
DWIDTH 10 0
BBX 10 24 0 -5
BITMAP
0000
0000
0000
0000
0000
3FC0
0000
0000
6060
6060
6060
6060
6060
6060
6060
6060
6060
30E0
1FE0
0060
0060
00C0
3F80
0000
ENDCHAR
STARTCHAR char596
ENCODING 596
SWIDTH 416 0
DWIDTH 10 0
BBX 10 24 0 -5
BITMAP
0000
0000
0000
0000
0000
0000
0000
0000
1F80
30C0
6060
0060
0060
0060
0060
0060
6060
30C0
1F80
0000
0000
0000
0000
0000
ENDCHAR
STARTCHAR char600
ENCODING 600
SWIDTH 416 0
DWIDTH 10 0
BBX 10 24 0 -5
BITMAP
0000
0000
0000
0000
0000
0000
0000
0000
1F80
30C0
6060
6060
6060
7FE0
0060
0060
0060
60C0
3F80
0000
0000
0000
0000
0000
ENDCHAR
STARTCHAR char601
ENCODING 601
SWIDTH 416 0
DWIDTH 10 0
BBX 10 24 0 -5
BITMAP
0000
0000
0000
0000
0000
0000
0000
0000
3F80
60C0
0060
0060
0060
7FE0
6060
6060
6060
30C0
1F80
0000
0000
0000
0000
0000
ENDCHAR
STARTCHAR char603
ENCODING 603
SWIDTH 416 0
DWIDTH 10 0
BBX 10 24 0 -5
BITMAP
0000
0000
0000
0000
0000
0000
0000
0000
3FC0
6060
6000
6000
6000
3F00
6000
6000
6000
6060
3FC0
0000
0000
0000
0000
0000
ENDCHAR
STARTCHAR char626
ENCODING 626
SWIDTH 416 0
DWIDTH 10 0
BBX 10 24 0 -5
BITMAP
0000
0000
0000
0000
0000
0000
0000
0000
7F80
60C0
6060
6060
6060
6060
6060
6060
6060
6060
6060
6000
6000
6000
C000
0000
ENDCHAR
STARTCHAR char658
ENCODING 658
SWIDTH 416 0
DWIDTH 10 0
BBX 10 24 0 -5
BITMAP
0000
0000
0000
0000
0000
0000
0000
0000
7FE0
0060
00C0
0180
0300
0600
0F80
00C0
0060
0060
0060
0060
6060
30C0
1F80
0000
ENDCHAR
STARTCHAR char699
ENCODING 699
SWIDTH 416 0
DWIDTH 10 0
BBX 10 24 0 -5
BITMAP
0300
0600
0600
0600
0000
0000
0000
0000
0000
0000
0000
0000
0000
0000
0000
0000
0000
0000
0000
0000
0000
0000
0000
0000
ENDCHAR
STARTCHAR char700
ENCODING 700
SWIDTH 416 0
DWIDTH 10 0
BBX 10 24 0 -5
BITMAP
0600
0600
0600
0C00
0000
0000
0000
0000
0000
0000
0000
0000
0000
0000
0000
0000
0000
0000
0000
0000
0000
0000
0000
0000
ENDCHAR
STARTCHAR char701
ENCODING 701
SWIDTH 416 0
DWIDTH 10 0
BBX 10 24 0 -5
BITMAP
0600
0600
0600
0300
0000
0000
0000
0000
0000
0000
0000
0000
0000
0000
0000
0000
0000
0000
0000
0000
0000
0000
0000
0000
ENDCHAR
STARTCHAR char710
ENCODING 710
SWIDTH 416 0
DWIDTH 10 0
BBX 10 24 0 -5
BITMAP
0600
0F00
1980
0000
0000
0000
0000
0000
0000
0000
0000
0000
0000
0000
0000
0000
0000
0000
0000
0000
0000
0000
0000
0000
ENDCHAR
STARTCHAR char711
ENCODING 711
SWIDTH 416 0
DWIDTH 10 0
BBX 10 24 0 -5
BITMAP
1980
0F00
0600
0000
0000
0000
0000
0000
0000
0000
0000
0000
0000
0000
0000
0000
0000
0000
0000
0000
0000
0000
0000
0000
ENDCHAR
STARTCHAR char728
ENCODING 728
SWIDTH 416 0
DWIDTH 10 0
BBX 10 24 0 -5
BITMAP
30C0
30C0
1F80
0000
0000
0000
0000
0000
0000
0000
0000
0000
0000
0000
0000
0000
0000
0000
0000
0000
0000
0000
0000
0000
ENDCHAR
STARTCHAR char729
ENCODING 729
SWIDTH 416 0
DWIDTH 10 0
BBX 10 24 0 -5
BITMAP
0600
0600
0600
0000
0000
0000
0000
0000
0000
0000
0000
0000
0000
0000
0000
0000
0000
0000
0000
0000
0000
0000
0000
0000
ENDCHAR
STARTCHAR char731
ENCODING 731
SWIDTH 416 0
DWIDTH 10 0
BBX 10 24 0 -5
BITMAP
0000
0000
0000
0000
0000
0000
0000
0000
0000
0000
0000
0000
0000
0000
0000
0000
0000
0000
0000
00E0
0180
0180
00F0
0000
ENDCHAR
STARTCHAR char732
ENCODING 732
SWIDTH 416 0
DWIDTH 10 0
BBX 10 24 0 -5
BITMAP
1CC0
36C0
3380
0000
0000
0000
0000
0000
0000
0000
0000
0000
0000
0000
0000
0000
0000
0000
0000
0000
0000
0000
0000
0000
ENDCHAR
STARTCHAR char733
ENCODING 733
SWIDTH 416 0
DWIDTH 10 0
BBX 10 24 0 -5
BITMAP
0660
0CC0
1980
0000
0000
0000
0000
0000
0000
0000
0000
0000
0000
0000
0000
0000
0000
0000
0000
0000
0000
0000
0000
0000
ENDCHAR
STARTCHAR char768
ENCODING 768
SWIDTH 416 0
DWIDTH 10 0
BBX 10 24 0 -5
BITMAP
1800
0C00
0600
0000
0000
0000
0000
0000
0000
0000
0000
0000
0000
0000
0000
0000
0000
0000
0000
0000
0000
0000
0000
0000
ENDCHAR
STARTCHAR char769
ENCODING 769
SWIDTH 416 0
DWIDTH 10 0
BBX 10 24 0 -5
BITMAP
0180
0300
0600
0000
0000
0000
0000
0000
0000
0000
0000
0000
0000
0000
0000
0000
0000
0000
0000
0000
0000
0000
0000
0000
ENDCHAR
STARTCHAR char770
ENCODING 770
SWIDTH 416 0
DWIDTH 10 0
BBX 10 24 0 -5
BITMAP
0600
0F00
1980
0000
0000
0000
0000
0000
0000
0000
0000
0000
0000
0000
0000
0000
0000
0000
0000
0000
0000
0000
0000
0000
ENDCHAR
STARTCHAR char771
ENCODING 771
SWIDTH 416 0
DWIDTH 10 0
BBX 10 24 0 -5
BITMAP
1CC0
36C0
3380
0000
0000
0000
0000
0000
0000
0000
0000
0000
0000
0000
0000
0000
0000
0000
0000
0000
0000
0000
0000
0000
ENDCHAR
STARTCHAR char774
ENCODING 774
SWIDTH 416 0
DWIDTH 10 0
BBX 10 24 0 -5
BITMAP
30C0
30C0
1F80
0000
0000
0000
0000
0000
0000
0000
0000
0000
0000
0000
0000
0000
0000
0000
0000
0000
0000
0000
0000
0000
ENDCHAR
STARTCHAR char780
ENCODING 780
SWIDTH 416 0
DWIDTH 10 0
BBX 10 24 0 -5
BITMAP
1980
0F00
0600
0000
0000
0000
0000
0000
0000
0000
0000
0000
0000
0000
0000
0000
0000
0000
0000
0000
0000
0000
0000
0000
ENDCHAR
STARTCHAR char809
ENCODING 809
SWIDTH 416 0
DWIDTH 10 0
BBX 10 24 0 -5
BITMAP
0000
0000
0000
0000
0000
0000
0000
0000
0000
0000
0000
0000
0000
0000
0000
0000
0000
0000
0000
0000
0600
0600
0600
0000
ENDCHAR
STARTCHAR char900
ENCODING 900
SWIDTH 416 0
DWIDTH 10 0
BBX 10 24 0 -5
BITMAP
0000
3000
6000
C000
0000
0000
0000
0000
0000
0000
0000
0000
0000
0000
0000
0000
0000
0000
0000
0000
0000
0000
0000
0000
ENDCHAR
STARTCHAR char901
ENCODING 901
SWIDTH 416 0
DWIDTH 10 0
BBX 10 24 0 -5
BITMAP
0180
0300
0600
0000
1980
1980
1980
0000
0000
0000
0000
0000
0000
0000
0000
0000
0000
0000
0000
0000
0000
0000
0000
0000
ENDCHAR
STARTCHAR char902
ENCODING 902
SWIDTH 416 0
DWIDTH 10 0
BBX 10 24 0 -5
BITMAP
0000
3000
6000
C000
1F80
30C0
6060
6060
6060
6060
6060
6060
7FE0
6060
6060
6060
6060
6060
6060
0000
0000
0000
0000
0000
ENDCHAR
STARTCHAR char903
ENCODING 903
SWIDTH 416 0
DWIDTH 10 0
BBX 10 24 0 -5
BITMAP
0000
0000
0000
0000
0000
0000
0000
0000
0600
0600
0600
0000
0000
0000
0000
0000
0000
0000
0000
0000
0000
0000
0000
0000
ENDCHAR
STARTCHAR char904
ENCODING 904
SWIDTH 416 0
DWIDTH 10 0
BBX 10 24 0 -5
BITMAP
0000
3000
6000
C000
7FE0
6000
6000
6000
6000
6000
6000
7F80
6000
6000
6000
6000
6000
6000
7FE0
0000
0000
0000
0000
0000
ENDCHAR
STARTCHAR char905
ENCODING 905
SWIDTH 416 0
DWIDTH 10 0
BBX 10 24 0 -5
BITMAP
0000
3000
6000
C000
6060
6060
6060
6060
6060
6060
6060
7FE0
6060
6060
6060
6060
6060
6060
6060
0000
0000
0000
0000
0000
ENDCHAR
STARTCHAR char906
ENCODING 906
SWIDTH 416 0
DWIDTH 10 0
BBX 10 24 0 -5
BITMAP
0000
3000
6000
C000
1F80
0600
0600
0600
0600
0600
0600
0600
0600
0600
0600
0600
0600
0600
1F80
0000
0000
0000
0000
0000
ENDCHAR
STARTCHAR char908
ENCODING 908
SWIDTH 416 0
DWIDTH 10 0
BBX 10 24 0 -5
BITMAP
0000
3000
6000
C000
1F80
30C0
6060
6060
6060
6060
6060
6060
6060
6060
6060
6060
6060
30C0
1F80
0000
0000
0000
0000
0000
ENDCHAR
STARTCHAR char910
ENCODING 910
SWIDTH 416 0
DWIDTH 10 0
BBX 10 24 0 -5
BITMAP
0000
3000
6000
C000
3030
3030
1860
1860
0CC0
0CC0
0780
0300
0300
0300
0300
0300
0300
0300
0300
0000
0000
0000
0000
0000
ENDCHAR
STARTCHAR char911
ENCODING 911
SWIDTH 416 0
DWIDTH 10 0
BBX 10 24 0 -5
BITMAP
0000
3000
6000
C000
1F80
30C0
6060
6060
6060
6060
6060
6060
6060
6060
6060
30C0
1980
1980
79E0
0000
0000
0000
0000
0000
ENDCHAR
STARTCHAR char912
ENCODING 912
SWIDTH 416 0
DWIDTH 10 0
BBX 10 24 0 -5
BITMAP
0300
0600
0C00
0000
3300
3300
3300
0000
3C00
0C00
0C00
0C00
0C00
0C00
0C00
0C00
0C00
0C00
0780
0000
0000
0000
0000
0000
ENDCHAR
STARTCHAR char913
ENCODING 913
SWIDTH 416 0
DWIDTH 10 0
BBX 10 24 0 -5
BITMAP
0000
0000
0000
0000
1F80
30C0
6060
6060
6060
6060
6060
6060
7FE0
6060
6060
6060
6060
6060
6060
0000
0000
0000
0000
0000
ENDCHAR
STARTCHAR char914
ENCODING 914
SWIDTH 416 0
DWIDTH 10 0
BBX 10 24 0 -5
BITMAP
0000
0000
0000
0000
7F80
60C0
6060
6060
6060
60C0
7F80
60C0
6060
6060
6060
6060
6060
60C0
7F80
0000
0000
0000
0000
0000
ENDCHAR
STARTCHAR char915
ENCODING 915
SWIDTH 416 0
DWIDTH 10 0
BBX 10 24 0 -5
BITMAP
0000
0000
0000
0000
7FE0
6000
6000
6000
6000
6000
6000
6000
6000
6000
6000
6000
6000
6000
6000
0000
0000
0000
0000
0000
ENDCHAR
STARTCHAR char916
ENCODING 916
SWIDTH 416 0
DWIDTH 10 0
BBX 10 24 0 -5
BITMAP
0000
0000
0000
0000
0600
0600
0600
0F00
0F00
0F00
1980
1980
1980
30C0
30C0
30C0
6060
6060
7FE0
0000
0000
0000
0000
0000
ENDCHAR
STARTCHAR char917
ENCODING 917
SWIDTH 416 0
DWIDTH 10 0
BBX 10 24 0 -5
BITMAP
0000
0000
0000
0000
7FE0
6000
6000
6000
6000
6000
6000
7F80
6000
6000
6000
6000
6000
6000
7FE0
0000
0000
0000
0000
0000
ENDCHAR
STARTCHAR char918
ENCODING 918
SWIDTH 416 0
DWIDTH 10 0
BBX 10 24 0 -5
BITMAP
0000
0000
0000
0000
7FE0
0060
0060
0060
00C0
0180
0300
0600
0C00
1800
3000
6000
6000
6000
7FE0
0000
0000
0000
0000
0000
ENDCHAR
STARTCHAR char919
ENCODING 919
SWIDTH 416 0
DWIDTH 10 0
BBX 10 24 0 -5
BITMAP
0000
0000
0000
0000
6060
6060
6060
6060
6060
6060
6060
7FE0
6060
6060
6060
6060
6060
6060
6060
0000
0000
0000
0000
0000
ENDCHAR
STARTCHAR char920
ENCODING 920
SWIDTH 416 0
DWIDTH 10 0
BBX 10 24 0 -5
BITMAP
0000
0000
0000
0000
1F80
30C0
6060
6060
6060
6060
6060
6F60
6060
6060
6060
6060
6060
30C0
1F80
0000
0000
0000
0000
0000
ENDCHAR
STARTCHAR char921
ENCODING 921
SWIDTH 416 0
DWIDTH 10 0
BBX 10 24 0 -5
BITMAP
0000
0000
0000
0000
1F80
0600
0600
0600
0600
0600
0600
0600
0600
0600
0600
0600
0600
0600
1F80
0000
0000
0000
0000
0000
ENDCHAR
STARTCHAR char922
ENCODING 922
SWIDTH 416 0
DWIDTH 10 0
BBX 10 24 0 -5
BITMAP
0000
0000
0000
0000
6060
60C0
6180
6300
6600
6C00
7800
7000
7800
6C00
6600
6300
6180
60C0
6060
0000
0000
0000
0000
0000
ENDCHAR
STARTCHAR char923
ENCODING 923
SWIDTH 416 0
DWIDTH 10 0
BBX 10 24 0 -5
BITMAP
0000
0000
0000
0000
0600
0600
0600
0F00
0F00
0F00
1980
1980
1980
30C0
30C0
30C0
6060
6060
6060
0000
0000
0000
0000
0000
ENDCHAR
STARTCHAR char924
ENCODING 924
SWIDTH 416 0
DWIDTH 10 0
BBX 10 24 0 -5
BITMAP
0000
0000
0000
0000
8020
C060
E0E0
F1E0
DB60
CE60
C460
C060
C060
C060
C060
C060
C060
C060
C060
0000
0000
0000
0000
0000
ENDCHAR
STARTCHAR char925
ENCODING 925
SWIDTH 416 0
DWIDTH 10 0
BBX 10 24 0 -5
BITMAP
0000
0000
0000
0000
6060
6060
6060
6060
7060
7860
6C60
6660
6360
61E0
60E0
6060
6060
6060
6060
0000
0000
0000
0000
0000
ENDCHAR
STARTCHAR char926
ENCODING 926
SWIDTH 416 0
DWIDTH 10 0
BBX 10 24 0 -5
BITMAP
0000
0000
0000
0000
7FE0
0000
0000
0000
0000
0000
0000
1F80
0000
0000
0000
0000
0000
0000
7FE0
0000
0000
0000
0000
0000
ENDCHAR
STARTCHAR char927
ENCODING 927
SWIDTH 416 0
DWIDTH 10 0
BBX 10 24 0 -5
BITMAP
0000
0000
0000
0000
1F80
30C0
6060
6060
6060
6060
6060
6060
6060
6060
6060
6060
6060
30C0
1F80
0000
0000
0000
0000
0000
ENDCHAR
STARTCHAR char928
ENCODING 928
SWIDTH 416 0
DWIDTH 10 0
BBX 10 24 0 -5
BITMAP
0000
0000
0000
0000
7FE0
6060
6060
6060
6060
6060
6060
6060
6060
6060
6060
6060
6060
6060
6060
0000
0000
0000
0000
0000
ENDCHAR
STARTCHAR char929
ENCODING 929
SWIDTH 416 0
DWIDTH 10 0
BBX 10 24 0 -5
BITMAP
0000
0000
0000
0000
7F80
60C0
6060
6060
6060
6060
60C0
7F80
6000
6000
6000
6000
6000
6000
6000
0000
0000
0000
0000
0000
ENDCHAR
STARTCHAR char931
ENCODING 931
SWIDTH 416 0
DWIDTH 10 0
BBX 10 24 0 -5
BITMAP
0000
0000
0000
0000
7FE0
6000
3000
1800
0C00
0600
0300
0180
0300
0600
0C00
1800
3000
6000
7FE0
0000
0000
0000
0000
0000
ENDCHAR
STARTCHAR char932
ENCODING 932
SWIDTH 416 0
DWIDTH 10 0
BBX 10 24 0 -5
BITMAP
0000
0000
0000
0000
7FE0
0600
0600
0600
0600
0600
0600
0600
0600
0600
0600
0600
0600
0600
0600
0000
0000
0000
0000
0000
ENDCHAR
STARTCHAR char933
ENCODING 933
SWIDTH 416 0
DWIDTH 10 0
BBX 10 24 0 -5
BITMAP
0000
0000
0000
0000
6060
6060
30C0
30C0
1980
1980
0F00
0F00
0600
0600
0600
0600
0600
0600
0600
0000
0000
0000
0000
0000
ENDCHAR
STARTCHAR char934
ENCODING 934
SWIDTH 416 0
DWIDTH 10 0
BBX 10 24 0 -5
BITMAP
0000
0000
0000
0000
0600
1F80
36C0
6660
6660
6660
6660
6660
6660
6660
6660
6660
36C0
1F80
0600
0000
0000
0000
0000
0000
ENDCHAR
STARTCHAR char935
ENCODING 935
SWIDTH 416 0
DWIDTH 10 0
BBX 10 24 0 -5
BITMAP
0000
0000
0000
0000
6060
6060
30C0
30C0
1980
1980
0F00
0600
0F00
1980
1980
30C0
30C0
6060
6060
0000
0000
0000
0000
0000
ENDCHAR
STARTCHAR char936
ENCODING 936
SWIDTH 416 0
DWIDTH 10 0
BBX 10 24 0 -5
BITMAP
0000
0000
0000
0000
6660
6660
6660
6660
6660
6660
6660
6660
6660
6660
36C0
1F80
0600
0600
0600
0000
0000
0000
0000
0000
ENDCHAR
STARTCHAR char937
ENCODING 937
SWIDTH 416 0
DWIDTH 10 0
BBX 10 24 0 -5
BITMAP
0000
1E00
3F00
6180
6180
6180
6180
6180
6180
6180
6180
6180
6180
3300
3300
3300
3300
7380
7380
0000
0000
0000
0000
0000
ENDCHAR
STARTCHAR char938
ENCODING 938
SWIDTH 416 0
DWIDTH 10 0
BBX 10 24 0 -5
BITMAP
1980
1980
1980
0000
1F80
0600
0600
0600
0600
0600
0600
0600
0600
0600
0600
0600
0600
0600
1F80
0000
0000
0000
0000
0000
ENDCHAR
STARTCHAR char939
ENCODING 939
SWIDTH 416 0
DWIDTH 10 0
BBX 10 24 0 -5
BITMAP
1980
1980
1980
0000
6060
6060
30C0
30C0
1980
1980
0F00
0F00
0600
0600
0600
0600
0600
0600
0600
0000
0000
0000
0000
0000
ENDCHAR
STARTCHAR char940
ENCODING 940
SWIDTH 416 0
DWIDTH 10 0
BBX 10 24 0 -5
BITMAP
0000
0000
0000
0000
0300
0600
0C00
0000
3E60
63C0
C180
C180
C180
C180
C180
C180
C180
63C0
3E60
0000
0000
0000
0000
0000
ENDCHAR
STARTCHAR char941
ENCODING 941
SWIDTH 416 0
DWIDTH 10 0
BBX 10 24 0 -5
BITMAP
0000
0000
0000
0000
0180
0300
0600
0000
3FC0
6060
6000
6000
6000
3F00
6000
6000
6000
6060
3FC0
0000
0000
0000
0000
0000
ENDCHAR
STARTCHAR char942
ENCODING 942
SWIDTH 416 0
DWIDTH 10 0
BBX 10 24 0 -5
BITMAP
0000
0000
0000
0000
0180
0300
0600
0000
7F80
60C0
6060
6060
6060
6060
6060
6060
6060
6060
6060
0060
0060
0060
0060
0000
ENDCHAR
STARTCHAR char943
ENCODING 943
SWIDTH 416 0
DWIDTH 10 0
BBX 10 24 0 -5
BITMAP
0000
0000
0000
0000
0300
0600
0C00
0000
3C00
0C00
0C00
0C00
0C00
0C00
0C00
0C00
0C00
0C00
0780
0000
0000
0000
0000
0000
ENDCHAR
STARTCHAR char944
ENCODING 944
SWIDTH 416 0
DWIDTH 10 0
BBX 10 24 0 -5
BITMAP
0180
0300
0600
0000
1980
1980
1980
0000
6060
6060
6060
6060
6060
6060
6060
6060
6060
30C0
1F80
0000
0000
0000
0000
0000
ENDCHAR
STARTCHAR char945
ENCODING 945
SWIDTH 416 0
DWIDTH 10 0
BBX 10 24 0 -5
BITMAP
0000
0000
0000
0000
0000
0000
0000
0000
3E60
63C0
C180
C180
C180
C180
C180
C180
C180
63C0
3E60
0000
0000
0000
0000
0000
ENDCHAR
STARTCHAR char946
ENCODING 946
SWIDTH 416 0
DWIDTH 10 0
BBX 10 24 0 -5
BITMAP
0000
0000
0000
0000
3F00
6180
60C0
60C0
60C0
6180
7F80
60C0
6060
6060
6060
6060
6060
60C0
7F80
6000
6000
6000
6000
0000
ENDCHAR
STARTCHAR char947
ENCODING 947
SWIDTH 416 0
DWIDTH 10 0
BBX 10 24 0 -5
BITMAP
0000
0000
0000
0000
0000
0000
0000
0000
6060
6060
6060
30C0
30C0
30C0
1980
1980
0F00
0F00
0600
0600
0600
0600
0600
0000
ENDCHAR
STARTCHAR char948
ENCODING 948
SWIDTH 416 0
DWIDTH 10 0
BBX 10 24 0 -5
BITMAP
0000
0000
0000
0000
1FC0
0C00
0600
0300
1F80
30C0
6060
6060
6060
6060
6060
6060
6060
30C0
1F80
0000
0000
0000
0000
0000
ENDCHAR
STARTCHAR char949
ENCODING 949
SWIDTH 416 0
DWIDTH 10 0
BBX 10 24 0 -5
BITMAP
0000
0000
0000
0000
0000
0000
0000
0000
3FC0
6060
6000
6000
6000
3F00
6000
6000
6000
6060
3FC0
0000
0000
0000
0000
0000
ENDCHAR
STARTCHAR char950
ENCODING 950
SWIDTH 416 0
DWIDTH 10 0
BBX 10 24 0 -5
BITMAP
0000
0000
0000
0000
7FE0
00C0
0180
0300
0600
0C00
1800
3000
6000
6000
6000
6000
6000
3000
1FC0
0060
0060
0060
01C0
0000
ENDCHAR
STARTCHAR char951
ENCODING 951
SWIDTH 416 0
DWIDTH 10 0
BBX 10 24 0 -5
BITMAP
0000
0000
0000
0000
0000
0000
0000
0000
7F80
60C0
6060
6060
6060
6060
6060
6060
6060
6060
6060
0060
0060
0060
0060
0000
ENDCHAR
STARTCHAR char952
ENCODING 952
SWIDTH 416 0
DWIDTH 10 0
BBX 10 24 0 -5
BITMAP
0000
0000
0000
0000
1F00
3180
60C0
60C0
60C0
60C0
60C0
7FC0
60C0
60C0
60C0
60C0
60C0
3180
1F00
0000
0000
0000
0000
0000
ENDCHAR
STARTCHAR char953
ENCODING 953
SWIDTH 416 0
DWIDTH 10 0
BBX 10 24 0 -5
BITMAP
0000
0000
0000
0000
0000
0000
0000
0000
3C00
0C00
0C00
0C00
0C00
0C00
0C00
0C00
0C00
0C00
0780
0000
0000
0000
0000
0000
ENDCHAR
STARTCHAR char954
ENCODING 954
SWIDTH 416 0
DWIDTH 10 0
BBX 10 24 0 -5
BITMAP
0000
0000
0000
0000
0000
0000
0000
0000
3060
30C0
3180
3300
3600
3C00
3600
3300
3180
30C0
3060
0000
0000
0000
0000
0000
ENDCHAR
STARTCHAR char955
ENCODING 955
SWIDTH 416 0
DWIDTH 10 0
BBX 10 24 0 -5
BITMAP
0000
0000
0000
0000
1800
1800
0C00
0C00
0600
0600
0F00
0F00
1980
1980
30C0
30C0
6060
6060
6060
0000
0000
0000
0000
0000
ENDCHAR
STARTCHAR char956
ENCODING 956
SWIDTH 416 0
DWIDTH 10 0
BBX 10 24 0 -5
BITMAP
0000
0000
0000
0000
0000
0000
0000
0000
6060
6060
6060
6060
6060
6060
6060
6060
60E0
61E0
7F60
6000
6000
6000
6000
0000
ENDCHAR
STARTCHAR char957
ENCODING 957
SWIDTH 416 0
DWIDTH 10 0
BBX 10 24 0 -5
BITMAP
0000
0000
0000
0000
0000
0000
0000
0000
6060
6060
6060
30C0
30C0
1980
1980
0F00
0F00
0600
0600
0000
0000
0000
0000
0000
ENDCHAR
STARTCHAR char958
ENCODING 958
SWIDTH 416 0
DWIDTH 10 0
BBX 10 24 0 -5
BITMAP
0000
0000
0000
0000
1FE0
3000
6000
6000
6000
3000
1FC0
3000
6000
6000
6000
6000
6000
3000
1FC0
0060
0060
0060
01C0
0000
ENDCHAR
STARTCHAR char959
ENCODING 959
SWIDTH 416 0
DWIDTH 10 0
BBX 10 24 0 -5
BITMAP
0000
0000
0000
0000
0000
0000
0000
0000
1F80
30C0
6060
6060
6060
6060
6060
6060
6060
30C0
1F80
0000
0000
0000
0000
0000
ENDCHAR
STARTCHAR char960
ENCODING 960
SWIDTH 416 0
DWIDTH 10 0
BBX 10 24 0 -5
BITMAP
0000
0000
0000
0000
0000
0000
0000
0000
7FE0
6060
6060
6060
6060
6060
6060
6060
6060
6060
6060
0000
0000
0000
0000
0000
ENDCHAR
STARTCHAR char961
ENCODING 961
SWIDTH 416 0
DWIDTH 10 0
BBX 10 24 0 -5
BITMAP
0000
0000
0000
0000
0000
0000
0000
0000
1F80
30C0
6060
6060
6060
6060
6060
6060
6060
60C0
7F80
6000
6000
6000
6000
0000
ENDCHAR
STARTCHAR char962
ENCODING 962
SWIDTH 416 0
DWIDTH 10 0
BBX 10 24 0 -5
BITMAP
0000
0000
0000
0000
0000
0000
0000
0000
1F80
30C0
6060
6000
6000
6000
6000
6000
6000
3000
1FC0
0060
0060
0060
01C0
0000
ENDCHAR
STARTCHAR char963
ENCODING 963
SWIDTH 416 0
DWIDTH 10 0
BBX 10 24 0 -5
BITMAP
0000
0000
0000
0000
0000
0000
0000
0000
1FF0
3180
60C0
6060
6060
6060
6060
6060
6060
30C0
1F80
0000
0000
0000
0000
0000
ENDCHAR
STARTCHAR char964
ENCODING 964
SWIDTH 416 0
DWIDTH 10 0
BBX 10 24 0 -5
BITMAP
0000
0000
0000
0000
0000
0000
0000
0000
7FE0
0600
0600
0600
0600
0600
0600
0600
0600
0600
03C0
0000
0000
0000
0000
0000
ENDCHAR
STARTCHAR char965
ENCODING 965
SWIDTH 416 0
DWIDTH 10 0
BBX 10 24 0 -5
BITMAP
0000
0000
0000
0000
0000
0000
0000
0000
6060
6060
6060
6060
6060
6060
6060
6060
6060
30C0
1F80
0000
0000
0000
0000
0000
ENDCHAR
STARTCHAR char966
ENCODING 966
SWIDTH 416 0
DWIDTH 10 0
BBX 10 24 0 -5
BITMAP
0000
0000
0000
0000
0000
0000
0000
0000
33C0
6660
6660
6660
6660
6660
6660
6660
6660
36C0
1F80
0600
0600
0600
0600
0000
ENDCHAR
STARTCHAR char967
ENCODING 967
SWIDTH 416 0
DWIDTH 10 0
BBX 10 24 0 -5
BITMAP
0000
0000
0000
0000
0000
0000
0000
0000
6060
6060
30C0
30C0
1980
1980
0F00
0600
0F00
1980
1980
30C0
30C0
6060
6060
0000
ENDCHAR
STARTCHAR char968
ENCODING 968
SWIDTH 416 0
DWIDTH 10 0
BBX 10 24 0 -5
BITMAP
0000
0000
0000
0000
0000
0000
0000
0000
6660
6660
6660
6660
6660
6660
6660
6660
6660
36C0
1F80
0600
0600
0600
0600
0000
ENDCHAR
STARTCHAR char969
ENCODING 969
SWIDTH 416 0
DWIDTH 10 0
BBX 10 24 0 -5
BITMAP
0000
0000
0000
0000
0000
0000
0000
0000
30C0
6060
6060
6060
6660
6660
6660
6660
6660
6F60
39C0
0000
0000
0000
0000
0000
ENDCHAR
STARTCHAR char970
ENCODING 970
SWIDTH 416 0
DWIDTH 10 0
BBX 10 24 0 -5
BITMAP
0000
0000
0000
0000
3300
3300
3300
0000
3C00
0C00
0C00
0C00
0C00
0C00
0C00
0C00
0C00
0C00
0780
0000
0000
0000
0000
0000
ENDCHAR
STARTCHAR char971
ENCODING 971
SWIDTH 416 0
DWIDTH 10 0
BBX 10 24 0 -5
BITMAP
0000
0000
0000
0000
1980
1980
1980
0000
6060
6060
6060
6060
6060
6060
6060
6060
6060
30C0
1F80
0000
0000
0000
0000
0000
ENDCHAR
STARTCHAR char972
ENCODING 972
SWIDTH 416 0
DWIDTH 10 0
BBX 10 24 0 -5
BITMAP
0000
0000
0000
0000
0180
0300
0600
0000
1F80
30C0
6060
6060
6060
6060
6060
6060
6060
30C0
1F80
0000
0000
0000
0000
0000
ENDCHAR
STARTCHAR char973
ENCODING 973
SWIDTH 416 0
DWIDTH 10 0
BBX 10 24 0 -5
BITMAP
0000
0000
0000
0000
0180
0300
0600
0000
6060
6060
6060
6060
6060
6060
6060
6060
6060
30C0
1F80
0000
0000
0000
0000
0000
ENDCHAR
STARTCHAR char974
ENCODING 974
SWIDTH 416 0
DWIDTH 10 0
BBX 10 24 0 -5
BITMAP
0000
0000
0000
0000
0180
0300
0600
0000
30C0
6060
6060
6060
6660
6660
6660
6660
6660
6F60
39C0
0000
0000
0000
0000
0000
ENDCHAR
STARTCHAR char1011
ENCODING 1011
SWIDTH 416 0
DWIDTH 10 0
BBX 10 24 0 -5
BITMAP
0000
0000
0000
0000
00C0
00C0
00C0
0000
03C0
00C0
00C0
00C0
00C0
00C0
00C0
00C0
00C0
00C0
00C0
30C0
30C0
1980
0F00
0000
ENDCHAR
STARTCHAR char1024
ENCODING 1024
SWIDTH 416 0
DWIDTH 10 0
BBX 10 24 0 -5
BITMAP
1800
0C00
0600
0000
7FE0
6000
6000
6000
6000
6000
6000
7F80
6000
6000
6000
6000
6000
6000
7FE0
0000
0000
0000
0000
0000
ENDCHAR
STARTCHAR char1025
ENCODING 1025
SWIDTH 416 0
DWIDTH 10 0
BBX 10 24 0 -5
BITMAP
1980
1980
1980
0000
7FE0
6000
6000
6000
6000
6000
6000
7F80
6000
6000
6000
6000
6000
6000
7FE0
0000
0000
0000
0000
0000
ENDCHAR
STARTCHAR char1026
ENCODING 1026
SWIDTH 416 0
DWIDTH 10 0
BBX 10 24 0 -5
BITMAP
0000
0000
0000
0000
FC00
3000
3000
3000
3000
3FC0
3060
3060
3060
3060
3060
3060
3060
3060
3060
0060
00C0
0180
0000
0000
ENDCHAR
STARTCHAR char1027
ENCODING 1027
SWIDTH 416 0
DWIDTH 10 0
BBX 10 24 0 -5
BITMAP
0180
0300
0600
0000
7FE0
6000
6000
6000
6000
6000
6000
6000
6000
6000
6000
6000
6000
6000
6000
0000
0000
0000
0000
0000
ENDCHAR
STARTCHAR char1028
ENCODING 1028
SWIDTH 416 0
DWIDTH 10 0
BBX 10 24 0 -5
BITMAP
0000
0000
0000
0000
1F80
30C0
6060
6000
6000
6000
6000
7F00
6000
6000
6000
6000
6060
30C0
1F80
0000
0000
0000
0000
0000
ENDCHAR
STARTCHAR char1029
ENCODING 1029
SWIDTH 416 0
DWIDTH 10 0
BBX 10 24 0 -5
BITMAP
0000
0000
0000
0000
1F80
30C0
6060
6000
6000
6000
3000
1F80
00C0
0060
0060
0060
6060
30C0
1F80
0000
0000
0000
0000
0000
ENDCHAR
STARTCHAR char1030
ENCODING 1030
SWIDTH 416 0
DWIDTH 10 0
BBX 10 24 0 -5
BITMAP
0000
0000
0000
0000
1F80
0600
0600
0600
0600
0600
0600
0600
0600
0600
0600
0600
0600
0600
1F80
0000
0000
0000
0000
0000
ENDCHAR
STARTCHAR char1031
ENCODING 1031
SWIDTH 416 0
DWIDTH 10 0
BBX 10 24 0 -5
BITMAP
1980
1980
1980
0000
1F80
0600
0600
0600
0600
0600
0600
0600
0600
0600
0600
0600
0600
0600
1F80
0000
0000
0000
0000
0000
ENDCHAR
STARTCHAR char1032
ENCODING 1032
SWIDTH 416 0
DWIDTH 10 0
BBX 10 24 0 -5
BITMAP
0000
0000
0000
0000
03F0
00C0
00C0
00C0
00C0
00C0
00C0
00C0
00C0
00C0
60C0
60C0
60C0
3180
1F00
0000
0000
0000
0000
0000
ENDCHAR
STARTCHAR char1033
ENCODING 1033
SWIDTH 416 0
DWIDTH 10 0
BBX 10 24 0 -5
BITMAP
0000
0000
0000
0000
3E00
6600
C600
C600
C600
C600
C7C0
C660
C630
C630
C630
C630
C630
C660
87C0
0000
0000
0000
0000
0000
ENDCHAR
STARTCHAR char1034
ENCODING 1034
SWIDTH 416 0
DWIDTH 10 0
BBX 10 24 0 -5
BITMAP
0000
0000
0000
0000
C600
C600
C600
C600
C600
C600
C7C0
FE60
C630
C630
C630
C630
C630
C660
C7C0
0000
0000
0000
0000
0000
ENDCHAR
STARTCHAR char1035
ENCODING 1035
SWIDTH 416 0
DWIDTH 10 0
BBX 10 24 0 -5
BITMAP
0000
0000
0000
0000
FC00
3000
3000
3000
3000
3FC0
3060
3060
3060
3060
3060
3060
3060
3060
3060
0000
0000
0000
0000
0000
ENDCHAR
STARTCHAR char1036
ENCODING 1036
SWIDTH 416 0
DWIDTH 10 0
BBX 10 24 0 -5
BITMAP
0180
0300
0600
0000
6060
60C0
6180
6300
6600
6C00
7800
7000
7800
6C00
6600
6300
6180
60C0
6060
0000
0000
0000
0000
0000
ENDCHAR
STARTCHAR char1037
ENCODING 1037
SWIDTH 416 0
DWIDTH 10 0
BBX 10 24 0 -5
BITMAP
1800
0C00
0600
0000
6060
6060
6060
6060
60E0
61E0
6360
6660
6C60
7860
7060
6060
6060
6060
6060
0000
0000
0000
0000
0000
ENDCHAR
STARTCHAR char1038
ENCODING 1038
SWIDTH 416 0
DWIDTH 10 0
BBX 10 24 0 -5
BITMAP
30C0
30C0
1F80
0000
6060
6060
6060
6060
6060
6060
6060
3060
1FE0
0060
0060
0060
0060
00C0
3F80
0000
0000
0000
0000
0000
ENDCHAR
STARTCHAR char1039
ENCODING 1039
SWIDTH 416 0
DWIDTH 10 0
BBX 10 24 0 -5
BITMAP
0000
0000
0000
0000
6060
6060
6060
6060
6060
6060
6060
6060
6060
6060
6060
6060
6060
6060
7FE0
0600
0600
0600
0000
0000
ENDCHAR
STARTCHAR char1040
ENCODING 1040
SWIDTH 416 0
DWIDTH 10 0
BBX 10 24 0 -5
BITMAP
0000
0000
0000
0000
1F80
30C0
6060
6060
6060
6060
6060
6060
7FE0
6060
6060
6060
6060
6060
6060
0000
0000
0000
0000
0000
ENDCHAR
STARTCHAR char1041
ENCODING 1041
SWIDTH 416 0
DWIDTH 10 0
BBX 10 24 0 -5
BITMAP
0000
0000
0000
0000
7FC0
6000
6000
6000
6000
6000
7F80
60C0
6060
6060
6060
6060
6060
60C0
7F80
0000
0000
0000
0000
0000
ENDCHAR
STARTCHAR char1042
ENCODING 1042
SWIDTH 416 0
DWIDTH 10 0
BBX 10 24 0 -5
BITMAP
0000
0000
0000
0000
7F80
60C0
6060
6060
6060
60C0
7F80
60C0
6060
6060
6060
6060
6060
60C0
7F80
0000
0000
0000
0000
0000
ENDCHAR
STARTCHAR char1043
ENCODING 1043
SWIDTH 416 0
DWIDTH 10 0
BBX 10 24 0 -5
BITMAP
0000
0000
0000
0000
7FE0
6000
6000
6000
6000
6000
6000
6000
6000
6000
6000
6000
6000
6000
6000
0000
0000
0000
0000
0000
ENDCHAR
STARTCHAR char1044
ENCODING 1044
SWIDTH 416 0
DWIDTH 10 0
BBX 10 24 0 -5
BITMAP
0000
0000
0000
0000
0FC0
18C0
30C0
30C0
30C0
30C0
30C0
30C0
30C0
30C0
30C0
30C0
30C0
70C0
FFE0
C060
C060
C060
0000
0000
ENDCHAR
STARTCHAR char1045
ENCODING 1045
SWIDTH 416 0
DWIDTH 10 0
BBX 10 24 0 -5
BITMAP
0000
0000
0000
0000
7FE0
6000
6000
6000
6000
6000
6000
7F80
6000
6000
6000
6000
6000
6000
7FE0
0000
0000
0000
0000
0000
ENDCHAR
STARTCHAR char1046
ENCODING 1046
SWIDTH 416 0
DWIDTH 10 0
BBX 10 24 0 -5
BITMAP
0000
0000
0000
0000
6660
6660
6660
6660
6660
36C0
1F80
0F00
1F80
36C0
6660
6660
6660
6660
6660
0000
0000
0000
0000
0000
ENDCHAR
STARTCHAR char1047
ENCODING 1047
SWIDTH 416 0
DWIDTH 10 0
BBX 10 24 0 -5
BITMAP
0000
0000
0000
0000
1F80
30C0
6060
0060
0060
0060
00C0
0F80
00C0
0060
0060
0060
6060
30C0
1F80
0000
0000
0000
0000
0000
ENDCHAR
STARTCHAR char1048
ENCODING 1048
SWIDTH 416 0
DWIDTH 10 0
BBX 10 24 0 -5
BITMAP
0000
0000
0000
0000
6060
6060
6060
6060
60E0
61E0
6360
6660
6C60
7860
7060
6060
6060
6060
6060
0000
0000
0000
0000
0000
ENDCHAR
STARTCHAR char1049
ENCODING 1049
SWIDTH 416 0
DWIDTH 10 0
BBX 10 24 0 -5
BITMAP
30C0
30C0
1F80
0000
6060
6060
6060
6060
60E0
61E0
6360
6660
6C60
7860
7060
6060
6060
6060
6060
0000
0000
0000
0000
0000
ENDCHAR
STARTCHAR char1050
ENCODING 1050
SWIDTH 416 0
DWIDTH 10 0
BBX 10 24 0 -5
BITMAP
0000
0000
0000
0000
6060
60C0
6180
6300
6600
6C00
7800
7000
7800
6C00
6600
6300
6180
60C0
6060
0000
0000
0000
0000
0000
ENDCHAR
STARTCHAR char1051
ENCODING 1051
SWIDTH 416 0
DWIDTH 10 0
BBX 10 24 0 -5
BITMAP
0000
0000
0000
0000
0FE0
1860
3060
3060
3060
3060
3060
3060
3060
3060
3060
3060
3060
6060
C060
0000
0000
0000
0000
0000
ENDCHAR
STARTCHAR char1052
ENCODING 1052
SWIDTH 416 0
DWIDTH 10 0
BBX 10 24 0 -5
BITMAP
0000
0000
0000
0000
8020
C060
E0E0
F1E0
DB60
CE60
C460
C060
C060
C060
C060
C060
C060
C060
C060
0000
0000
0000
0000
0000
ENDCHAR
STARTCHAR char1053
ENCODING 1053
SWIDTH 416 0
DWIDTH 10 0
BBX 10 24 0 -5
BITMAP
0000
0000
0000
0000
6060
6060
6060
6060
6060
6060
6060
7FE0
6060
6060
6060
6060
6060
6060
6060
0000
0000
0000
0000
0000
ENDCHAR
STARTCHAR char1054
ENCODING 1054
SWIDTH 416 0
DWIDTH 10 0
BBX 10 24 0 -5
BITMAP
0000
0000
0000
0000
1F80
30C0
6060
6060
6060
6060
6060
6060
6060
6060
6060
6060
6060
30C0
1F80
0000
0000
0000
0000
0000
ENDCHAR
STARTCHAR char1055
ENCODING 1055
SWIDTH 416 0
DWIDTH 10 0
BBX 10 24 0 -5
BITMAP
0000
0000
0000
0000
7FE0
6060
6060
6060
6060
6060
6060
6060
6060
6060
6060
6060
6060
6060
6060
0000
0000
0000
0000
0000
ENDCHAR
STARTCHAR char1056
ENCODING 1056
SWIDTH 416 0
DWIDTH 10 0
BBX 10 24 0 -5
BITMAP
0000
0000
0000
0000
7F80
60C0
6060
6060
6060
6060
60C0
7F80
6000
6000
6000
6000
6000
6000
6000
0000
0000
0000
0000
0000
ENDCHAR
STARTCHAR char1057
ENCODING 1057
SWIDTH 416 0
DWIDTH 10 0
BBX 10 24 0 -5
BITMAP
0000
0000
0000
0000
1F80
30C0
6060
6060
6000
6000
6000
6000
6000
6000
6000
6060
6060
30C0
1F80
0000
0000
0000
0000
0000
ENDCHAR
STARTCHAR char1058
ENCODING 1058
SWIDTH 416 0
DWIDTH 10 0
BBX 10 24 0 -5
BITMAP
0000
0000
0000
0000
7FE0
0600
0600
0600
0600
0600
0600
0600
0600
0600
0600
0600
0600
0600
0600
0000
0000
0000
0000
0000
ENDCHAR
STARTCHAR char1059
ENCODING 1059
SWIDTH 416 0
DWIDTH 10 0
BBX 10 24 0 -5
BITMAP
0000
0000
0000
0000
6060
6060
6060
6060
6060
6060
6060
3060
1FE0
0060
0060
0060
0060
00C0
3F80
0000
0000
0000
0000
0000
ENDCHAR
STARTCHAR char1060
ENCODING 1060
SWIDTH 416 0
DWIDTH 10 0
BBX 10 24 0 -5
BITMAP
0000
0000
0000
0600
1F80
36C0
6660
6660
6660
6660
6660
6660
6660
6660
6660
6660
6660
36C0
1F80
0600
0000
0000
0000
0000
ENDCHAR
STARTCHAR char1061
ENCODING 1061
SWIDTH 416 0
DWIDTH 10 0
BBX 10 24 0 -5
BITMAP
0000
0000
0000
0000
6060
6060
30C0
30C0
1980
1980
0F00
0600
0F00
1980
1980
30C0
30C0
6060
6060
0000
0000
0000
0000
0000
ENDCHAR
STARTCHAR char1062
ENCODING 1062
SWIDTH 416 0
DWIDTH 10 0
BBX 10 24 0 -5
BITMAP
0000
0000
0000
0000
6060
6060
6060
6060
6060
6060
6060
6060
6060
6060
6060
6060
6060
3060
1FF0
0030
0030
0030
0000
0000
ENDCHAR
STARTCHAR char1063
ENCODING 1063
SWIDTH 416 0
DWIDTH 10 0
BBX 10 24 0 -5
BITMAP
0000
0000
0000
0000
6060
6060
6060
6060
6060
6060
3060
1FE0
0060
0060
0060
0060
0060
0060
0060
0000
0000
0000
0000
0000
ENDCHAR
STARTCHAR char1064
ENCODING 1064
SWIDTH 416 0
DWIDTH 10 0
BBX 10 24 0 -5
BITMAP
0000
0000
0000
0000
6660
6660
6660
6660
6660
6660
6660
6660
6660
6660
6660
6660
6660
3660
1FE0
0000
0000
0000
0000
0000
ENDCHAR
STARTCHAR char1065
ENCODING 1065
SWIDTH 416 0
DWIDTH 10 0
BBX 10 24 0 -5
BITMAP
0000
0000
0000
0000
6660
6660
6660
6660
6660
6660
6660
6660
6660
6660
6660
6660
6660
3660
1FF0
0030
0030
0030
0000
0000
ENDCHAR
STARTCHAR char1066
ENCODING 1066
SWIDTH 416 0
DWIDTH 10 0
BBX 10 24 0 -5
BITMAP
0000
0000
0000
0000
E000
E000
6000
6000
6000
7F80
60C0
6060
6060
6060
6060
6060
6060
60C0
7F80
0000
0000
0000
0000
0000
ENDCHAR
STARTCHAR char1067
ENCODING 1067
SWIDTH 416 0
DWIDTH 10 0
BBX 10 24 0 -5
BITMAP
0000
0000
0000
0000
C060
C060
C060
C060
C060
FC60
C660
C360
C360
C360
C360
C360
C360
C660
FC60
0000
0000
0000
0000
0000
ENDCHAR
STARTCHAR char1068
ENCODING 1068
SWIDTH 416 0
DWIDTH 10 0
BBX 10 24 0 -5
BITMAP
0000
0000
0000
0000
6000
6000
6000
6000
6000
7F80
60C0
6060
6060
6060
6060
6060
6060
60C0
7F80
0000
0000
0000
0000
0000
ENDCHAR
STARTCHAR char1069
ENCODING 1069
SWIDTH 416 0
DWIDTH 10 0
BBX 10 24 0 -5
BITMAP
0000
0000
0000
0000
1F80
30C0
6060
0060
0060
0060
0060
0FE0
0060
0060
0060
0060
6060
30C0
1F80
0000
0000
0000
0000
0000
ENDCHAR
STARTCHAR char1070
ENCODING 1070
SWIDTH 416 0
DWIDTH 10 0
BBX 10 24 0 -5
BITMAP
0000
0000
0000
0000
C7C0
CC60
CC60
CC60
CC60
CC60
CC60
FC60
CC60
CC60
CC60
CC60
CC60
CC60
C7C0
0000
0000
0000
0000
0000
ENDCHAR
STARTCHAR char1071
ENCODING 1071
SWIDTH 416 0
DWIDTH 10 0
BBX 10 24 0 -5
BITMAP
0000
0000
0000
0000
1FE0
3060
6060
6060
6060
6060
3060
1FE0
01E0
0360
0660
0C60
1860
3060
6060
0000
0000
0000
0000
0000
ENDCHAR
STARTCHAR char1072
ENCODING 1072
SWIDTH 416 0
DWIDTH 10 0
BBX 10 24 0 -5
BITMAP
0000
0000
0000
0000
0000
0000
0000
0000
3F80
00C0
0060
0060
1FE0
3060
6060
6060
6060
3060
1FE0
0000
0000
0000
0000
0000
ENDCHAR
STARTCHAR char1073
ENCODING 1073
SWIDTH 416 0
DWIDTH 10 0
BBX 10 24 0 -5
BITMAP
0000
0000
0000
0000
1FC0
3000
6000
6000
6000
7F80
60C0
6060
6060
6060
6060
6060
6060
60C0
7F80
0000
0000
0000
0000
0000
ENDCHAR
STARTCHAR char1074
ENCODING 1074
SWIDTH 416 0
DWIDTH 10 0
BBX 10 24 0 -5
BITMAP
0000
0000
0000
0000
3F00
6180
60C0
60C0
60C0
6180
7F80
60C0
6060
6060
6060
6060
6060
60C0
7F80
0000
0000
0000
0000
0000
ENDCHAR
STARTCHAR char1075
ENCODING 1075
SWIDTH 416 0
DWIDTH 10 0
BBX 10 24 0 -5
BITMAP
0000
0000
0000
0000
0000
0000
0000
0000
3FC0
0060
0060
0060
0060
3FC0
6000
6000
6000
6000
3FC0
0000
0000
0000
0000
0000
ENDCHAR
STARTCHAR char1076
ENCODING 1076
SWIDTH 416 0
DWIDTH 10 0
BBX 10 24 0 -5
BITMAP
0000
0000
0000
0000
0000
0000
0000
0000
1FE0
3060
6060
6060
6060
6060
6060
6060
6060
30E0
1FE0
0060
0060
00C0
3F80
0000
ENDCHAR
STARTCHAR char1077
ENCODING 1077
SWIDTH 416 0
DWIDTH 10 0
BBX 10 24 0 -5
BITMAP
0000
0000
0000
0000
0000
0000
0000
0000
1F80
30C0
6060
6060
6060
7FE0
6000
6000
6000
3060
1FC0
0000
0000
0000
0000
0000
ENDCHAR
STARTCHAR char1078
ENCODING 1078
SWIDTH 416 0
DWIDTH 10 0
BBX 10 24 0 -5
BITMAP
0000
0000
0000
0000
0000
0000
0000
0000
6660
6660
6660
36C0
1F80
0F00
1F80
36C0
6660
6660
6660
0000
0000
0000
0000
0000
ENDCHAR
STARTCHAR char1079
ENCODING 1079
SWIDTH 416 0
DWIDTH 10 0
BBX 10 24 0 -5
BITMAP
0000
0000
0000
0000
0000
0000
0000
0000
3FC0
6060
0060
0060
0060
0FC0
0060
0060
0060
6060
3FC0
0000
0000
0000
0000
0000
ENDCHAR
STARTCHAR char1080
ENCODING 1080
SWIDTH 416 0
DWIDTH 10 0
BBX 10 24 0 -5
BITMAP
0000
0000
0000
0000
0000
0000
0000
0000
6060
6060
6060
6060
6060
6060
6060
6060
6060
3060
1FE0
0000
0000
0000
0000
0000
ENDCHAR
STARTCHAR char1081
ENCODING 1081
SWIDTH 416 0
DWIDTH 10 0
BBX 10 24 0 -5
BITMAP
0000
0000
0000
0000
30C0
30C0
1F80
0000
6060
6060
6060
6060
6060
6060
6060
6060
6060
3060
1FE0
0000
0000
0000
0000
0000
ENDCHAR
STARTCHAR char1082
ENCODING 1082
SWIDTH 416 0
DWIDTH 10 0
BBX 10 24 0 -5
BITMAP
0000
0000
0000
0000
0000
0000
0000
0000
3060
30C0
3180
3300
3600
3C00
3600
3300
3180
30C0
3060
0000
0000
0000
0000
0000
ENDCHAR
STARTCHAR char1083
ENCODING 1083
SWIDTH 416 0
DWIDTH 10 0
BBX 10 24 0 -5
BITMAP
0000
0000
0000
0000
0000
0000
0000
0000
0FE0
1860
3060
3060
3060
3060
3060
3060
3060
3060
6060
0000
0000
0000
0000
0000
ENDCHAR
STARTCHAR char1084
ENCODING 1084
SWIDTH 416 0
DWIDTH 10 0
BBX 10 24 0 -5
BITMAP
0000
0000
0000
0000
0000
0000
0000
0000
4020
6060
70E0
79E0
6F60
6660
6060
6060
6060
6060
6060
0000
0000
0000
0000
0000
ENDCHAR
STARTCHAR char1085
ENCODING 1085
SWIDTH 416 0
DWIDTH 10 0
BBX 10 24 0 -5
BITMAP
0000
0000
0000
0000
0000
0000
0000
0000
6060
6060
6060
6060
6060
7FE0
6060
6060
6060
6060
6060
0000
0000
0000
0000
0000
ENDCHAR
STARTCHAR char1086
ENCODING 1086
SWIDTH 416 0
DWIDTH 10 0
BBX 10 24 0 -5
BITMAP
0000
0000
0000
0000
0000
0000
0000
0000
1F80
30C0
6060
6060
6060
6060
6060
6060
6060
30C0
1F80
0000
0000
0000
0000
0000
ENDCHAR
STARTCHAR char1087
ENCODING 1087
SWIDTH 416 0
DWIDTH 10 0
BBX 10 24 0 -5
BITMAP
0000
0000
0000
0000
0000
0000
0000
0000
7FE0
6060
6060
6060
6060
6060
6060
6060
6060
6060
6060
0000
0000
0000
0000
0000
ENDCHAR
STARTCHAR char1088
ENCODING 1088
SWIDTH 416 0
DWIDTH 10 0
BBX 10 24 0 -5
BITMAP
0000
0000
0000
0000
0000
0000
0000
0000
7F80
60C0
6060
6060
6060
6060
6060
6060
6060
60C0
7F80
6000
6000
6000
6000
0000
ENDCHAR
STARTCHAR char1089
ENCODING 1089
SWIDTH 416 0
DWIDTH 10 0
BBX 10 24 0 -5
BITMAP
0000
0000
0000
0000
0000
0000
0000
0000
1F80
30C0
6060
6000
6000
6000
6000
6000
6060
30C0
1F80
0000
0000
0000
0000
0000
ENDCHAR
STARTCHAR char1090
ENCODING 1090
SWIDTH 416 0
DWIDTH 10 0
BBX 10 24 0 -5
BITMAP
0000
0000
0000
0000
0000
0000
0000
0000
7FE0
0600
0600
0600
0600
0600
0600
0600
0600
0600
0600
0000
0000
0000
0000
0000
ENDCHAR
STARTCHAR char1091
ENCODING 1091
SWIDTH 416 0
DWIDTH 10 0
BBX 10 24 0 -5
BITMAP
0000
0000
0000
0000
0000
0000
0000
0000
6060
6060
6060
6060
6060
6060
6060
6060
6060
30E0
1FE0
0060
0060
00C0
3F80
0000
ENDCHAR
STARTCHAR char1092
ENCODING 1092
SWIDTH 416 0
DWIDTH 10 0
BBX 10 24 0 -5
BITMAP
0000
0000
0000
0000
0000
0000
0600
0600
1F80
36C0
6660
6660
6660
6660
6660
6660
6660
36C0
1F80
0600
0600
0000
0000
0000
ENDCHAR
STARTCHAR char1093
ENCODING 1093
SWIDTH 416 0
DWIDTH 10 0
BBX 10 24 0 -5
BITMAP
0000
0000
0000
0000
0000
0000
0000
0000
6060
6060
30C0
1980
0F00
0600
0F00
1980
30C0
6060
6060
0000
0000
0000
0000
0000
ENDCHAR
STARTCHAR char1094
ENCODING 1094
SWIDTH 416 0
DWIDTH 10 0
BBX 10 24 0 -5
BITMAP
0000
0000
0000
0000
0000
0000
0000
0000
6060
6060
6060
6060
6060
6060
6060
6060
6060
3060
1FF0
0030
0030
0030
0000
0000
ENDCHAR
STARTCHAR char1095
ENCODING 1095
SWIDTH 416 0
DWIDTH 10 0
BBX 10 24 0 -5
BITMAP
0000
0000
0000
0000
0000
0000
0000
0000
6060
6060
6060
6060
3060
1FE0
0060
0060
0060
0060
0060
0000
0000
0000
0000
0000
ENDCHAR
STARTCHAR char1096
ENCODING 1096
SWIDTH 416 0
DWIDTH 10 0
BBX 10 24 0 -5
BITMAP
0000
0000
0000
0000
0000
0000
0000
0000
6660
6660
6660
6660
6660
6660
6660
6660
6660
3660
1FE0
0000
0000
0000
0000
0000
ENDCHAR
STARTCHAR char1097
ENCODING 1097
SWIDTH 416 0
DWIDTH 10 0
BBX 10 24 0 -5
BITMAP
0000
0000
0000
0000
0000
0000
0000
0000
6660
6660
6660
6660
6660
6660
6660
6660
6660
3660
1FF0
0030
0030
0030
0000
0000
ENDCHAR
STARTCHAR char1098
ENCODING 1098
SWIDTH 416 0
DWIDTH 10 0
BBX 10 24 0 -5
BITMAP
0000
0000
0000
0000
0000
0000
0000
0000
7000
7000
3000
3F80
30C0
3060
3060
3060
3060
30C0
3F80
0000
0000
0000
0000
0000
ENDCHAR
STARTCHAR char1099
ENCODING 1099
SWIDTH 416 0
DWIDTH 10 0
BBX 10 24 0 -5
BITMAP
0000
0000
0000
0000
0000
0000
0000
0000
6060
6060
6060
7C60
6660
6360
6360
6360
6360
6660
7C60
0000
0000
0000
0000
0000
ENDCHAR
STARTCHAR char1100
ENCODING 1100
SWIDTH 416 0
DWIDTH 10 0
BBX 10 24 0 -5
BITMAP
0000
0000
0000
0000
0000
0000
0000
0000
6000
6000
6000
7F00
6180
60C0
60C0
60C0
60C0
6180
7F00
0000
0000
0000
0000
0000
ENDCHAR
STARTCHAR char1101
ENCODING 1101
SWIDTH 416 0
DWIDTH 10 0
BBX 10 24 0 -5
BITMAP
0000
0000
0000
0000
0000
0000
0000
0000
1F80
30C0
6060
0060
0060
0FE0
0060
0060
6060
30C0
1F80
0000
0000
0000
0000
0000
ENDCHAR
STARTCHAR char1102
ENCODING 1102
SWIDTH 416 0
DWIDTH 10 0
BBX 10 24 0 -5
BITMAP
0000
0000
0000
0000
0000
0000
0000
0000
C7C0
CC60
CC60
CC60
CC60
FC60
CC60
CC60
CC60
CC60
C7C0
0000
0000
0000
0000
0000
ENDCHAR
STARTCHAR char1103
ENCODING 1103
SWIDTH 416 0
DWIDTH 10 0
BBX 10 24 0 -5
BITMAP
0000
0000
0000
0000
0000
0000
0000
0000
3FE0
6060
6060
6060
6060
3FE0
0360
0660
0C60
1860
3060
0000
0000
0000
0000
0000
ENDCHAR
STARTCHAR char1104
ENCODING 1104
SWIDTH 416 0
DWIDTH 10 0
BBX 10 24 0 -5
BITMAP
0000
0000
0000
0000
1800
0C00
0600
0000
1F80
30C0
6060
6060
6060
7FE0
6000
6000
6000
3060
1FC0
0000
0000
0000
0000
0000
ENDCHAR
STARTCHAR char1105
ENCODING 1105
SWIDTH 416 0
DWIDTH 10 0
BBX 10 24 0 -5
BITMAP
0000
0000
0000
0000
1980
1980
1980
0000
1F80
30C0
6060
6060
6060
7FE0
6000
6000
6000
3060
1FC0
0000
0000
0000
0000
0000
ENDCHAR
STARTCHAR char1106
ENCODING 1106
SWIDTH 416 0
DWIDTH 10 0
BBX 10 24 0 -5
BITMAP
0000
0000
0000
0000
6000
FE00
6000
6000
7F80
60C0
6060
6060
6060
6060
6060
6060
6060
6060
6060
0060
00C0
0180
0000
0000
ENDCHAR
STARTCHAR char1107
ENCODING 1107
SWIDTH 416 0
DWIDTH 10 0
BBX 10 24 0 -5
BITMAP
0000
0000
0000
0000
0180
0300
0600
0000
3FC0
0060
0060
0060
0060
3FC0
6000
6000
6000
6000
3FC0
0000
0000
0000
0000
0000
ENDCHAR
STARTCHAR char1108
ENCODING 1108
SWIDTH 416 0
DWIDTH 10 0
BBX 10 24 0 -5
BITMAP
0000
0000
0000
0000
0000
0000
0000
0000
1F80
30C0
6060
6000
6000
7F00
6000
6000
6060
30C0
1F80
0000
0000
0000
0000
0000
ENDCHAR
STARTCHAR char1109
ENCODING 1109
SWIDTH 416 0
DWIDTH 10 0
BBX 10 24 0 -5
BITMAP
0000
0000
0000
0000
0000
0000
0000
0000
3FC0
6060
6000
6000
6000
3FC0
0060
0060
0060
6060
3FC0
0000
0000
0000
0000
0000
ENDCHAR
STARTCHAR char1110
ENCODING 1110
SWIDTH 416 0
DWIDTH 10 0
BBX 10 24 0 -5
BITMAP
0000
0000
0000
0000
0600
0600
0600
0000
1E00
0600
0600
0600
0600
0600
0600
0600
0600
0600
1F80
0000
0000
0000
0000
0000
ENDCHAR
STARTCHAR char1111
ENCODING 1111
SWIDTH 416 0
DWIDTH 10 0
BBX 10 24 0 -5
BITMAP
0000
0000
0000
0000
1980
1980
1980
0000
1E00
0600
0600
0600
0600
0600
0600
0600
0600
0600
1F80
0000
0000
0000
0000
0000
ENDCHAR
STARTCHAR char1112
ENCODING 1112
SWIDTH 416 0
DWIDTH 10 0
BBX 10 24 0 -5
BITMAP
0000
0000
0000
0000
00C0
00C0
00C0
0000
03C0
00C0
00C0
00C0
00C0
00C0
00C0
00C0
00C0
00C0
00C0
30C0
30C0
1980
0F00
0000
ENDCHAR
STARTCHAR char1113
ENCODING 1113
SWIDTH 416 0
DWIDTH 10 0
BBX 10 24 0 -5
BITMAP
0000
0000
0000
0000
0000
0000
0000
0000
3E00
6600
C600
C7C0
C660
C630
C630
C630
C630
C660
87C0
0000
0000
0000
0000
0000
ENDCHAR
STARTCHAR char1114
ENCODING 1114
SWIDTH 416 0
DWIDTH 10 0
BBX 10 24 0 -5
BITMAP
0000
0000
0000
0000
0000
0000
0000
0000
C600
C600
C600
C600
C7C0
FE60
C630
C630
C630
C660
C7C0
0000
0000
0000
0000
0000
ENDCHAR
STARTCHAR char1115
ENCODING 1115
SWIDTH 416 0
DWIDTH 10 0
BBX 10 24 0 -5
BITMAP
0000
0000
0000
0000
6000
FE00
6000
6000
7F80
60C0
6060
6060
6060
6060
6060
6060
6060
6060
6060
0000
0000
0000
0000
0000
ENDCHAR
STARTCHAR char1116
ENCODING 1116
SWIDTH 416 0
DWIDTH 10 0
BBX 10 24 0 -5
BITMAP
0000
0000
0000
0000
0180
0300
0600
0000
3060
30C0
3180
3300
3600
3C00
3600
3300
3180
30C0
3060
0000
0000
0000
0000
0000
ENDCHAR
STARTCHAR char1117
ENCODING 1117
SWIDTH 416 0
DWIDTH 10 0
BBX 10 24 0 -5
BITMAP
0000
0000
0000
0000
1800
0C00
0600
0000
6060
6060
6060
6060
6060
6060
6060
6060
6060
3060
1FE0
0000
0000
0000
0000
0000
ENDCHAR
STARTCHAR char1118
ENCODING 1118
SWIDTH 416 0
DWIDTH 10 0
BBX 10 24 0 -5
BITMAP
0000
0000
0000
0000
30C0
30C0
1F80
0000
6060
6060
6060
6060
6060
6060
6060
6060
6060
30E0
1FE0
0060
0060
00C0
3F80
0000
ENDCHAR
STARTCHAR char1119
ENCODING 1119
SWIDTH 416 0
DWIDTH 10 0
BBX 10 24 0 -5
BITMAP
0000
0000
0000
0000
0000
0000
0000
0000
6060
6060
6060
6060
6060
6060
6060
6060
6060
6060
7FE0
0600
0600
0600
0000
0000
ENDCHAR
STARTCHAR char1168
ENCODING 1168
SWIDTH 416 0
DWIDTH 10 0
BBX 10 24 0 -5
BITMAP
0000
0060
0060
0060
7FE0
6000
6000
6000
6000
6000
6000
6000
6000
6000
6000
6000
6000
6000
6000
0000
0000
0000
0000
0000
ENDCHAR
STARTCHAR char1169
ENCODING 1169
SWIDTH 416 0
DWIDTH 10 0
BBX 10 24 0 -5
BITMAP
0000
0000
0000
0000
0000
3000
3000
3000
3FC0
0060
0060
0060
0060
3FC0
6000
6000
6000
6000
3FC0
0000
0000
0000
0000
0000
ENDCHAR
STARTCHAR char1170
ENCODING 1170
SWIDTH 416 0
DWIDTH 10 0
BBX 10 24 0 -5
BITMAP
0000
0000
0000
0000
7FE0
6000
6000
6000
6000
6000
6000
FE00
6000
6000
6000
6000
6000
6000
6000
0000
0000
0000
0000
0000
ENDCHAR
STARTCHAR char1171
ENCODING 1171
SWIDTH 416 0
DWIDTH 10 0
BBX 10 24 0 -5
BITMAP
0000
0000
0000
0000
0000
0000
0000
0000
7FE0
6000
6000
6000
6000
FE00
6000
6000
6000
6000
6000
0000
0000
0000
0000
0000
ENDCHAR
STARTCHAR char1172
ENCODING 1172
SWIDTH 416 0
DWIDTH 10 0
BBX 10 24 0 -5
BITMAP
0000
0000
0000
0000
7FE0
6000
6000
6000
6000
6000
6000
7F80
60C0
6060
6060
6060
6060
6060
6060
0060
00C0
0180
0000
0000
ENDCHAR
STARTCHAR char1173
ENCODING 1173
SWIDTH 416 0
DWIDTH 10 0
BBX 10 24 0 -5
BITMAP
0000
0000
0000
0000
0000
0000
0000
0000
7FE0
6000
6000
6000
6000
7F00
6180
60C0
60C0
60C0
60C0
00C0
0180
0300
0000
0000
ENDCHAR
STARTCHAR char1174
ENCODING 1174
SWIDTH 416 0
DWIDTH 10 0
BBX 10 24 0 -5
BITMAP
0000
0000
0000
0000
6660
6660
6660
6660
6660
36C0
1F80
0F00
1F80
36C0
6660
6660
6660
6660
6670
0030
0030
0030
0000
0000
ENDCHAR
STARTCHAR char1175
ENCODING 1175
SWIDTH 416 0
DWIDTH 10 0
BBX 10 24 0 -5
BITMAP
0000
0000
0000
0000
0000
0000
0000
0000
6660
6660
6660
36C0
1F80
0F00
1F80
36C0
6660
6660
6670
0030
0030
0030
0000
0000
ENDCHAR
STARTCHAR char1176
ENCODING 1176
SWIDTH 416 0
DWIDTH 10 0
BBX 10 24 0 -5
BITMAP
0000
0000
0000
0000
1F80
30C0
6060
0060
0060
0060
00C0
0F80
00C0
0060
0060
0060
6060
30C0
1F80
0600
0600
0600
0600
0000
ENDCHAR
STARTCHAR char1177
ENCODING 1177
SWIDTH 416 0
DWIDTH 10 0
BBX 10 24 0 -5
BITMAP
0000
0000
0000
0000
0000
0000
0000
0000
3FC0
6060
0060
0060
0060
0FC0
0060
0060
0060
6060
3FC0
0600
0600
0600
0600
0000
ENDCHAR
STARTCHAR char1178
ENCODING 1178
SWIDTH 416 0
DWIDTH 10 0
BBX 10 24 0 -5
BITMAP
0000
0000
0000
0000
6060
60C0
6180
6300
6600
6C00
7800
7000
7800
6C00
6600
6300
6180
60C0
6070
0030
0030
0030
0000
0000
ENDCHAR
STARTCHAR char1179
ENCODING 1179
SWIDTH 416 0
DWIDTH 10 0
BBX 10 24 0 -5
BITMAP
0000
0000
0000
0000
0000
0000
0000
0000
60C0
6180
6300
6600
6C00
7800
6C00
6600
6300
6180
60E0
0060
0060
0060
0000
0000
ENDCHAR
STARTCHAR char1180
ENCODING 1180
SWIDTH 416 0
DWIDTH 10 0
BBX 10 24 0 -5
BITMAP
0000
0000
0000
0000
6060
6060
60C0
6180
6B00
6E00
6C00
7800
6C00
6E00
6B00
6180
60C0
6060
6060
0000
0000
0000
0000
0000
ENDCHAR
STARTCHAR char1181
ENCODING 1181
SWIDTH 416 0
DWIDTH 10 0
BBX 10 24 0 -5
BITMAP
0000
0000
0000
0000
0000
0000
0000
0000
6060
60C0
6980
6B00
6E00
7C00
6E00
6B00
6980
60C0
6060
0000
0000
0000
0000
0000
ENDCHAR
STARTCHAR char1184
ENCODING 1184
SWIDTH 416 0
DWIDTH 10 0
BBX 10 24 0 -5
BITMAP
0000
0000
0000
0000
E060
E0C0
6180
6300
6600
6C00
7800
7000
7800
6C00
6600
6300
6180
60C0
6060
0000
0000
0000
0000
0000
ENDCHAR
STARTCHAR char1185
ENCODING 1185
SWIDTH 416 0
DWIDTH 10 0
BBX 10 24 0 -5
BITMAP
0000
0000
0000
0000
0000
0000
0000
0000
7060
70C0
3180
3300
3600
3C00
3600
3300
3180
30C0
3060
0000
0000
0000
0000
0000
ENDCHAR
STARTCHAR char1186
ENCODING 1186
SWIDTH 416 0
DWIDTH 10 0
BBX 10 24 0 -5
BITMAP
0000
0000
0000
0000
6060
6060
6060
6060
6060
6060
6060
7FE0
6060
6060
6060
6060
6060
6060
6070
0030
0030
0030
0000
0000
ENDCHAR
STARTCHAR char1187
ENCODING 1187
SWIDTH 416 0
DWIDTH 10 0
BBX 10 24 0 -5
BITMAP
0000
0000
0000
0000
0000
0000
0000
0000
6060
6060
6060
6060
6060
7FE0
6060
6060
6060
6060
6070
0030
0030
0030
0000
0000
ENDCHAR
STARTCHAR char1188
ENCODING 1188
SWIDTH 416 0
DWIDTH 10 0
BBX 10 24 0 -5
BITMAP
0000
0000
0000
0000
C3E0
C300
C300
C300
C300
C300
C300
FF00
C300
C300
C300
C300
C300
C300
C300
0000
0000
0000
0000
0000
ENDCHAR
STARTCHAR char1189
ENCODING 1189
SWIDTH 416 0
DWIDTH 10 0
BBX 10 24 0 -5
BITMAP
0000
0000
0000
0000
0000
0000
0000
0000
C3E0
C300
C300
C300
C300
FF00
C300
C300
C300
C300
C300
0000
0000
0000
0000
0000
ENDCHAR
STARTCHAR char1194
ENCODING 1194
SWIDTH 416 0
DWIDTH 10 0
BBX 10 24 0 -5
BITMAP
0000
0000
0000
0000
1F80
30C0
6060
6060
6000
6000
6000
6000
6000
6000
6000
6060
6060
30C0
1F80
0600
0600
0600
0600
0000
ENDCHAR
STARTCHAR char1195
ENCODING 1195
SWIDTH 416 0
DWIDTH 10 0
BBX 10 24 0 -5
BITMAP
0000
0000
0000
0000
0000
0000
0000
0000
1F80
30C0
6060
6000
6000
6000
6000
6000
6060
30C0
1F80
0600
0600
0600
0600
0000
ENDCHAR
STARTCHAR char1198
ENCODING 1198
SWIDTH 416 0
DWIDTH 10 0
BBX 10 24 0 -5
BITMAP
0000
0000
0000
0000
6060
6060
30C0
30C0
1980
1980
0F00
0F00
0600
0600
0600
0600
0600
0600
0600
0000
0000
0000
0000
0000
ENDCHAR
STARTCHAR char1199
ENCODING 1199
SWIDTH 416 0
DWIDTH 10 0
BBX 10 24 0 -5
BITMAP
0000
0000
0000
0000
0000
0000
0000
0000
6060
6060
6060
30C0
30C0
30C0
1980
1980
0F00
0F00
0600
0600
0600
0600
0600
0000
ENDCHAR
STARTCHAR char1200
ENCODING 1200
SWIDTH 416 0
DWIDTH 10 0
BBX 10 24 0 -5
BITMAP
0000
0000
0000
0000
6060
6060
30C0
30C0
1980
1980
0F00
0F00
0600
3FC0
0600
0600
0600
0600
0600
0000
0000
0000
0000
0000
ENDCHAR
STARTCHAR char1201
ENCODING 1201
SWIDTH 416 0
DWIDTH 10 0
BBX 10 24 0 -5
BITMAP
0000
0000
0000
0000
0000
0000
0000
0000
6060
6060
6060
30C0
30C0
30C0
1980
1980
0F00
0F00
0600
3FC0
0600
0600
0600
0000
ENDCHAR
STARTCHAR char1202
ENCODING 1202
SWIDTH 416 0
DWIDTH 10 0
BBX 10 24 0 -5
BITMAP
0000
0000
0000
0000
6060
6060
30C0
30C0
1980
1980
0F00
0600
0F00
1980
1980
30C0
30C0
6060
6070
0030
0030
0030
0000
0000
ENDCHAR
STARTCHAR char1203
ENCODING 1203
SWIDTH 416 0
DWIDTH 10 0
BBX 10 24 0 -5
BITMAP
0000
0000
0000
0000
0000
0000
0000
0000
6060
6060
30C0
1980
0F00
0600
0F00
1980
30C0
6060
6070
0030
0030
0030
0000
0000
ENDCHAR
STARTCHAR char1206
ENCODING 1206
SWIDTH 416 0
DWIDTH 10 0
BBX 10 24 0 -5
BITMAP
0000
0000
0000
0000
6060
6060
6060
6060
6060
6060
3060
1FE0
0060
0060
0060
0060
0060
0060
0070
0030
0030
0030
0000
0000
ENDCHAR
STARTCHAR char1207
ENCODING 1207
SWIDTH 416 0
DWIDTH 10 0
BBX 10 24 0 -5
BITMAP
0000
0000
0000
0000
0000
0000
0000
0000
6060
6060
6060
6060
3060
1FE0
0060
0060
0060
0060
0070
0030
0030
0030
0000
0000
ENDCHAR
STARTCHAR char1208
ENCODING 1208
SWIDTH 416 0
DWIDTH 10 0
BBX 10 24 0 -5
BITMAP
0000
0000
0000
0000
6060
6060
6060
6060
6660
6660
3660
1FE0
0660
0660
0660
0060
0060
0060
0060
0000
0000
0000
0000
0000
ENDCHAR
STARTCHAR char1209
ENCODING 1209
SWIDTH 416 0
DWIDTH 10 0
BBX 10 24 0 -5
BITMAP
0000
0000
0000
0000
0000
0000
0000
0000
6060
6060
6660
6660
3660
1FE0
0660
0660
0660
0060
0060
0000
0000
0000
0000
0000
ENDCHAR
STARTCHAR char1210
ENCODING 1210
SWIDTH 416 0
DWIDTH 10 0
BBX 10 24 0 -5
BITMAP
0000
0000
0000
0000
6000
6000
6000
6000
6000
6000
7F80
60C0
6060
6060
6060
6060
6060
6060
6060
0000
0000
0000
0000
0000
ENDCHAR
STARTCHAR char1211
ENCODING 1211
SWIDTH 416 0
DWIDTH 10 0
BBX 10 24 0 -5
BITMAP
0000
0000
0000
0000
0000
0000
0000
0000
6000
6000
6000
6000
7F80
60C0
6060
6060
6060
6060
6060
0000
0000
0000
0000
0000
ENDCHAR
STARTCHAR char1232
ENCODING 1232
SWIDTH 416 0
DWIDTH 10 0
BBX 10 24 0 -5
BITMAP
30C0
30C0
1F80
0000
1F80
30C0
6060
6060
6060
6060
6060
6060
7FE0
6060
6060
6060
6060
6060
6060
0000
0000
0000
0000
0000
ENDCHAR
STARTCHAR char1233
ENCODING 1233
SWIDTH 416 0
DWIDTH 10 0
BBX 10 24 0 -5
BITMAP
0000
0000
0000
0000
30C0
30C0
1F80
0000
3F80
00C0
0060
0060
1FE0
3060
6060
6060
6060
3060
1FE0
0000
0000
0000
0000
0000
ENDCHAR
STARTCHAR char1234
ENCODING 1234
SWIDTH 416 0
DWIDTH 10 0
BBX 10 24 0 -5
BITMAP
1980
1980
1980
0000
1F80
30C0
6060
6060
6060
6060
6060
6060
7FE0
6060
6060
6060
6060
6060
6060
0000
0000
0000
0000
0000
ENDCHAR
STARTCHAR char1235
ENCODING 1235
SWIDTH 416 0
DWIDTH 10 0
BBX 10 24 0 -5
BITMAP
0000
0000
0000
0000
1980
1980
1980
0000
3F80
00C0
0060
0060
1FE0
3060
6060
6060
6060
3060
1FE0
0000
0000
0000
0000
0000
ENDCHAR
STARTCHAR char1236
ENCODING 1236
SWIDTH 416 0
DWIDTH 10 0
BBX 10 24 0 -5
BITMAP
0000
0000
0000
0000
3FF0
6300
C300
C300
C300
C300
C300
FFF0
C300
C300
C300
C300
C300
C300
C3F0
0000
0000
0000
0000
0000
ENDCHAR
STARTCHAR char1237
ENCODING 1237
SWIDTH 416 0
DWIDTH 10 0
BBX 10 24 0 -5
BITMAP
0000
0000
0000
0000
0000
0000
0000
0000
7BE0
0E30
0630
0630
7E30
C7F0
C600
C600
C600
C730
7DE0
0000
0000
0000
0000
0000
ENDCHAR
STARTCHAR char1238
ENCODING 1238
SWIDTH 416 0
DWIDTH 10 0
BBX 10 24 0 -5
BITMAP
30C0
30C0
1F80
0000
7FE0
6000
6000
6000
6000
6000
6000
7F80
6000
6000
6000
6000
6000
6000
7FE0
0000
0000
0000
0000
0000
ENDCHAR
STARTCHAR char1239
ENCODING 1239
SWIDTH 416 0
DWIDTH 10 0
BBX 10 24 0 -5
BITMAP
0000
0000
0000
0000
30C0
30C0
1F80
0000
1F80
30C0
6060
6060
6060
7FE0
6000
6000
6000
3060
1FC0
0000
0000
0000
0000
0000
ENDCHAR
STARTCHAR char1240
ENCODING 1240
SWIDTH 416 0
DWIDTH 10 0
BBX 10 24 0 -5
BITMAP
0000
0000
0000
0000
1F80
30C0
6060
0060
0060
0060
0060
7FE0
6060
6060
6060
6060
6060
30C0
1F80
0000
0000
0000
0000
0000
ENDCHAR
STARTCHAR char1241
ENCODING 1241
SWIDTH 416 0
DWIDTH 10 0
BBX 10 24 0 -5
BITMAP
0000
0000
0000
0000
0000
0000
0000
0000
3F80
60C0
0060
0060
0060
7FE0
6060
6060
6060
30C0
1F80
0000
0000
0000
0000
0000
ENDCHAR
STARTCHAR char1242
ENCODING 1242
SWIDTH 416 0
DWIDTH 10 0
BBX 10 24 0 -5
BITMAP
1980
1980
1980
0000
1F80
30C0
6060
0060
0060
0060
0060
7FE0
6060
6060
6060
6060
6060
30C0
1F80
0000
0000
0000
0000
0000
ENDCHAR
STARTCHAR char1243
ENCODING 1243
SWIDTH 416 0
DWIDTH 10 0
BBX 10 24 0 -5
BITMAP
0000
0000
0000
0000
1980
1980
1980
0000
3F80
60C0
0060
0060
0060
7FE0
6060
6060
6060
30C0
1F80
0000
0000
0000
0000
0000
ENDCHAR
STARTCHAR char1244
ENCODING 1244
SWIDTH 416 0
DWIDTH 10 0
BBX 10 24 0 -5
BITMAP
1980
1980
1980
0000
6660
6660
6660
6660
6660
36C0
1F80
0F00
1F80
36C0
6660
6660
6660
6660
6660
0000
0000
0000
0000
0000
ENDCHAR
STARTCHAR char1245
ENCODING 1245
SWIDTH 416 0
DWIDTH 10 0
BBX 10 24 0 -5
BITMAP
0000
0000
0000
0000
1980
1980
1980
0000
6660
6660
6660
36C0
1F80
0F00
1F80
36C0
6660
6660
6660
0000
0000
0000
0000
0000
ENDCHAR
STARTCHAR char1246
ENCODING 1246
SWIDTH 416 0
DWIDTH 10 0
BBX 10 24 0 -5
BITMAP
1980
1980
1980
0000
1F80
30C0
6060
0060
0060
0060
00C0
0F80
00C0
0060
0060
0060
6060
30C0
1F80
0000
0000
0000
0000
0000
ENDCHAR
STARTCHAR char1247
ENCODING 1247
SWIDTH 416 0
DWIDTH 10 0
BBX 10 24 0 -5
BITMAP
0000
0000
0000
0000
1980
1980
1980
0000
3FC0
6060
0060
0060
0060
0FC0
0060
0060
0060
6060
3FC0
0000
0000
0000
0000
0000
ENDCHAR
STARTCHAR char1250
ENCODING 1250
SWIDTH 416 0
DWIDTH 10 0
BBX 10 24 0 -5
BITMAP
0000
3FC0
0000
0000
6060
6060
6060
6060
60E0
61E0
6360
6660
6C60
7860
7060
6060
6060
6060
6060
0000
0000
0000
0000
0000
ENDCHAR
STARTCHAR char1251
ENCODING 1251
SWIDTH 416 0
DWIDTH 10 0
BBX 10 24 0 -5
BITMAP
0000
0000
0000
0000
0000
3FC0
0000
0000
6060
6060
6060
6060
6060
6060
6060
6060
6060
3060
1FE0
0000
0000
0000
0000
0000
ENDCHAR
STARTCHAR char1252
ENCODING 1252
SWIDTH 416 0
DWIDTH 10 0
BBX 10 24 0 -5
BITMAP
1980
1980
1980
0000
6060
6060
6060
6060
60E0
61E0
6360
6660
6C60
7860
7060
6060
6060
6060
6060
0000
0000
0000
0000
0000
ENDCHAR
STARTCHAR char1253
ENCODING 1253
SWIDTH 416 0
DWIDTH 10 0
BBX 10 24 0 -5
BITMAP
0000
0000
0000
0000
1980
1980
1980
0000
6060
6060
6060
6060
6060
6060
6060
6060
6060
3060
1FE0
0000
0000
0000
0000
0000
ENDCHAR
STARTCHAR char1254
ENCODING 1254
SWIDTH 416 0
DWIDTH 10 0
BBX 10 24 0 -5
BITMAP
1980
1980
1980
0000
1F80
30C0
6060
6060
6060
6060
6060
6060
6060
6060
6060
6060
6060
30C0
1F80
0000
0000
0000
0000
0000
ENDCHAR
STARTCHAR char1255
ENCODING 1255
SWIDTH 416 0
DWIDTH 10 0
BBX 10 24 0 -5
BITMAP
0000
0000
0000
0000
1980
1980
1980
0000
1F80
30C0
6060
6060
6060
6060
6060
6060
6060
30C0
1F80
0000
0000
0000
0000
0000
ENDCHAR
STARTCHAR char1256
ENCODING 1256
SWIDTH 416 0
DWIDTH 10 0
BBX 10 24 0 -5
BITMAP
0000
0000
0000
0000
1F80
30C0
6060
6060
6060
6060
6060
7FE0
6060
6060
6060
6060
6060
30C0
1F80
0000
0000
0000
0000
0000
ENDCHAR
STARTCHAR char1257
ENCODING 1257
SWIDTH 416 0
DWIDTH 10 0
BBX 10 24 0 -5
BITMAP
0000
0000
0000
0000
0000
0000
0000
0000
1F80
30C0
6060
6060
6060
7FE0
6060
6060
6060
30C0
1F80
0000
0000
0000
0000
0000
ENDCHAR
STARTCHAR char1258
ENCODING 1258
SWIDTH 416 0
DWIDTH 10 0
BBX 10 24 0 -5
BITMAP
1980
1980
1980
0000
1F80
30C0
6060
6060
6060
6060
6060
7FE0
6060
6060
6060
6060
6060
30C0
1F80
0000
0000
0000
0000
0000
ENDCHAR
STARTCHAR char1259
ENCODING 1259
SWIDTH 416 0
DWIDTH 10 0
BBX 10 24 0 -5
BITMAP
0000
0000
0000
0000
1980
1980
1980
0000
1F80
30C0
6060
6060
6060
7FE0
6060
6060
6060
30C0
1F80
0000
0000
0000
0000
0000
ENDCHAR
STARTCHAR char1260
ENCODING 1260
SWIDTH 416 0
DWIDTH 10 0
BBX 10 24 0 -5
BITMAP
1980
1980
1980
0000
1F80
30C0
6060
0060
0060
0060
0060
0FE0
0060
0060
0060
0060
6060
30C0
1F80
0000
0000
0000
0000
0000
ENDCHAR
STARTCHAR char1261
ENCODING 1261
SWIDTH 416 0
DWIDTH 10 0
BBX 10 24 0 -5
BITMAP
0000
0000
0000
0000
1980
1980
1980
0000
1F80
30C0
6060
0060
0060
0FE0
0060
0060
6060
30C0
1F80
0000
0000
0000
0000
0000
ENDCHAR
STARTCHAR char1262
ENCODING 1262
SWIDTH 416 0
DWIDTH 10 0
BBX 10 24 0 -5
BITMAP
0000
3FC0
0000
0000
6060
6060
6060
6060
6060
6060
6060
3060
1FE0
0060
0060
0060
0060
00C0
3F80
0000
0000
0000
0000
0000
ENDCHAR
STARTCHAR char1263
ENCODING 1263
SWIDTH 416 0
DWIDTH 10 0
BBX 10 24 0 -5
BITMAP
0000
0000
0000
0000
0000
3FC0
0000
0000
6060
6060
6060
6060
6060
6060
6060
6060
6060
30E0
1FE0
0060
0060
00C0
3F80
0000
ENDCHAR
STARTCHAR char1264
ENCODING 1264
SWIDTH 416 0
DWIDTH 10 0
BBX 10 24 0 -5
BITMAP
1980
1980
1980
0000
6060
6060
6060
6060
6060
6060
6060
3060
1FE0
0060
0060
0060
0060
00C0
3F80
0000
0000
0000
0000
0000
ENDCHAR
STARTCHAR char1265
ENCODING 1265
SWIDTH 416 0
DWIDTH 10 0
BBX 10 24 0 -5
BITMAP
0000
0000
0000
0000
1980
1980
1980
0000
6060
6060
6060
6060
6060
6060
6060
6060
6060
30E0
1FE0
0060
0060
00C0
3F80
0000
ENDCHAR
STARTCHAR char1266
ENCODING 1266
SWIDTH 416 0
DWIDTH 10 0
BBX 10 24 0 -5
BITMAP
0660
0CC0
1980
0000
6060
6060
6060
6060
6060
6060
6060
3060
1FE0
0060
0060
0060
0060
00C0
3F80
0000
0000
0000
0000
0000
ENDCHAR
STARTCHAR char1267
ENCODING 1267
SWIDTH 416 0
DWIDTH 10 0
BBX 10 24 0 -5
BITMAP
0000
0000
0000
0000
0660
0CC0
1980
0000
6060
6060
6060
6060
6060
6060
6060
6060
6060
30E0
1FE0
0060
0060
00C0
3F80
0000
ENDCHAR
STARTCHAR char1268
ENCODING 1268
SWIDTH 416 0
DWIDTH 10 0
BBX 10 24 0 -5
BITMAP
1980
1980
1980
0000
6060
6060
6060
6060
6060
6060
3060
1FE0
0060
0060
0060
0060
0060
0060
0060
0000
0000
0000
0000
0000
ENDCHAR
STARTCHAR char1269
ENCODING 1269
SWIDTH 416 0
DWIDTH 10 0
BBX 10 24 0 -5
BITMAP
0000
0000
0000
0000
1980
1980
1980
0000
6060
6060
6060
6060
3060
1FE0
0060
0060
0060
0060
0060
0000
0000
0000
0000
0000
ENDCHAR
STARTCHAR char1272
ENCODING 1272
SWIDTH 416 0
DWIDTH 10 0
BBX 10 24 0 -5
BITMAP
3300
3300
3300
0000
C060
C060
C060
C060
C060
FC60
C660
C360
C360
C360
C360
C360
C360
C660
FC60
0000
0000
0000
0000
0000
ENDCHAR
STARTCHAR char1273
ENCODING 1273
SWIDTH 416 0
DWIDTH 10 0
BBX 10 24 0 -5
BITMAP
0000
0000
0000
0000
1980
1980
1980
0000
6060
6060
6060
7C60
6660
6360
6360
6360
6360
6660
7C60
0000
0000
0000
0000
0000
ENDCHAR
STARTCHAR char7732
ENCODING 7732
SWIDTH 416 0
DWIDTH 10 0
BBX 10 24 0 -5
BITMAP
0000
0000
0000
0000
6060
60C0
6180
6300
6600
6C00
7800
7000
7800
6C00
6600
6300
6180
60C0
6060
0000
0000
3FC0
0000
0000
ENDCHAR
STARTCHAR char7733
ENCODING 7733
SWIDTH 416 0
DWIDTH 10 0
BBX 10 24 0 -5
BITMAP
0000
0000
0000
0000
3000
3000
3000
3000
3060
30C0
3180
3300
3600
3C00
3600
3300
3180
30C0
3060
0000
0000
1FC0
0000
0000
ENDCHAR
STARTCHAR char7864
ENCODING 7864
SWIDTH 416 0
DWIDTH 10 0
BBX 10 24 0 -5
BITMAP
0000
0000
0000
0000
7FE0
6000
6000
6000
6000
6000
6000
7F80
6000
6000
6000
6000
6000
6000
7FE0
0000
0600
0600
0600
0000
ENDCHAR
STARTCHAR char7865
ENCODING 7865
SWIDTH 416 0
DWIDTH 10 0
BBX 10 24 0 -5
BITMAP
0000
0000
0000
0000
0000
0000
0000
0000
1F80
30C0
6060
6060
6060
7FE0
6000
6000
6000
3060
1FC0
0000
0600
0600
0600
0000
ENDCHAR
STARTCHAR char7868
ENCODING 7868
SWIDTH 416 0
DWIDTH 10 0
BBX 10 24 0 -5
BITMAP
1CC0
36C0
3380
0000
7FE0
6000
6000
6000
6000
6000
6000
7F80
6000
6000
6000
6000
6000
6000
7FE0
0000
0000
0000
0000
0000
ENDCHAR
STARTCHAR char7869
ENCODING 7869
SWIDTH 416 0
DWIDTH 10 0
BBX 10 24 0 -5
BITMAP
0000
0000
0000
0000
1CC0
36C0
3380
0000
1F80
30C0
6060
6060
6060
7FE0
6000
6000
6000
3060
1FC0
0000
0000
0000
0000
0000
ENDCHAR
STARTCHAR char7884
ENCODING 7884
SWIDTH 416 0
DWIDTH 10 0
BBX 10 24 0 -5
BITMAP
0000
0000
0000
0000
1F80
30C0
6060
6060
6060
6060
6060
6060
6060
6060
6060
6060
6060
30C0
1F80
0000
0600
0600
0600
0000
ENDCHAR
STARTCHAR char7885
ENCODING 7885
SWIDTH 416 0
DWIDTH 10 0
BBX 10 24 0 -5
BITMAP
0000
0000
0000
0000
0000
0000
0000
0000
1F80
30C0
6060
6060
6060
6060
6060
6060
6060
30C0
1F80
0000
0600
0600
0600
0000
ENDCHAR
STARTCHAR char7928
ENCODING 7928
SWIDTH 416 0
DWIDTH 10 0
BBX 10 24 0 -5
BITMAP
1CC0
36C0
3380
0000
6060
6060
30C0
30C0
1980
1980
0F00
0F00
0600
0600
0600
0600
0600
0600
0600
0000
0000
0000
0000
0000
ENDCHAR
STARTCHAR char7929
ENCODING 7929
SWIDTH 416 0
DWIDTH 10 0
BBX 10 24 0 -5
BITMAP
0000
0000
0000
0000
1CC0
36C0
3380
0000
6060
6060
6060
6060
6060
6060
6060
6060
6060
30E0
1FE0
0060
0060
00C0
3F80
0000
ENDCHAR
STARTCHAR char8192
ENCODING 8192
SWIDTH 416 0
DWIDTH 10 0
BBX 10 24 0 -5
BITMAP
0000
0000
0000
0000
0000
0000
0000
0000
0000
0000
0000
0000
0000
0000
0000
0000
0000
0000
0000
0000
0000
0000
0000
0000
ENDCHAR
STARTCHAR char8193
ENCODING 8193
SWIDTH 416 0
DWIDTH 10 0
BBX 10 24 0 -5
BITMAP
0000
0000
0000
0000
0000
0000
0000
0000
0000
0000
0000
0000
0000
0000
0000
0000
0000
0000
0000
0000
0000
0000
0000
0000
ENDCHAR
STARTCHAR char8194
ENCODING 8194
SWIDTH 416 0
DWIDTH 10 0
BBX 10 24 0 -5
BITMAP
0000
0000
0000
0000
0000
0000
0000
0000
0000
0000
0000
0000
0000
0000
0000
0000
0000
0000
0000
0000
0000
0000
0000
0000
ENDCHAR
STARTCHAR char8195
ENCODING 8195
SWIDTH 416 0
DWIDTH 10 0
BBX 10 24 0 -5
BITMAP
0000
0000
0000
0000
0000
0000
0000
0000
0000
0000
0000
0000
0000
0000
0000
0000
0000
0000
0000
0000
0000
0000
0000
0000
ENDCHAR
STARTCHAR char8196
ENCODING 8196
SWIDTH 416 0
DWIDTH 10 0
BBX 10 24 0 -5
BITMAP
0000
0000
0000
0000
0000
0000
0000
0000
0000
0000
0000
0000
0000
0000
0000
0000
0000
0000
0000
0000
0000
0000
0000
0000
ENDCHAR
STARTCHAR char8197
ENCODING 8197
SWIDTH 416 0
DWIDTH 10 0
BBX 10 24 0 -5
BITMAP
0000
0000
0000
0000
0000
0000
0000
0000
0000
0000
0000
0000
0000
0000
0000
0000
0000
0000
0000
0000
0000
0000
0000
0000
ENDCHAR
STARTCHAR char8198
ENCODING 8198
SWIDTH 416 0
DWIDTH 10 0
BBX 10 24 0 -5
BITMAP
0000
0000
0000
0000
0000
0000
0000
0000
0000
0000
0000
0000
0000
0000
0000
0000
0000
0000
0000
0000
0000
0000
0000
0000
ENDCHAR
STARTCHAR char8199
ENCODING 8199
SWIDTH 416 0
DWIDTH 10 0
BBX 10 24 0 -5
BITMAP
0000
0000
0000
0000
0000
0000
0000
0000
0000
0000
0000
0000
0000
0000
0000
0000
0000
0000
0000
0000
0000
0000
0000
0000
ENDCHAR
STARTCHAR char8200
ENCODING 8200
SWIDTH 416 0
DWIDTH 10 0
BBX 10 24 0 -5
BITMAP
0000
0000
0000
0000
0000
0000
0000
0000
0000
0000
0000
0000
0000
0000
0000
0000
0000
0000
0000
0000
0000
0000
0000
0000
ENDCHAR
STARTCHAR char8201
ENCODING 8201
SWIDTH 416 0
DWIDTH 10 0
BBX 10 24 0 -5
BITMAP
0000
0000
0000
0000
0000
0000
0000
0000
0000
0000
0000
0000
0000
0000
0000
0000
0000
0000
0000
0000
0000
0000
0000
0000
ENDCHAR
STARTCHAR char8202
ENCODING 8202
SWIDTH 416 0
DWIDTH 10 0
BBX 10 24 0 -5
BITMAP
0000
0000
0000
0000
0000
0000
0000
0000
0000
0000
0000
0000
0000
0000
0000
0000
0000
0000
0000
0000
0000
0000
0000
0000
ENDCHAR
STARTCHAR char8208
ENCODING 8208
SWIDTH 416 0
DWIDTH 10 0
BBX 10 24 0 -5
BITMAP
0000
0000
0000
0000
0000
0000
0000
0000
0000
0000
0000
3FC0
0000
0000
0000
0000
0000
0000
0000
0000
0000
0000
0000
0000
ENDCHAR
STARTCHAR char8209
ENCODING 8209
SWIDTH 416 0
DWIDTH 10 0
BBX 10 24 0 -5
BITMAP
0000
0000
0000
0000
0000
0000
0000
0000
0000
0000
0000
3FC0
0000
0000
0000
0000
0000
0000
0000
0000
0000
0000
0000
0000
ENDCHAR
STARTCHAR char8210
ENCODING 8210
SWIDTH 416 0
DWIDTH 10 0
BBX 10 24 0 -5
BITMAP
0000
0000
0000
0000
0000
0000
0000
0000
0000
0000
0000
7FE0
0000
0000
0000
0000
0000
0000
0000
0000
0000
0000
0000
0000
ENDCHAR
STARTCHAR char8211
ENCODING 8211
SWIDTH 416 0
DWIDTH 10 0
BBX 10 24 0 -5
BITMAP
0000
0000
0000
0000
0000
0000
0000
0000
0000
0000
0000
7FE0
0000
0000
0000
0000
0000
0000
0000
0000
0000
0000
0000
0000
ENDCHAR
STARTCHAR char8212
ENCODING 8212
SWIDTH 416 0
DWIDTH 10 0
BBX 10 24 0 -5
BITMAP
0000
0000
0000
0000
0000
0000
0000
0000
0000
0000
0000
FFE0
0000
0000
0000
0000
0000
0000
0000
0000
0000
0000
0000
0000
ENDCHAR
STARTCHAR char8213
ENCODING 8213
SWIDTH 416 0
DWIDTH 10 0
BBX 10 24 0 -5
BITMAP
0000
0000
0000
0000
0000
0000
0000
0000
0000
0000
0000
FFE0
0000
0000
0000
0000
0000
0000
0000
0000
0000
0000
0000
0000
ENDCHAR
STARTCHAR char8214
ENCODING 8214
SWIDTH 416 0
DWIDTH 10 0
BBX 10 24 0 -5
BITMAP
0000
0000
0000
0000
1980
1980
1980
1980
1980
1980
1980
1980
1980
1980
1980
1980
1980
1980
1980
0000
0000
0000
0000
0000
ENDCHAR
STARTCHAR char8215
ENCODING 8215
SWIDTH 416 0
DWIDTH 10 0
BBX 10 24 0 -5
BITMAP
0000
0000
0000
0000
0000
0000
0000
0000
0000
0000
0000
0000
0000
0000
0000
0000
0000
0000
0000
0000
7FE0
0000
0000
7FE0
ENDCHAR
STARTCHAR char8216
ENCODING 8216
SWIDTH 416 0
DWIDTH 10 0
BBX 10 24 0 -5
BITMAP
0000
0000
0300
0600
0600
0600
0600
0000
0000
0000
0000
0000
0000
0000
0000
0000
0000
0000
0000
0000
0000
0000
0000
0000
ENDCHAR
STARTCHAR char8217
ENCODING 8217
SWIDTH 416 0
DWIDTH 10 0
BBX 10 24 0 -5
BITMAP
0000
0000
0600
0600
0600
0600
0C00
0000
0000
0000
0000
0000
0000
0000
0000
0000
0000
0000
0000
0000
0000
0000
0000
0000
ENDCHAR
STARTCHAR char8218
ENCODING 8218
SWIDTH 416 0
DWIDTH 10 0
BBX 10 24 0 -5
BITMAP
0000
0000
0000
0000
0000
0000
0000
0000
0000
0000
0000
0000
0000
0000
0000
0600
0600
0600
0600
0C00
0000
0000
0000
0000
ENDCHAR
STARTCHAR char8220
ENCODING 8220
SWIDTH 416 0
DWIDTH 10 0
BBX 10 24 0 -5
BITMAP
0000
0000
0CC0
1980
1980
1980
1980
0000
0000
0000
0000
0000
0000
0000
0000
0000
0000
0000
0000
0000
0000
0000
0000
0000
ENDCHAR
STARTCHAR char8221
ENCODING 8221
SWIDTH 416 0
DWIDTH 10 0
BBX 10 24 0 -5
BITMAP
0000
0000
1980
1980
1980
1980
3300
0000
0000
0000
0000
0000
0000
0000
0000
0000
0000
0000
0000
0000
0000
0000
0000
0000
ENDCHAR
STARTCHAR char8222
ENCODING 8222
SWIDTH 416 0
DWIDTH 10 0
BBX 10 24 0 -5
BITMAP
0000
0000
0000
0000
0000
0000
0000
0000
0000
0000
0000
0000
0000
0000
0000
1980
1980
1980
1980
3300
0000
0000
0000
0000
ENDCHAR
STARTCHAR char8224
ENCODING 8224
SWIDTH 416 0
DWIDTH 10 0
BBX 10 24 0 -5
BITMAP
0000
0000
0000
0000
0600
0600
0600
7FE0
0600
0600
0600
0600
0600
0600
0600
0600
0600
0600
0600
0000
0000
0000
0000
0000
ENDCHAR
STARTCHAR char8225
ENCODING 8225
SWIDTH 416 0
DWIDTH 10 0
BBX 10 24 0 -5
BITMAP
0000
0000
0000
0000
0600
0600
0600
7FE0
0600
0600
0600
0600
0600
0600
0600
7FE0
0600
0600
0600
0000
0000
0000
0000
0000
ENDCHAR
STARTCHAR char8226
ENCODING 8226
SWIDTH 416 0
DWIDTH 10 0
BBX 10 24 0 -5
BITMAP
0000
0000
0000
0000
0000
0000
0000
0000
0000
0F00
1F80
1F80
1F80
1F80
0F00
0000
0000
0000
0000
0000
0000
0000
0000
0000
ENDCHAR
STARTCHAR char8230
ENCODING 8230
SWIDTH 416 0
DWIDTH 10 0
BBX 10 24 0 -5
BITMAP
0000
0000
0000
0000
0000
0000
0000
0000
0000
0000
0000
0000
0000
0000
0000
0000
0000
6D80
6D80
6D80
0000
0000
0000
0000
ENDCHAR
STARTCHAR char8240
ENCODING 8240
SWIDTH 416 0
DWIDTH 10 0
BBX 10 24 0 -5
BITMAP
0000
0000
0000
0000
0000
7300
DB00
DE00
7600
0C00
0C00
1800
1800
3000
3000
6EE0
7BB0
DBB0
CEE0
0000
0000
0000
0000
0000
ENDCHAR
STARTCHAR char8242
ENCODING 8242
SWIDTH 416 0
DWIDTH 10 0
BBX 10 24 0 -5
BITMAP
0000
0000
0600
0600
0600
0600
0400
0400
0000
0000
0000
0000
0000
0000
0000
0000
0000
0000
0000
0000
0000
0000
0000
0000
ENDCHAR
STARTCHAR char8243
ENCODING 8243
SWIDTH 416 0
DWIDTH 10 0
BBX 10 24 0 -5
BITMAP
0000
0000
1980
1980
1980
1980
1100
1100
0000
0000
0000
0000
0000
0000
0000
0000
0000
0000
0000
0000
0000
0000
0000
0000
ENDCHAR
STARTCHAR char8249
ENCODING 8249
SWIDTH 416 0
DWIDTH 10 0
BBX 10 24 0 -5
BITMAP
0000
0000
0000
0000
0000
0000
0000
0000
0180
0300
0600
0C00
1800
3000
1800
0C00
0600
0300
0180
0000
0000
0000
0000
0000
ENDCHAR
STARTCHAR char8250
ENCODING 8250
SWIDTH 416 0
DWIDTH 10 0
BBX 10 24 0 -5
BITMAP
0000
0000
0000
0000
0000
0000
0000
0000
3000
1800
0C00
0600
0300
0180
0300
0600
0C00
1800
3000
0000
0000
0000
0000
0000
ENDCHAR
STARTCHAR char8252
ENCODING 8252
SWIDTH 416 0
DWIDTH 10 0
BBX 10 24 0 -5
BITMAP
0000
0000
0000
0000
1980
1980
1980
1980
1980
1980
1980
1980
1980
1980
0000
0000
1980
1980
1980
0000
0000
0000
0000
0000
ENDCHAR
STARTCHAR char8254
ENCODING 8254
SWIDTH 416 0
DWIDTH 10 0
BBX 10 24 0 -5
BITMAP
0000
7FE0
0000
0000
0000
0000
0000
0000
0000
0000
0000
0000
0000
0000
0000
0000
0000
0000
0000
0000
0000
0000
0000
0000
ENDCHAR
STARTCHAR char8319
ENCODING 8319
SWIDTH 416 0
DWIDTH 10 0
BBX 10 24 0 -5
BITMAP
0000
0000
1F00
1980
1980
1980
1980
1980
1980
0000
0000
0000
0000
0000
0000
0000
0000
0000
0000
0000
0000
0000
0000
0000
ENDCHAR
STARTCHAR char8359
ENCODING 8359
SWIDTH 416 0
DWIDTH 10 0
BBX 10 24 0 -5
BITMAP
0000
0000
0000
0000
FC00
C600
C300
C300
C300
C300
C600
FD80
C180
C7E0
C180
C180
C180
C180
C0E0
0000
0000
0000
0000
0000
ENDCHAR
STARTCHAR char8364
ENCODING 8364
SWIDTH 416 0
DWIDTH 10 0
BBX 10 24 0 -5
BITMAP
0000
1F80
3F80
6000
6000
6000
6000
6000
6000
FE00
FE00
6000
FE00
FE00
6000
6000
6000
3F80
1F80
0000
0000
0000
0000
0000
ENDCHAR
STARTCHAR char8366
ENCODING 8366
SWIDTH 416 0
DWIDTH 10 0
BBX 10 24 0 -5
BITMAP
0000
0000
0000
0000
7FE0
0600
0600
0600
07C0
0700
0E00
3FC0
0700
0E00
3E00
0600
0600
0600
0600
0000
0000
0000
0000
0000
ENDCHAR
STARTCHAR char8470
ENCODING 8470
SWIDTH 416 0
DWIDTH 10 0
BBX 10 24 0 -5
BITMAP
0000
0000
CC00
CC00
CC00
CC80
CD40
ED40
EC80
EC00
DC00
DC00
DC00
CDC0
CC00
CC00
CDC0
CC00
CC00
0000
0000
0000
0000
0000
ENDCHAR
STARTCHAR char8482
ENCODING 8482
SWIDTH 416 0
DWIDTH 10 0
BBX 10 24 0 -5
BITMAP
0000
0000
0000
0000
7440
27C0
2540
2440
2440
2440
0000
0000
0000
0000
0000
0000
0000
0000
0000
0000
0000
0000
0000
0000
ENDCHAR
STARTCHAR char8486
ENCODING 8486
SWIDTH 416 0
DWIDTH 10 0
BBX 10 24 0 -5
BITMAP
0000
1E00
3F00
6180
6180
6180
6180
6180
6180
6180
6180
6180
6180
6180
6180
3300
3300
3300
F3C0
0000
0000
0000
0000
0000
ENDCHAR
STARTCHAR char8592
ENCODING 8592
SWIDTH 416 0
DWIDTH 10 0
BBX 10 24 0 -5
BITMAP
0000
0000
0000
0000
0000
0000
0000
0800
1800
3000
6000
FFE0
FFE0
6000
3000
1800
0800
0000
0000
0000
0000
0000
0000
0000
ENDCHAR
STARTCHAR char8593
ENCODING 8593
SWIDTH 416 0
DWIDTH 10 0
BBX 10 24 0 -5
BITMAP
0000
0000
0000
0000
0600
0F00
1F80
36C0
6660
0600
0600
0600
0600
0600
0600
0600
0600
0600
0600
0000
0000
0000
0000
0000
ENDCHAR
STARTCHAR char8594
ENCODING 8594
SWIDTH 416 0
DWIDTH 10 0
BBX 10 24 0 -5
BITMAP
0000
0000
0000
0000
0000
0000
0000
0200
0300
0180
00C0
FFE0
FFE0
00C0
0180
0300
0200
0000
0000
0000
0000
0000
0000
0000
ENDCHAR
STARTCHAR char8595
ENCODING 8595
SWIDTH 416 0
DWIDTH 10 0
BBX 10 24 0 -5
BITMAP
0000
0000
0000
0000
0600
0600
0600
0600
0600
0600
0600
0600
0600
0600
6660
36C0
1F80
0F00
0600
0000
0000
0000
0000
0000
ENDCHAR
STARTCHAR char8596
ENCODING 8596
SWIDTH 416 0
DWIDTH 10 0
BBX 10 24 0 -5
BITMAP
0000
0000
0000
0000
0000
0000
0000
0900
1980
30C0
6060
FFF0
FFF0
6060
30C0
1980
0900
0000
0000
0000
0000
0000
0000
0000
ENDCHAR
STARTCHAR char8597
ENCODING 8597
SWIDTH 416 0
DWIDTH 10 0
BBX 10 24 0 -5
BITMAP
0000
0000
0000
0000
0600
0F00
1F80
36C0
6660
0600
0600
0600
0600
0600
6660
36C0
1F80
0F00
0600
0000
0000
0000
0000
0000
ENDCHAR
STARTCHAR char8616
ENCODING 8616
SWIDTH 416 0
DWIDTH 10 0
BBX 10 24 0 -5
BITMAP
0000
0000
0000
0000
0600
0F00
1F80
36C0
6660
0600
0600
0600
0600
6660
36C0
1F80
0F00
0600
7FE0
0000
0000
0000
0000
0000
ENDCHAR
STARTCHAR char8629
ENCODING 8629
SWIDTH 416 0
DWIDTH 10 0
BBX 10 24 0 -5
BITMAP
0000
0000
0000
0000
0060
0060
0060
0060
0060
0860
1860
3060
6060
FFE0
FFE0
6000
3000
1800
0800
0000
0000
0000
0000
0000
ENDCHAR
STARTCHAR char8656
ENCODING 8656
SWIDTH 416 0
DWIDTH 10 0
BBX 10 24 0 -5
BITMAP
0000
0000
0000
0000
0000
0000
0000
0800
1800
3FE0
7FE0
E000
E000
7FE0
3FE0
1800
0800
0000
0000
0000
0000
0000
0000
0000
ENDCHAR
STARTCHAR char8657
ENCODING 8657
SWIDTH 416 0
DWIDTH 10 0
BBX 10 24 0 -5
BITMAP
0000
0000
0000
0000
0600
0F00
1F80
39C0
79E0
1980
1980
1980
1980
1980
1980
1980
1980
1980
1980
0000
0000
0000
0000
0000
ENDCHAR
STARTCHAR char8658
ENCODING 8658
SWIDTH 416 0
DWIDTH 10 0
BBX 10 24 0 -5
BITMAP
0000
0000
0000
0000
0000
0000
0000
0200
0300
FF80
FFC0
00E0
00E0
FFC0
FF80
0300
0200
0000
0000
0000
0000
0000
0000
0000
ENDCHAR
STARTCHAR char8659
ENCODING 8659
SWIDTH 416 0
DWIDTH 10 0
BBX 10 24 0 -5
BITMAP
0000
0000
0000
0000
1980
1980
1980
1980
1980
1980
1980
1980
1980
1980
79E0
39C0
1F80
0F00
0600
0000
0000
0000
0000
0000
ENDCHAR
STARTCHAR char8660
ENCODING 8660
SWIDTH 416 0
DWIDTH 10 0
BBX 10 24 0 -5
BITMAP
0000
0000
0000
0000
0000
0000
0000
0900
1980
3FC0
7FE0
E070
E070
7FE0
3FC0
1980
0900
0000
0000
0000
0000
0000
0000
0000
ENDCHAR
STARTCHAR char8661
ENCODING 8661
SWIDTH 416 0
DWIDTH 10 0
BBX 10 24 0 -5
BITMAP
0000
0000
0000
0000
0600
0F00
1F80
39C0
79E0
1980
1980
1980
1980
1980
79E0
39C0
1F80
0F00
0600
0000
0000
0000
0000
0000
ENDCHAR
STARTCHAR char8709
ENCODING 8709
SWIDTH 416 0
DWIDTH 10 0
BBX 10 24 0 -5
BITMAP
0000
0000
0000
0000
0000
0060
00C0
1F80
31C0
6360
6360
6660
6C60
6C60
38C0
1F80
3000
6000
0000
0000
0000
0000
0000
0000
ENDCHAR
STARTCHAR char8710
ENCODING 8710
SWIDTH 416 0
DWIDTH 10 0
BBX 10 24 0 -5
BITMAP
0000
0000
0000
0000
0600
0600
0600
0F00
0F00
0F00
1980
1980
1980
30C0
30C0
30C0
6060
6060
7FE0
0000
0000
0000
0000
0000
ENDCHAR
STARTCHAR char8712
ENCODING 8712
SWIDTH 416 0
DWIDTH 10 0
BBX 10 24 0 -5
BITMAP
0000
0000
0000
0000
0000
0000
0000
0000
1FE0
3000
6000
6000
6000
7F00
6000
6000
6000
3000
1FE0
0000
0000
0000
0000
0000
ENDCHAR
STARTCHAR char8722
ENCODING 8722
SWIDTH 416 0
DWIDTH 10 0
BBX 10 24 0 -5
BITMAP
0000
0000
0000
0000
0000
0000
0000
0000
0000
0000
0000
7FE0
0000
0000
0000
0000
0000
0000
0000
0000
0000
0000
0000
0000
ENDCHAR
STARTCHAR char8729
ENCODING 8729
SWIDTH 416 0
DWIDTH 10 0
BBX 10 24 0 -5
BITMAP
0000
0000
0000
0000
0000
0000
0000
0000
0000
0E00
1F00
1F00
1F00
0E00
0000
0000
0000
0000
0000
0000
0000
0000
0000
0000
ENDCHAR
STARTCHAR char8730
ENCODING 8730
SWIDTH 416 0
DWIDTH 10 0
BBX 10 24 0 -5
BITMAP
0000
0000
00E0
00E0
00C0
00C0
00C0
00C0
00C0
00C0
60C0
60C0
60C0
30C0
18C0
0CC0
06C0
03C0
01C0
0000
0000
0000
0000
0000
ENDCHAR
STARTCHAR char8734
ENCODING 8734
SWIDTH 416 0
DWIDTH 10 0
BBX 10 24 0 -5
BITMAP
0000
0000
0000
0000
0000
0000
0000
3FC0
6660
6660
6660
6660
6660
6660
6660
3FC0
0000
0000
0000
0000
0000
0000
0000
0000
ENDCHAR
STARTCHAR char8735
ENCODING 8735
SWIDTH 416 0
DWIDTH 10 0
BBX 10 24 0 -5
BITMAP
0000
0000
0000
0000
0000
0000
0000
6000
6000
6000
6000
6000
6000
6000
6000
7FE0
0000
0000
0000
0000
0000
0000
0000
0000
ENDCHAR
STARTCHAR char8743
ENCODING 8743
SWIDTH 416 0
DWIDTH 10 0
BBX 10 24 0 -5
BITMAP
0000
0000
0000
0000
0000
0000
0000
0000
0600
0600
0F00
0F00
1980
1980
30C0
30C0
30C0
6060
6060
0000
0000
0000
0000
0000
ENDCHAR
STARTCHAR char8744
ENCODING 8744
SWIDTH 416 0
DWIDTH 10 0
BBX 10 24 0 -5
BITMAP
0000
0000
0000
0000
0000
0000
0000
0000
6060
6060
30C0
30C0
30C0
1980
1980
0F00
0F00
0600
0600
0000
0000
0000
0000
0000
ENDCHAR
STARTCHAR char8745
ENCODING 8745
SWIDTH 416 0
DWIDTH 10 0
BBX 10 24 0 -5
BITMAP
0000
0000
0000
0000
0000
0000
1F80
30C0
6060
6060
6060
6060
6060
6060
6060
6060
6060
6060
6060
0000
0000
0000
0000
0000
ENDCHAR
STARTCHAR char8746
ENCODING 8746
SWIDTH 416 0
DWIDTH 10 0
BBX 10 24 0 -5
BITMAP
0000
0000
0000
0000
0000
0000
6060
6060
6060
6060
6060
6060
6060
6060
6060
6060
6060
30C0
1F80
0000
0000
0000
0000
0000
ENDCHAR
STARTCHAR char8776
ENCODING 8776
SWIDTH 416 0
DWIDTH 10 0
BBX 10 24 0 -5
BITMAP
0000
0000
0000
0000
0000
0000
0000
0000
3C60
6660
63C0
0000
3C60
6660
63C0
0000
0000
0000
0000
0000
0000
0000
0000
0000
ENDCHAR
STARTCHAR char8800
ENCODING 8800
SWIDTH 416 0
DWIDTH 10 0
BBX 10 24 0 -5
BITMAP
0000
0000
0000
0000
0000
0000
0000
0060
7FE0
0180
0300
0600
0C00
1800
7FE0
6000
0000
0000
0000
0000
0000
0000
0000
0000
ENDCHAR
STARTCHAR char8801
ENCODING 8801
SWIDTH 416 0
DWIDTH 10 0
BBX 10 24 0 -5
BITMAP
0000
0000
0000
0000
0000
0000
7FE0
0000
0000
0000
0000
7FE0
0000
0000
0000
0000
7FE0
0000
0000
0000
0000
0000
0000
0000
ENDCHAR
STARTCHAR char8804
ENCODING 8804
SWIDTH 416 0
DWIDTH 10 0
BBX 10 24 0 -5
BITMAP
0000
0000
0000
0000
00C0
0180
0300
0600
0C00
1800
3000
1800
0C00
0600
0300
0180
00C0
0000
7FE0
0000
0000
0000
0000
0000
ENDCHAR
STARTCHAR char8805
ENCODING 8805
SWIDTH 416 0
DWIDTH 10 0
BBX 10 24 0 -5
BITMAP
0000
0000
0000
0000
3000
1800
0C00
0600
0300
0180
00C0
0180
0300
0600
0C00
1800
3000
0000
7FE0
0000
0000
0000
0000
0000
ENDCHAR
STARTCHAR char8962
ENCODING 8962
SWIDTH 416 0
DWIDTH 10 0
BBX 10 24 0 -5
BITMAP
0000
0000
0000
0000
0000
0000
0600
0600
0F00
1980
1980
30C0
30C0
6060
6060
6060
6060
7FE0
0000
0000
0000
0000
0000
0000
ENDCHAR
STARTCHAR char8976
ENCODING 8976
SWIDTH 416 0
DWIDTH 10 0
BBX 10 24 0 -5
BITMAP
0000
0000
0000
0000
0000
0000
0000
0000
0000
7FE0
6000
6000
6000
6000
6000
0000
0000
0000
0000
0000
0000
0000
0000
0000
ENDCHAR
STARTCHAR char8992
ENCODING 8992
SWIDTH 416 0
DWIDTH 10 0
BBX 10 24 0 -5
BITMAP
0000
0000
0000
0000
03C0
0660
0660
0600
0600
0600
0600
0600
0600
0600
0600
0600
0600
0600
0600
0600
0600
0600
0600
0600
ENDCHAR
STARTCHAR char8993
ENCODING 8993
SWIDTH 416 0
DWIDTH 10 0
BBX 10 24 0 -5
BITMAP
0600
0600
0600
0600
0600
0600
0600
0600
0600
0600
0600
0600
0600
0600
0600
0600
6600
6600
3C00
0000
0000
0000
0000
0000
ENDCHAR
STARTCHAR char9225
ENCODING 9225
SWIDTH 416 0
DWIDTH 10 0
BBX 10 24 0 -5
BITMAP
0000
0000
0000
6600
6600
6600
7E00
6600
6600
6600
0000
0000
07E0
0180
0180
0180
0180
0180
0180
0000
0000
0000
0000
0000
ENDCHAR
STARTCHAR char9226
ENCODING 9226
SWIDTH 416 0
DWIDTH 10 0
BBX 10 24 0 -5
BITMAP
0000
0000
0000
6000
6000
6000
6000
6000
6000
7E00
0000
0000
07E0
0600
0600
0780
0600
0600
0600
0000
0000
0000
0000
0000
ENDCHAR
STARTCHAR char9227
ENCODING 9227
SWIDTH 416 0
DWIDTH 10 0
BBX 10 24 0 -5
BITMAP
0000
0000
0000
6600
6600
6600
6600
6600
3C00
1800
0000
0000
07E0
0180
0180
0180
0180
0180
0180
0000
0000
0000
0000
0000
ENDCHAR
STARTCHAR char9228
ENCODING 9228
SWIDTH 416 0
DWIDTH 10 0
BBX 10 24 0 -5
BITMAP
0000
0000
0000
7E00
6000
6000
7800
6000
6000
6000
0000
0000
07E0
0600
0600
0780
0600
0600
0600
0000
0000
0000
0000
0000
ENDCHAR
STARTCHAR char9229
ENCODING 9229
SWIDTH 416 0
DWIDTH 10 0
BBX 10 24 0 -5
BITMAP
0000
0000
0000
3C00
6600
6000
6000
6000
6600
3C00
0000
0000
07C0
0660
0660
07C0
0780
06C0
0660
0000
0000
0000
0000
0000
ENDCHAR
STARTCHAR char9252
ENCODING 9252
SWIDTH 416 0
DWIDTH 10 0
BBX 10 24 0 -5
BITMAP
0000
0000
0000
6600
6600
7600
7E00
6E00
6600
6600
0000
0000
0600
0600
0600
0600
0600
0600
07E0
0000
0000
0000
0000
0000
ENDCHAR
STARTCHAR char9472
ENCODING 9472
SWIDTH 416 0
DWIDTH 10 0
BBX 10 24 0 -5
BITMAP
0000
0000
0000
0000
0000
0000
0000
0000
0000
0000
0000
FFF0
FFF0
0000
0000
0000
0000
0000
0000
0000
0000
0000
0000
0000
ENDCHAR
STARTCHAR char9473
ENCODING 9473
SWIDTH 416 0
DWIDTH 10 0
BBX 10 24 0 -5
BITMAP
0000
0000
0000
0000
0000
0000
0000
0000
0000
0000
FFF0
FFF0
FFF0
FFF0
0000
0000
0000
0000
0000
0000
0000
0000
0000
0000
ENDCHAR
STARTCHAR char9474
ENCODING 9474
SWIDTH 416 0
DWIDTH 10 0
BBX 10 24 0 -5
BITMAP
0600
0600
0600
0600
0600
0600
0600
0600
0600
0600
0600
0600
0600
0600
0600
0600
0600
0600
0600
0600
0600
0600
0600
0600
ENDCHAR
STARTCHAR char9475
ENCODING 9475
SWIDTH 416 0
DWIDTH 10 0
BBX 10 24 0 -5
BITMAP
0F00
0F00
0F00
0F00
0F00
0F00
0F00
0F00
0F00
0F00
0F00
0F00
0F00
0F00
0F00
0F00
0F00
0F00
0F00
0F00
0F00
0F00
0F00
0F00
ENDCHAR
STARTCHAR char9484
ENCODING 9484
SWIDTH 416 0
DWIDTH 10 0
BBX 10 24 0 -5
BITMAP
0000
0000
0000
0000
0000
0000
0000
0000
0000
0000
0000
07F0
07F0
0600
0600
0600
0600
0600
0600
0600
0600
0600
0600
0600
ENDCHAR
STARTCHAR char9485
ENCODING 9485
SWIDTH 416 0
DWIDTH 10 0
BBX 10 24 0 -5
BITMAP
0000
0000
0000
0000
0000
0000
0000
0000
0000
0000
07F0
07F0
07F0
07F0
0600
0600
0600
0600
0600
0600
0600
0600
0600
0600
ENDCHAR
STARTCHAR char9486
ENCODING 9486
SWIDTH 416 0
DWIDTH 10 0
BBX 10 24 0 -5
BITMAP
0000
0000
0000
0000
0000
0000
0000
0000
0000
0000
0000
0FF0
0FF0
0F00
0F00
0F00
0F00
0F00
0F00
0F00
0F00
0F00
0F00
0F00
ENDCHAR
STARTCHAR char9487
ENCODING 9487
SWIDTH 416 0
DWIDTH 10 0
BBX 10 24 0 -5
BITMAP
0000
0000
0000
0000
0000
0000
0000
0000
0000
0000
0FF0
0FF0
0FF0
0FF0
0F00
0F00
0F00
0F00
0F00
0F00
0F00
0F00
0F00
0F00
ENDCHAR
STARTCHAR char9488
ENCODING 9488
SWIDTH 416 0
DWIDTH 10 0
BBX 10 24 0 -5
BITMAP
0000
0000
0000
0000
0000
0000
0000
0000
0000
0000
0000
FE00
FE00
0600
0600
0600
0600
0600
0600
0600
0600
0600
0600
0600
ENDCHAR
STARTCHAR char9489
ENCODING 9489
SWIDTH 416 0
DWIDTH 10 0
BBX 10 24 0 -5
BITMAP
0000
0000
0000
0000
0000
0000
0000
0000
0000
0000
FE00
FE00
FE00
FE00
0600
0600
0600
0600
0600
0600
0600
0600
0600
0600
ENDCHAR
STARTCHAR char9490
ENCODING 9490
SWIDTH 416 0
DWIDTH 10 0
BBX 10 24 0 -5
BITMAP
0000
0000
0000
0000
0000
0000
0000
0000
0000
0000
0000
FF00
FF00
0F00
0F00
0F00
0F00
0F00
0F00
0F00
0F00
0F00
0F00
0F00
ENDCHAR
STARTCHAR char9491
ENCODING 9491
SWIDTH 416 0
DWIDTH 10 0
BBX 10 24 0 -5
BITMAP
0000
0000
0000
0000
0000
0000
0000
0000
0000
0000
FF00
FF00
FF00
FF00
0F00
0F00
0F00
0F00
0F00
0F00
0F00
0F00
0F00
0F00
ENDCHAR
STARTCHAR char9492
ENCODING 9492
SWIDTH 416 0
DWIDTH 10 0
BBX 10 24 0 -5
BITMAP
0600
0600
0600
0600
0600
0600
0600
0600
0600
0600
0600
07F0
07F0
0000
0000
0000
0000
0000
0000
0000
0000
0000
0000
0000
ENDCHAR
STARTCHAR char9493
ENCODING 9493
SWIDTH 416 0
DWIDTH 10 0
BBX 10 24 0 -5
BITMAP
0600
0600
0600
0600
0600
0600
0600
0600
0600
0600
07F0
07F0
07F0
07F0
0000
0000
0000
0000
0000
0000
0000
0000
0000
0000
ENDCHAR
STARTCHAR char9494
ENCODING 9494
SWIDTH 416 0
DWIDTH 10 0
BBX 10 24 0 -5
BITMAP
0F00
0F00
0F00
0F00
0F00
0F00
0F00
0F00
0F00
0F00
0F00
0FF0
0FF0
0000
0000
0000
0000
0000
0000
0000
0000
0000
0000
0000
ENDCHAR
STARTCHAR char9495
ENCODING 9495
SWIDTH 416 0
DWIDTH 10 0
BBX 10 24 0 -5
BITMAP
0F00
0F00
0F00
0F00
0F00
0F00
0F00
0F00
0F00
0F00
0FF0
0FF0
0FF0
0FF0
0000
0000
0000
0000
0000
0000
0000
0000
0000
0000
ENDCHAR
STARTCHAR char9496
ENCODING 9496
SWIDTH 416 0
DWIDTH 10 0
BBX 10 24 0 -5
BITMAP
0600
0600
0600
0600
0600
0600
0600
0600
0600
0600
0600
FE00
FE00
0000
0000
0000
0000
0000
0000
0000
0000
0000
0000
0000
ENDCHAR
STARTCHAR char9497
ENCODING 9497
SWIDTH 416 0
DWIDTH 10 0
BBX 10 24 0 -5
BITMAP
0600
0600
0600
0600
0600
0600
0600
0600
0600
0600
FE00
FE00
FE00
FE00
0000
0000
0000
0000
0000
0000
0000
0000
0000
0000
ENDCHAR
STARTCHAR char9498
ENCODING 9498
SWIDTH 416 0
DWIDTH 10 0
BBX 10 24 0 -5
BITMAP
0F00
0F00
0F00
0F00
0F00
0F00
0F00
0F00
0F00
0F00
0F00
FF00
FF00
0000
0000
0000
0000
0000
0000
0000
0000
0000
0000
0000
ENDCHAR
STARTCHAR char9499
ENCODING 9499
SWIDTH 416 0
DWIDTH 10 0
BBX 10 24 0 -5
BITMAP
0F00
0F00
0F00
0F00
0F00
0F00
0F00
0F00
0F00
0F00
FF00
FF00
FF00
FF00
0000
0000
0000
0000
0000
0000
0000
0000
0000
0000
ENDCHAR
STARTCHAR char9500
ENCODING 9500
SWIDTH 416 0
DWIDTH 10 0
BBX 10 24 0 -5
BITMAP
0600
0600
0600
0600
0600
0600
0600
0600
0600
0600
0600
07F0
07F0
0600
0600
0600
0600
0600
0600
0600
0600
0600
0600
0600
ENDCHAR
STARTCHAR char9501
ENCODING 9501
SWIDTH 416 0
DWIDTH 10 0
BBX 10 24 0 -5
BITMAP
0600
0600
0600
0600
0600
0600
0600
0600
0600
0600
07F0
07F0
07F0
07F0
0600
0600
0600
0600
0600
0600
0600
0600
0600
0600
ENDCHAR
STARTCHAR char9502
ENCODING 9502
SWIDTH 416 0
DWIDTH 10 0
BBX 10 24 0 -5
BITMAP
0F00
0F00
0F00
0F00
0F00
0F00
0F00
0F00
0F00
0F00
0F00
0FF0
0FF0
0600
0600
0600
0600
0600
0600
0600
0600
0600
0600
0600
ENDCHAR
STARTCHAR char9503
ENCODING 9503
SWIDTH 416 0
DWIDTH 10 0
BBX 10 24 0 -5
BITMAP
0600
0600
0600
0600
0600
0600
0600
0600
0600
0600
0600
0FF0
0FF0
0F00
0F00
0F00
0F00
0F00
0F00
0F00
0F00
0F00
0F00
0F00
ENDCHAR
STARTCHAR char9504
ENCODING 9504
SWIDTH 416 0
DWIDTH 10 0
BBX 10 24 0 -5
BITMAP
0F00
0F00
0F00
0F00
0F00
0F00
0F00
0F00
0F00
0F00
0F00
0FF0
0FF0
0F00
0F00
0F00
0F00
0F00
0F00
0F00
0F00
0F00
0F00
0F00
ENDCHAR
STARTCHAR char9505
ENCODING 9505
SWIDTH 416 0
DWIDTH 10 0
BBX 10 24 0 -5
BITMAP
0F00
0F00
0F00
0F00
0F00
0F00
0F00
0F00
0F00
0F00
0FF0
0FF0
0FF0
0FF0
0600
0600
0600
0600
0600
0600
0600
0600
0600
0600
ENDCHAR
STARTCHAR char9506
ENCODING 9506
SWIDTH 416 0
DWIDTH 10 0
BBX 10 24 0 -5
BITMAP
0600
0600
0600
0600
0600
0600
0600
0600
0600
0600
0FF0
0FF0
0FF0
0FF0
0F00
0F00
0F00
0F00
0F00
0F00
0F00
0F00
0F00
0F00
ENDCHAR
STARTCHAR char9507
ENCODING 9507
SWIDTH 416 0
DWIDTH 10 0
BBX 10 24 0 -5
BITMAP
0F00
0F00
0F00
0F00
0F00
0F00
0F00
0F00
0F00
0F00
0FF0
0FF0
0FF0
0FF0
0F00
0F00
0F00
0F00
0F00
0F00
0F00
0F00
0F00
0F00
ENDCHAR
STARTCHAR char9508
ENCODING 9508
SWIDTH 416 0
DWIDTH 10 0
BBX 10 24 0 -5
BITMAP
0600
0600
0600
0600
0600
0600
0600
0600
0600
0600
0600
FE00
FE00
0600
0600
0600
0600
0600
0600
0600
0600
0600
0600
0600
ENDCHAR
STARTCHAR char9509
ENCODING 9509
SWIDTH 416 0
DWIDTH 10 0
BBX 10 24 0 -5
BITMAP
0600
0600
0600
0600
0600
0600
0600
0600
0600
0600
FE00
FE00
FE00
FE00
0600
0600
0600
0600
0600
0600
0600
0600
0600
0600
ENDCHAR
STARTCHAR char9510
ENCODING 9510
SWIDTH 416 0
DWIDTH 10 0
BBX 10 24 0 -5
BITMAP
0F00
0F00
0F00
0F00
0F00
0F00
0F00
0F00
0F00
0F00
0F00
FF00
FF00
0600
0600
0600
0600
0600
0600
0600
0600
0600
0600
0600
ENDCHAR
STARTCHAR char9511
ENCODING 9511
SWIDTH 416 0
DWIDTH 10 0
BBX 10 24 0 -5
BITMAP
0600
0600
0600
0600
0600
0600
0600
0600
0600
0600
0600
FF00
FF00
0F00
0F00
0F00
0F00
0F00
0F00
0F00
0F00
0F00
0F00
0F00
ENDCHAR
STARTCHAR char9512
ENCODING 9512
SWIDTH 416 0
DWIDTH 10 0
BBX 10 24 0 -5
BITMAP
0F00
0F00
0F00
0F00
0F00
0F00
0F00
0F00
0F00
0F00
0F00
FF00
FF00
0F00
0F00
0F00
0F00
0F00
0F00
0F00
0F00
0F00
0F00
0F00
ENDCHAR
STARTCHAR char9513
ENCODING 9513
SWIDTH 416 0
DWIDTH 10 0
BBX 10 24 0 -5
BITMAP
0F00
0F00
0F00
0F00
0F00
0F00
0F00
0F00
0F00
0F00
FF00
FF00
FF00
FF00
0600
0600
0600
0600
0600
0600
0600
0600
0600
0600
ENDCHAR
STARTCHAR char9514
ENCODING 9514
SWIDTH 416 0
DWIDTH 10 0
BBX 10 24 0 -5
BITMAP
0600
0600
0600
0600
0600
0600
0600
0600
0600
0600
FF00
FF00
FF00
FF00
0F00
0F00
0F00
0F00
0F00
0F00
0F00
0F00
0F00
0F00
ENDCHAR
STARTCHAR char9515
ENCODING 9515
SWIDTH 416 0
DWIDTH 10 0
BBX 10 24 0 -5
BITMAP
0F00
0F00
0F00
0F00
0F00
0F00
0F00
0F00
0F00
0F00
FF00
FF00
FF00
FF00
0F00
0F00
0F00
0F00
0F00
0F00
0F00
0F00
0F00
0F00
ENDCHAR
STARTCHAR char9516
ENCODING 9516
SWIDTH 416 0
DWIDTH 10 0
BBX 10 24 0 -5
BITMAP
0000
0000
0000
0000
0000
0000
0000
0000
0000
0000
0000
FFF0
FFF0
0600
0600
0600
0600
0600
0600
0600
0600
0600
0600
0600
ENDCHAR
STARTCHAR char9517
ENCODING 9517
SWIDTH 416 0
DWIDTH 10 0
BBX 10 24 0 -5
BITMAP
0000
0000
0000
0000
0000
0000
0000
0000
0000
0000
FE00
FFF0
FFF0
FE00
0600
0600
0600
0600
0600
0600
0600
0600
0600
0600
ENDCHAR
STARTCHAR char9518
ENCODING 9518
SWIDTH 416 0
DWIDTH 10 0
BBX 10 24 0 -5
BITMAP
0000
0000
0000
0000
0000
0000
0000
0000
0000
0000
07F0
FFF0
FFF0
07F0
0600
0600
0600
0600
0600
0600
0600
0600
0600
0600
ENDCHAR
STARTCHAR char9519
ENCODING 9519
SWIDTH 416 0
DWIDTH 10 0
BBX 10 24 0 -5
BITMAP
0000
0000
0000
0000
0000
0000
0000
0000
0000
0000
FFF0
FFF0
FFF0
FFF0
0600
0600
0600
0600
0600
0600
0600
0600
0600
0600
ENDCHAR
STARTCHAR char9520
ENCODING 9520
SWIDTH 416 0
DWIDTH 10 0
BBX 10 24 0 -5
BITMAP
0000
0000
0000
0000
0000
0000
0000
0000
0000
0000
0000
FFF0
FFF0
0F00
0F00
0F00
0F00
0F00
0F00
0F00
0F00
0F00
0F00
0F00
ENDCHAR
STARTCHAR char9521
ENCODING 9521
SWIDTH 416 0
DWIDTH 10 0
BBX 10 24 0 -5
BITMAP
0000
0000
0000
0000
0000
0000
0000
0000
0000
0000
FF00
FFF0
FFF0
FF00
0F00
0F00
0F00
0F00
0F00
0F00
0F00
0F00
0F00
0F00
ENDCHAR
STARTCHAR char9522
ENCODING 9522
SWIDTH 416 0
DWIDTH 10 0
BBX 10 24 0 -5
BITMAP
0000
0000
0000
0000
0000
0000
0000
0000
0000
0000
0FF0
FFF0
FFF0
0FF0
0F00
0F00
0F00
0F00
0F00
0F00
0F00
0F00
0F00
0F00
ENDCHAR
STARTCHAR char9523
ENCODING 9523
SWIDTH 416 0
DWIDTH 10 0
BBX 10 24 0 -5
BITMAP
0000
0000
0000
0000
0000
0000
0000
0000
0000
0000
FFF0
FFF0
FFF0
FFF0
0F00
0F00
0F00
0F00
0F00
0F00
0F00
0F00
0F00
0F00
ENDCHAR
STARTCHAR char9524
ENCODING 9524
SWIDTH 416 0
DWIDTH 10 0
BBX 10 24 0 -5
BITMAP
0600
0600
0600
0600
0600
0600
0600
0600
0600
0600
0600
FFF0
FFF0
0000
0000
0000
0000
0000
0000
0000
0000
0000
0000
0000
ENDCHAR
STARTCHAR char9525
ENCODING 9525
SWIDTH 416 0
DWIDTH 10 0
BBX 10 24 0 -5
BITMAP
0600
0600
0600
0600
0600
0600
0600
0600
0600
0600
FE00
FFF0
FFF0
FE00
0000
0000
0000
0000
0000
0000
0000
0000
0000
0000
ENDCHAR
STARTCHAR char9526
ENCODING 9526
SWIDTH 416 0
DWIDTH 10 0
BBX 10 24 0 -5
BITMAP
0600
0600
0600
0600
0600
0600
0600
0600
0600
0600
07F0
FFF0
FFF0
07F0
0000
0000
0000
0000
0000
0000
0000
0000
0000
0000
ENDCHAR
STARTCHAR char9527
ENCODING 9527
SWIDTH 416 0
DWIDTH 10 0
BBX 10 24 0 -5
BITMAP
0600
0600
0600
0600
0600
0600
0600
0600
0600
0600
FFF0
FFF0
FFF0
FFF0
0000
0000
0000
0000
0000
0000
0000
0000
0000
0000
ENDCHAR
STARTCHAR char9528
ENCODING 9528
SWIDTH 416 0
DWIDTH 10 0
BBX 10 24 0 -5
BITMAP
0F00
0F00
0F00
0F00
0F00
0F00
0F00
0F00
0F00
0F00
0F00
FFF0
FFF0
0000
0000
0000
0000
0000
0000
0000
0000
0000
0000
0000
ENDCHAR
STARTCHAR char9529
ENCODING 9529
SWIDTH 416 0
DWIDTH 10 0
BBX 10 24 0 -5
BITMAP
0F00
0F00
0F00
0F00
0F00
0F00
0F00
0F00
0F00
0F00
FF00
FFF0
FFF0
FF00
0000
0000
0000
0000
0000
0000
0000
0000
0000
0000
ENDCHAR
STARTCHAR char9530
ENCODING 9530
SWIDTH 416 0
DWIDTH 10 0
BBX 10 24 0 -5
BITMAP
0F00
0F00
0F00
0F00
0F00
0F00
0F00
0F00
0F00
0F00
0FF0
FFF0
FFF0
0FF0
0000
0000
0000
0000
0000
0000
0000
0000
0000
0000
ENDCHAR
STARTCHAR char9531
ENCODING 9531
SWIDTH 416 0
DWIDTH 10 0
BBX 10 24 0 -5
BITMAP
0F00
0F00
0F00
0F00
0F00
0F00
0F00
0F00
0F00
0F00
FFF0
FFF0
FFF0
FFF0
0000
0000
0000
0000
0000
0000
0000
0000
0000
0000
ENDCHAR
STARTCHAR char9532
ENCODING 9532
SWIDTH 416 0
DWIDTH 10 0
BBX 10 24 0 -5
BITMAP
0600
0600
0600
0600
0600
0600
0600
0600
0600
0600
0600
FFF0
FFF0
0600
0600
0600
0600
0600
0600
0600
0600
0600
0600
0600
ENDCHAR
STARTCHAR char9533
ENCODING 9533
SWIDTH 416 0
DWIDTH 10 0
BBX 10 24 0 -5
BITMAP
0600
0600
0600
0600
0600
0600
0600
0600
0600
0600
FE00
FFF0
FFF0
FE00
0600
0600
0600
0600
0600
0600
0600
0600
0600
0600
ENDCHAR
STARTCHAR char9534
ENCODING 9534
SWIDTH 416 0
DWIDTH 10 0
BBX 10 24 0 -5
BITMAP
0600
0600
0600
0600
0600
0600
0600
0600
0600
0600
07F0
FFF0
FFF0
07F0
0600
0600
0600
0600
0600
0600
0600
0600
0600
0600
ENDCHAR
STARTCHAR char9535
ENCODING 9535
SWIDTH 416 0
DWIDTH 10 0
BBX 10 24 0 -5
BITMAP
0600
0600
0600
0600
0600
0600
0600
0600
0600
0600
FFF0
FFF0
FFF0
FFF0
0600
0600
0600
0600
0600
0600
0600
0600
0600
0600
ENDCHAR
STARTCHAR char9536
ENCODING 9536
SWIDTH 416 0
DWIDTH 10 0
BBX 10 24 0 -5
BITMAP
0F00
0F00
0F00
0F00
0F00
0F00
0F00
0F00
0F00
0F00
0F00
FFF0
FFF0
0600
0600
0600
0600
0600
0600
0600
0600
0600
0600
0600
ENDCHAR
STARTCHAR char9537
ENCODING 9537
SWIDTH 416 0
DWIDTH 10 0
BBX 10 24 0 -5
BITMAP
0600
0600
0600
0600
0600
0600
0600
0600
0600
0600
0600
FFF0
FFF0
0F00
0F00
0F00
0F00
0F00
0F00
0F00
0F00
0F00
0F00
0F00
ENDCHAR
STARTCHAR char9538
ENCODING 9538
SWIDTH 416 0
DWIDTH 10 0
BBX 10 24 0 -5
BITMAP
0F00
0F00
0F00
0F00
0F00
0F00
0F00
0F00
0F00
0F00
0F00
FFF0
FFF0
0F00
0F00
0F00
0F00
0F00
0F00
0F00
0F00
0F00
0F00
0F00
ENDCHAR
STARTCHAR char9539
ENCODING 9539
SWIDTH 416 0
DWIDTH 10 0
BBX 10 24 0 -5
BITMAP
0F00
0F00
0F00
0F00
0F00
0F00
0F00
0F00
0F00
0F00
FF00
FFF0
FFF0
FE00
0600
0600
0600
0600
0600
0600
0600
0600
0600
0600
ENDCHAR
STARTCHAR char9540
ENCODING 9540
SWIDTH 416 0
DWIDTH 10 0
BBX 10 24 0 -5
BITMAP
0F00
0F00
0F00
0F00
0F00
0F00
0F00
0F00
0F00
0F00
0FF0
FFF0
FFF0
07F0
0600
0600
0600
0600
0600
0600
0600
0600
0600
0600
ENDCHAR
STARTCHAR char9541
ENCODING 9541
SWIDTH 416 0
DWIDTH 10 0
BBX 10 24 0 -5
BITMAP
0600
0600
0600
0600
0600
0600
0600
0600
0600
0600
FE00
FFF0
FFF0
FF00
0F00
0F00
0F00
0F00
0F00
0F00
0F00
0F00
0F00
0F00
ENDCHAR
STARTCHAR char9542
ENCODING 9542
SWIDTH 416 0
DWIDTH 10 0
BBX 10 24 0 -5
BITMAP
0600
0600
0600
0600
0600
0600
0600
0600
0600
0600
07F0
FFF0
FFF0
0FF0
0F00
0F00
0F00
0F00
0F00
0F00
0F00
0F00
0F00
0F00
ENDCHAR
STARTCHAR char9543
ENCODING 9543
SWIDTH 416 0
DWIDTH 10 0
BBX 10 24 0 -5
BITMAP
0F00
0F00
0F00
0F00
0F00
0F00
0F00
0F00
0F00
0F00
FFF0
FFF0
FFF0
FFF0
0600
0600
0600
0600
0600
0600
0600
0600
0600
0600
ENDCHAR
STARTCHAR char9544
ENCODING 9544
SWIDTH 416 0
DWIDTH 10 0
BBX 10 24 0 -5
BITMAP
0600
0600
0600
0600
0600
0600
0600
0600
0600
0600
FFF0
FFF0
FFF0
FFF0
0F00
0F00
0F00
0F00
0F00
0F00
0F00
0F00
0F00
0F00
ENDCHAR
STARTCHAR char9545
ENCODING 9545
SWIDTH 416 0
DWIDTH 10 0
BBX 10 24 0 -5
BITMAP
0F00
0F00
0F00
0F00
0F00
0F00
0F00
0F00
0F00
0F00
FF00
FFF0
FFF0
FF00
0F00
0F00
0F00
0F00
0F00
0F00
0F00
0F00
0F00
0F00
ENDCHAR
STARTCHAR char9546
ENCODING 9546
SWIDTH 416 0
DWIDTH 10 0
BBX 10 24 0 -5
BITMAP
0F00
0F00
0F00
0F00
0F00
0F00
0F00
0F00
0F00
0F00
0FF0
FFF0
FFF0
0FF0
0F00
0F00
0F00
0F00
0F00
0F00
0F00
0F00
0F00
0F00
ENDCHAR
STARTCHAR char9547
ENCODING 9547
SWIDTH 416 0
DWIDTH 10 0
BBX 10 24 0 -5
BITMAP
0F00
0F00
0F00
0F00
0F00
0F00
0F00
0F00
0F00
0F00
FFF0
FFF0
FFF0
FFF0
0F00
0F00
0F00
0F00
0F00
0F00
0F00
0F00
0F00
0F00
ENDCHAR
STARTCHAR char9552
ENCODING 9552
SWIDTH 416 0
DWIDTH 10 0
BBX 10 24 0 -5
BITMAP
0000
0000
0000
0000
0000
0000
0000
0000
0000
FFF0
FFF0
0000
0000
FFF0
FFF0
0000
0000
0000
0000
0000
0000
0000
0000
0000
ENDCHAR
STARTCHAR char9553
ENCODING 9553
SWIDTH 416 0
DWIDTH 10 0
BBX 10 24 0 -5
BITMAP
1980
1980
1980
1980
1980
1980
1980
1980
1980
1980
1980
1980
1980
1980
1980
1980
1980
1980
1980
1980
1980
1980
1980
1980
ENDCHAR
STARTCHAR char9554
ENCODING 9554
SWIDTH 416 0
DWIDTH 10 0
BBX 10 24 0 -5
BITMAP
0000
0000
0000
0000
0000
0000
0000
0000
0000
07F0
07F0
0600
0600
07F0
07F0
0600
0600
0600
0600
0600
0600
0600
0600
0600
ENDCHAR
STARTCHAR char9555
ENCODING 9555
SWIDTH 416 0
DWIDTH 10 0
BBX 10 24 0 -5
BITMAP
0000
0000
0000
0000
0000
0000
0000
0000
0000
0000
0000
1FF0
1FF0
1980
1980
1980
1980
1980
1980
1980
1980
1980
1980
1980
ENDCHAR
STARTCHAR char9556
ENCODING 9556
SWIDTH 416 0
DWIDTH 10 0
BBX 10 24 0 -5
BITMAP
0000
0000
0000
0000
0000
0000
0000
0000
0000
1FF0
1FF0
1800
1800
19F0
19F0
1980
1980
1980
1980
1980
1980
1980
1980
1980
ENDCHAR
STARTCHAR char9557
ENCODING 9557
SWIDTH 416 0
DWIDTH 10 0
BBX 10 24 0 -5
BITMAP
0000
0000
0000
0000
0000
0000
0000
0000
0000
FE00
FE00
0600
0600
FE00
FE00
0600
0600
0600
0600
0600
0600
0600
0600
0600
ENDCHAR
STARTCHAR char9558
ENCODING 9558
SWIDTH 416 0
DWIDTH 10 0
BBX 10 24 0 -5
BITMAP
0000
0000
0000
0000
0000
0000
0000
0000
0000
0000
0000
FF80
FF80
1980
1980
1980
1980
1980
1980
1980
1980
1980
1980
1980
ENDCHAR
STARTCHAR char9559
ENCODING 9559
SWIDTH 416 0
DWIDTH 10 0
BBX 10 24 0 -5
BITMAP
0000
0000
0000
0000
0000
0000
0000
0000
0000
FF80
FF80
0180
0180
F980
F980
1980
1980
1980
1980
1980
1980
1980
1980
1980
ENDCHAR
STARTCHAR char9560
ENCODING 9560
SWIDTH 416 0
DWIDTH 10 0
BBX 10 24 0 -5
BITMAP
0600
0600
0600
0600
0600
0600
0600
0600
0600
07F0
07F0
0600
0600
07F0
07F0
0000
0000
0000
0000
0000
0000
0000
0000
0000
ENDCHAR
STARTCHAR char9561
ENCODING 9561
SWIDTH 416 0
DWIDTH 10 0
BBX 10 24 0 -5
BITMAP
1980
1980
1980
1980
1980
1980
1980
1980
1980
1980
1980
1FF0
1FF0
0000
0000
0000
0000
0000
0000
0000
0000
0000
0000
0000
ENDCHAR
STARTCHAR char9562
ENCODING 9562
SWIDTH 416 0
DWIDTH 10 0
BBX 10 24 0 -5
BITMAP
1980
1980
1980
1980
1980
1980
1980
1980
1980
19F0
19F0
1800
1800
1FF0
1FF0
0000
0000
0000
0000
0000
0000
0000
0000
0000
ENDCHAR
STARTCHAR char9563
ENCODING 9563
SWIDTH 416 0
DWIDTH 10 0
BBX 10 24 0 -5
BITMAP
0600
0600
0600
0600
0600
0600
0600
0600
0600
FE00
FE00
0600
0600
FE00
FE00
0000
0000
0000
0000
0000
0000
0000
0000
0000
ENDCHAR
STARTCHAR char9564
ENCODING 9564
SWIDTH 416 0
DWIDTH 10 0
BBX 10 24 0 -5
BITMAP
1980
1980
1980
1980
1980
1980
1980
1980
1980
1980
1980
FF80
FF80
0000
0000
0000
0000
0000
0000
0000
0000
0000
0000
0000
ENDCHAR
STARTCHAR char9565
ENCODING 9565
SWIDTH 416 0
DWIDTH 10 0
BBX 10 24 0 -5
BITMAP
1980
1980
1980
1980
1980
1980
1980
1980
1980
F980
F980
0180
0180
FF80
FF80
0000
0000
0000
0000
0000
0000
0000
0000
0000
ENDCHAR
STARTCHAR char9566
ENCODING 9566
SWIDTH 416 0
DWIDTH 10 0
BBX 10 24 0 -5
BITMAP
0600
0600
0600
0600
0600
0600
0600
0600
0600
07F0
07F0
0600
0600
07F0
07F0
0600
0600
0600
0600
0600
0600
0600
0600
0600
ENDCHAR
STARTCHAR char9567
ENCODING 9567
SWIDTH 416 0
DWIDTH 10 0
BBX 10 24 0 -5
BITMAP
1980
1980
1980
1980
1980
1980
1980
1980
1980
1980
1980
19F0
19F0
1980
1980
1980
1980
1980
1980
1980
1980
1980
1980
1980
ENDCHAR
STARTCHAR char9568
ENCODING 9568
SWIDTH 416 0
DWIDTH 10 0
BBX 10 24 0 -5
BITMAP
1980
1980
1980
1980
1980
1980
1980
1980
1980
19F0
19F0
1800
1800
19F0
19F0
1980
1980
1980
1980
1980
1980
1980
1980
1980
ENDCHAR
STARTCHAR char9569
ENCODING 9569
SWIDTH 416 0
DWIDTH 10 0
BBX 10 24 0 -5
BITMAP
0600
0600
0600
0600
0600
0600
0600
0600
0600
FE00
FE00
0600
0600
FE00
FE00
0600
0600
0600
0600
0600
0600
0600
0600
0600
ENDCHAR
STARTCHAR char9570
ENCODING 9570
SWIDTH 416 0
DWIDTH 10 0
BBX 10 24 0 -5
BITMAP
1980
1980
1980
1980
1980
1980
1980
1980
1980
1980
1980
F980
F980
1980
1980
1980
1980
1980
1980
1980
1980
1980
1980
1980
ENDCHAR
STARTCHAR char9571
ENCODING 9571
SWIDTH 416 0
DWIDTH 10 0
BBX 10 24 0 -5
BITMAP
1980
1980
1980
1980
1980
1980
1980
1980
1980
F980
F980
0180
0180
F980
F980
1980
1980
1980
1980
1980
1980
1980
1980
1980
ENDCHAR
STARTCHAR char9572
ENCODING 9572
SWIDTH 416 0
DWIDTH 10 0
BBX 10 24 0 -5
BITMAP
0000
0000
0000
0000
0000
0000
0000
0000
0000
FFF0
FFF0
0000
0000
FFF0
FFF0
0600
0600
0600
0600
0600
0600
0600
0600
0600
ENDCHAR
STARTCHAR char9573
ENCODING 9573
SWIDTH 416 0
DWIDTH 10 0
BBX 10 24 0 -5
BITMAP
0000
0000
0000
0000
0000
0000
0000
0000
0000
0000
0000
FFF0
FFF0
1980
1980
1980
1980
1980
1980
1980
1980
1980
1980
1980
ENDCHAR
STARTCHAR char9574
ENCODING 9574
SWIDTH 416 0
DWIDTH 10 0
BBX 10 24 0 -5
BITMAP
0000
0000
0000
0000
0000
0000
0000
0000
0000
FFF0
FFF0
0000
0000
F9F0
F9F0
1980
1980
1980
1980
1980
1980
1980
1980
1980
ENDCHAR
STARTCHAR char9575
ENCODING 9575
SWIDTH 416 0
DWIDTH 10 0
BBX 10 24 0 -5
BITMAP
0600
0600
0600
0600
0600
0600
0600
0600
0600
FFF0
FFF0
0000
0000
FFF0
FFF0
0000
0000
0000
0000
0000
0000
0000
0000
0000
ENDCHAR
STARTCHAR char9576
ENCODING 9576
SWIDTH 416 0
DWIDTH 10 0
BBX 10 24 0 -5
BITMAP
1980
1980
1980
1980
1980
1980
1980
1980
1980
1980
1980
FFF0
FFF0
0000
0000
0000
0000
0000
0000
0000
0000
0000
0000
0000
ENDCHAR
STARTCHAR char9577
ENCODING 9577
SWIDTH 416 0
DWIDTH 10 0
BBX 10 24 0 -5
BITMAP
1980
1980
1980
1980
1980
1980
1980
1980
1980
F9F0
F9F0
0000
0000
FFF0
FFF0
0000
0000
0000
0000
0000
0000
0000
0000
0000
ENDCHAR
STARTCHAR char9578
ENCODING 9578
SWIDTH 416 0
DWIDTH 10 0
BBX 10 24 0 -5
BITMAP
0600
0600
0600
0600
0600
0600
0600
0600
0600
FFF0
FFF0
0600
0600
FFF0
FFF0
0600
0600
0600
0600
0600
0600
0600
0600
0600
ENDCHAR
STARTCHAR char9579
ENCODING 9579
SWIDTH 416 0
DWIDTH 10 0
BBX 10 24 0 -5
BITMAP
1980
1980
1980
1980
1980
1980
1980
1980
1980
1980
1980
FFF0
FFF0
1980
1980
1980
1980
1980
1980
1980
1980
1980
1980
1980
ENDCHAR
STARTCHAR char9580
ENCODING 9580
SWIDTH 416 0
DWIDTH 10 0
BBX 10 24 0 -5
BITMAP
1980
1980
1980
1980
1980
1980
1980
1980
1980
F9F0
F9F0
0000
0000
F9F0
F9F0
1980
1980
1980
1980
1980
1980
1980
1980
1980
ENDCHAR
STARTCHAR char9600
ENCODING 9600
SWIDTH 416 0
DWIDTH 10 0
BBX 10 24 0 -5
BITMAP
FFF0
FFF0
FFF0
FFF0
FFF0
FFF0
FFF0
FFF0
FFF0
FFF0
FFF0
FFF0
0000
0000
0000
0000
0000
0000
0000
0000
0000
0000
0000
0000
ENDCHAR
STARTCHAR char9604
ENCODING 9604
SWIDTH 416 0
DWIDTH 10 0
BBX 10 24 0 -5
BITMAP
0000
0000
0000
0000
0000
0000
0000
0000
0000
0000
0000
0000
FFF0
FFF0
FFF0
FFF0
FFF0
FFF0
FFF0
FFF0
FFF0
FFF0
FFF0
FFF0
ENDCHAR
STARTCHAR char9608
ENCODING 9608
SWIDTH 416 0
DWIDTH 10 0
BBX 10 24 0 -5
BITMAP
FFF0
FFF0
FFF0
FFF0
FFF0
FFF0
FFF0
FFF0
FFF0
FFF0
FFF0
FFF0
FFF0
FFF0
FFF0
FFF0
FFF0
FFF0
FFF0
FFF0
FFF0
FFF0
FFF0
FFF0
ENDCHAR
STARTCHAR char9612
ENCODING 9612
SWIDTH 416 0
DWIDTH 10 0
BBX 10 24 0 -5
BITMAP
FC00
FC00
FC00
FC00
FC00
FC00
FC00
FC00
FC00
FC00
FC00
FC00
FC00
FC00
FC00
FC00
FC00
FC00
FC00
FC00
FC00
FC00
FC00
FC00
ENDCHAR
STARTCHAR char9616
ENCODING 9616
SWIDTH 416 0
DWIDTH 10 0
BBX 10 24 0 -5
BITMAP
03F0
03F0
03F0
03F0
03F0
03F0
03F0
03F0
03F0
03F0
03F0
03F0
03F0
03F0
03F0
03F0
03F0
03F0
03F0
03F0
03F0
03F0
03F0
03F0
ENDCHAR
STARTCHAR char9617
ENCODING 9617
SWIDTH 416 0
DWIDTH 10 0
BBX 10 24 0 -5
BITMAP
AAA0
0000
AAA0
0000
AAA0
0000
AAA0
0000
AAA0
0000
AAA0
0000
AAA0
0000
AAA0
0000
AAA0
0000
AAA0
0000
AAA0
0000
AAA0
0000
ENDCHAR
STARTCHAR char9618
ENCODING 9618
SWIDTH 416 0
DWIDTH 10 0
BBX 10 24 0 -5
BITMAP
AAA0
5550
AAA0
5550
AAA0
5550
AAA0
5550
AAA0
5550
AAA0
5550
AAA0
5550
AAA0
5550
AAA0
5550
AAA0
5550
AAA0
5550
AAA0
5550
ENDCHAR
STARTCHAR char9619
ENCODING 9619
SWIDTH 416 0
DWIDTH 10 0
BBX 10 24 0 -5
BITMAP
FFF0
AAA0
FFF0
AAA0
FFF0
AAA0
FFF0
AAA0
FFF0
AAA0
FFF0
AAA0
FFF0
AAA0
FFF0
AAA0
FFF0
AAA0
FFF0
AAA0
FFF0
AAA0
FFF0
AAA0
ENDCHAR
STARTCHAR char9632
ENCODING 9632
SWIDTH 416 0
DWIDTH 10 0
BBX 10 24 0 -5
BITMAP
0000
0000
0000
0000
0000
0000
0000
3FC0
3FC0
3FC0
3FC0
3FC0
3FC0
3FC0
3FC0
3FC0
3FC0
0000
0000
0000
0000
0000
0000
0000
ENDCHAR
STARTCHAR char9644
ENCODING 9644
SWIDTH 416 0
DWIDTH 10 0
BBX 10 24 0 -5
BITMAP
0000
0000
0000
0000
0000
0000
0000
0000
0000
0000
0000
0000
0000
FFE0
FFE0
FFE0
FFE0
FFE0
FFE0
0000
0000
0000
0000
0000
ENDCHAR
STARTCHAR char9646
ENCODING 9646
SWIDTH 416 0
DWIDTH 10 0
BBX 10 24 0 -5
BITMAP
0000
0000
0000
0000
7FE0
7FE0
7FE0
7FE0
7FE0
7FE0
7FE0
7FE0
7FE0
7FE0
7FE0
7FE0
7FE0
7FE0
7FE0
0000
0000
0000
0000
0000
ENDCHAR
STARTCHAR char9650
ENCODING 9650
SWIDTH 416 0
DWIDTH 10 0
BBX 10 24 0 -5
BITMAP
0000
0000
0000
0000
0000
0000
0600
0600
0F00
0F00
1F80
1F80
3FC0
3FC0
7FE0
7FE0
FFF0
FFF0
0000
0000
0000
0000
0000
0000
ENDCHAR
STARTCHAR char9654
ENCODING 9654
SWIDTH 416 0
DWIDTH 10 0
BBX 10 24 0 -5
BITMAP
0000
0000
0000
0000
0000
0000
C000
F000
FC00
FF00
FFC0
FFF0
FFF0
FFC0
FF00
FC00
F000
C000
0000
0000
0000
0000
0000
0000
ENDCHAR
STARTCHAR char9660
ENCODING 9660
SWIDTH 416 0
DWIDTH 10 0
BBX 10 24 0 -5
BITMAP
0000
0000
0000
0000
0000
0000
FFF0
FFF0
7FE0
7FE0
3FC0
3FC0
1F80
1F80
0F00
0F00
0600
0600
0000
0000
0000
0000
0000
0000
ENDCHAR
STARTCHAR char9664
ENCODING 9664
SWIDTH 416 0
DWIDTH 10 0
BBX 10 24 0 -5
BITMAP
0000
0000
0000
0000
0000
0000
0030
00F0
03F0
0FF0
3FF0
FFF0
FFF0
3FF0
0FF0
03F0
00F0
0030
0000
0000
0000
0000
0000
0000
ENDCHAR
STARTCHAR char9670
ENCODING 9670
SWIDTH 416 0
DWIDTH 10 0
BBX 10 24 0 -5
BITMAP
0000
0000
0000
0000
0000
0000
0600
0F00
1F80
3FC0
7FE0
FFF0
FFF0
7FE0
3FC0
1F80
0F00
0600
0000
0000
0000
0000
0000
0000
ENDCHAR
STARTCHAR char9674
ENCODING 9674
SWIDTH 416 0
DWIDTH 10 0
BBX 10 24 0 -5
BITMAP
0000
0000
0000
0000
0000
0000
0600
0F00
1980
30C0
6060
C030
C030
6060
30C0
1980
0F00
0600
0000
0000
0000
0000
0000
0000
ENDCHAR
STARTCHAR char9675
ENCODING 9675
SWIDTH 416 0
DWIDTH 10 0
BBX 10 24 0 -5
BITMAP
0000
0000
0000
0000
0000
0000
0000
0000
0000
0F00
1980
1080
1080
1980
0F00
0000
0000
0000
0000
0000
0000
0000
0000
0000
ENDCHAR
STARTCHAR char9688
ENCODING 9688
SWIDTH 416 0
DWIDTH 10 0
BBX 10 24 0 -5
BITMAP
FFF0
FFF0
FFF0
FFF0
FFF0
FFF0
FFF0
FFF0
FFF0
F0F0
E070
E070
E070
E070
F0F0
FFF0
FFF0
FFF0
FFF0
FFF0
FFF0
FFF0
FFF0
FFF0
ENDCHAR
STARTCHAR char9689
ENCODING 9689
SWIDTH 416 0
DWIDTH 10 0
BBX 10 24 0 -5
BITMAP
FFF0
FFF0
FFF0
FFF0
FFF0
FFF0
FFF0
FFF0
FFF0
F0F0
E670
EF70
EF70
E670
F0F0
FFF0
FFF0
FFF0
FFF0
FFF0
FFF0
FFF0
FFF0
FFF0
ENDCHAR
STARTCHAR char9786
ENCODING 9786
SWIDTH 416 0
DWIDTH 10 0
BBX 10 24 0 -5
BITMAP
0000
0000
0000
0000
3FC0
6060
C030
C030
D9B0
D9B0
C030
C030
C030
DFB0
CF30
C030
C030
6060
3FC0
0000
0000
0000
0000
0000
ENDCHAR
STARTCHAR char9787
ENCODING 9787
SWIDTH 416 0
DWIDTH 10 0
BBX 10 24 0 -5
BITMAP
0000
0000
0000
0000
3FC0
7FE0
FFF0
FFF0
E670
E670
FFF0
FFF0
FFF0
E070
F0F0
FFF0
FFF0
7FE0
3FC0
0000
0000
0000
0000
0000
ENDCHAR
STARTCHAR char9788
ENCODING 9788
SWIDTH 416 0
DWIDTH 10 0
BBX 10 24 0 -5
BITMAP
0000
0000
0000
0000
0600
0600
0600
C630
6660
36C0
1F80
F9F0
1F80
36C0
6660
C630
0600
0600
0600
0000
0000
0000
0000
0000
ENDCHAR
STARTCHAR char9792
ENCODING 9792
SWIDTH 416 0
DWIDTH 10 0
BBX 10 24 0 -5
BITMAP
0000
0000
0000
0000
1F80
30C0
6060
6060
6060
6060
6060
30C0
1F80
0600
0600
7FE0
0600
0600
0600
0000
0000
0000
0000
0000
ENDCHAR
STARTCHAR char9794
ENCODING 9794
SWIDTH 416 0
DWIDTH 10 0
BBX 10 24 0 -5
BITMAP
0000
0000
0000
0000
07E0
00E0
01A0
0320
0620
0C00
1F00
3180
60C0
60C0
60C0
60C0
60C0
3180
1F00
0000
0000
0000
0000
0000
ENDCHAR
STARTCHAR char9824
ENCODING 9824
SWIDTH 416 0
DWIDTH 10 0
BBX 10 24 0 -5
BITMAP
0000
0000
0000
0000
0600
0600
0F00
1F80
3FC0
7FE0
7FE0
7FE0
7FE0
7FE0
36C0
0600
0600
0600
1F80
0000
0000
0000
0000
0000
ENDCHAR
STARTCHAR char9827
ENCODING 9827
SWIDTH 416 0
DWIDTH 10 0
BBX 10 24 0 -5
BITMAP
0000
0000
0000
0000
0F00
1F80
1F80
0F00
0600
0600
76E0
FFF0
FFF0
FFF0
76E0
0600
0600
0600
1F80
0000
0000
0000
0000
0000
ENDCHAR
STARTCHAR char9829
ENCODING 9829
SWIDTH 416 0
DWIDTH 10 0
BBX 10 24 0 -5
BITMAP
0000
0000
0000
0000
0000
0000
39C0
79E0
FFF0
FFF0
FFF0
FFF0
FFF0
7FE0
3FC0
1F80
0F00
0600
0000
0000
0000
0000
0000
0000
ENDCHAR
STARTCHAR char9830
ENCODING 9830
SWIDTH 416 0
DWIDTH 10 0
BBX 10 24 0 -5
BITMAP
0000
0000
0000
0000
0000
0000
0600
0F00
1F80
3FC0
7FE0
FFF0
FFF0
7FE0
3FC0
1F80
0F00
0600
0000
0000
0000
0000
0000
0000
ENDCHAR
STARTCHAR char9834
ENCODING 9834
SWIDTH 416 0
DWIDTH 10 0
BBX 10 24 0 -5
BITMAP
0000
0000
0000
0000
3FE0
3060
3060
3060
3FE0
3000
3000
3000
3000
3000
3000
3000
3000
F000
E000
0000
0000
0000
0000
0000
ENDCHAR
STARTCHAR char9835
ENCODING 9835
SWIDTH 416 0
DWIDTH 10 0
BBX 10 24 0 -5
BITMAP
0000
0000
0000
0000
7FE0
6060
6060
6060
7FE0
6060
6060
6060
6060
6060
6060
6060
6060
60C0
C000
0000
0000
0000
0000
0000
ENDCHAR
STARTCHAR char65533
ENCODING 65533
SWIDTH 416 0
DWIDTH 10 0
BBX 10 24 0 -5
BITMAP
0000
0000
0000
0000
7FE0
6060
6060
6060
6060
6060
6060
6060
6060
6060
6060
6060
6060
6060
7FE0
0000
0000
0000
0000
0000
ENDCHAR
ENDFONT
